Palanquin Regular.ufo
<glyph name="percent" format="1">
  <advance width="860"/>
  <unicode hex="0025"/>
  <outline>
    <contour>
      <point x="102" y="702"/>
      <point x="31" y="636"/>
      <point x="31" y="532" type="curve"/>
      <point x="31" y="424"/>
      <point x="98" y="363"/>
      <point x="190" y="363" type="curve"/>
      <point x="277" y="363"/>
      <point x="348" y="428"/>
      <point x="348" y="532" type="curve"/>
      <point x="348" y="640"/>
      <point x="281" y="702"/>
      <point x="189" y="702" type="curve"/>
    </contour>
    <contour>
      <point x="145" y="424"/>
      <point x="105" y="457"/>
      <point x="105" y="532" type="curve"/>
      <point x="105" y="610"/>
      <point x="149" y="640"/>
      <point x="189" y="640" type="curve"/>
      <point x="234" y="640"/>
      <point x="274" y="608"/>
      <point x="274" y="532" type="curve"/>
      <point x="274" y="454"/>
      <point x="230" y="424"/>
      <point x="190" y="424" type="curve"/>
    </contour>
    <contour>
      <point x="620" y="706" type="line"/>
      <point x="543" y="710" type="line"/>
      <point x="238" y="0" type="line"/>
      <point x="314" y="-4" type="line"/>
    </contour>
    <contour>
      <point x="583" y="338"/>
      <point x="512" y="273"/>
      <point x="512" y="169" type="curve"/>
      <point x="512" y="61"/>
      <point x="579" y="0"/>
      <point x="671" y="0" type="curve"/>
      <point x="758" y="0"/>
      <point x="828" y="65"/>
      <point x="828" y="169" type="curve"/>
      <point x="828" y="276"/>
      <point x="762" y="338"/>
      <point x="671" y="338" type="curve"/>
    </contour>
    <contour>
      <point x="626" y="61"/>
      <point x="587" y="93"/>
      <point x="587" y="169" type="curve"/>
      <point x="587" y="247"/>
      <point x="630" y="277"/>
      <point x="671" y="277" type="curve"/>
      <point x="715" y="277"/>
      <point x="754" y="244"/>
      <point x="754" y="169" type="curve"/>
      <point x="754" y="92"/>
      <point x="711" y="61"/>
      <point x="671" y="61" type="curve"/>
    </contour>
  </outline>
</glyph>
<glyph name="ampersand" format="1">
  <advance width="682"/>
  <unicode hex="0026"/>
  <outline>
    <contour>
      <point x="390" y="629"/>
      <point x="419" y="610"/>
      <point x="455" y="593" type="curve"/>
      <point x="483" y="654" type="line"/>
      <point x="439" y="675"/>
      <point x="390" y="696"/>
      <point x="323" y="696" type="curve"/>
      <point x="203" y="696"/>
      <point x="135" y="613"/>
      <point x="135" y="516" type="curve"/>
      <point x="135" y="474"/>
      <point x="145" y="442"/>
      <point x="165" y="414" type="curve"/>
      <point x="102" y="372"/>
      <point x="58" y="297"/>
      <point x="57" y="210" type="curve"/>
      <point x="57" y="63"/>
      <point x="170" y="-11"/>
      <point x="314" y="-13" type="curve"/>
      <point x="411" y="-13"/>
      <point x="480" y="18"/>
      <point x="527" y="70" type="curve"/>
      <point x="609" y="-4" type="line"/>
      <point x="650" y="51" type="line"/>
      <point x="568" y="126" type="line"/>
      <point x="598" y="181"/>
      <point x="613" y="248"/>
      <point x="617" y="325" type="curve"/>
      <point x="553" y="351" type="line"/>
      <point x="549" y="283"/>
      <point x="535" y="225"/>
      <point x="511" y="177" type="curve"/>
      <point x="313" y="362" type="line"/>
      <point x="247" y="423"/>
      <point x="212" y="458"/>
      <point x="212" y="522" type="curve"/>
      <point x="212" y="576"/>
      <point x="255" y="629"/>
      <point x="323" y="629" type="curve"/>
    </contour>
    <contour>
      <point x="224" y="56"/>
      <point x="138" y="103"/>
      <point x="138" y="212" type="curve"/>
      <point x="139" y="277"/>
      <point x="164" y="332"/>
      <point x="210" y="361" type="curve"/>
      <point x="224" y="347"/>
      <point x="248" y="327"/>
      <point x="267" y="308" type="curve"/>
      <point x="473" y="121" type="line"/>
      <point x="435" y="79"/>
      <point x="382" y="56"/>
      <point x="314" y="56" type="curve"/>
    </contour>
  </outline>
</glyph>
<glyph name="parenleft" format="1">
  <advance width="251"/>
  <unicode hex="0028"/>
  <outline>
    <contour>
      <point x="49" y="207"/>
      <point x="88" y="69"/>
      <point x="170" y="-38" type="curve"/>
      <point x="234" y="-15" type="line"/>
      <point x="176" y="49"/>
      <point x="127" y="222"/>
      <point x="127" y="321" type="curve"/>
      <point x="127" y="418"/>
      <point x="176" y="587"/>
      <point x="235" y="654" type="curve"/>
      <point x="170" y="677" type="line"/>
      <point x="87" y="567"/>
      <point x="49" y="432"/>
      <point x="49" y="320" type="curve"/>
    </contour>
  </outline>
</glyph>
<glyph name="asterisk" format="1">
  <advance width="342"/>
  <unicode hex="002A"/>
  <outline>
    <contour>
      <point x="203" y="661" type="line"/>
      <point x="202" y="772" type="line"/>
      <point x="140" y="772" type="line"/>
      <point x="140" y="763"/>
      <point x="139" y="669"/>
      <point x="139" y="661" type="curve"/>
      <point x="22" y="686" type="line"/>
      <point x="6" y="634" type="line"/>
      <point x="15" y="633"/>
      <point x="115" y="613"/>
      <point x="123" y="611" type="curve"/>
      <point x="41" y="494" type="line"/>
      <point x="88" y="459" type="line"/>
      <point x="172" y="572" type="line"/>
      <point x="256" y="459" type="line"/>
      <point x="301" y="494" type="line"/>
      <point x="220" y="611" type="line"/>
      <point x="337" y="634" type="line"/>
      <point x="320" y="686" type="line"/>
    </contour>
  </outline>
</glyph>
<glyph name="plus" format="1">
  <advance width="514"/>
  <unicode hex="002B"/>
  <outline>
    <contour>
      <point x="495" y="242" type="line"/>
      <point x="485" y="304" type="line"/>
      <point x="295" y="304" type="line"/>
      <point x="295" y="531" type="line"/>
      <point x="221" y="534" type="line"/>
      <point x="221" y="304" type="line"/>
      <point x="20" y="304" type="line"/>
      <point x="28" y="242" type="line"/>
      <point x="221" y="242" type="line"/>
      <point x="221" y="8" type="line"/>
      <point x="295" y="4" type="line"/>
      <point x="295" y="242" type="line"/>
    </contour>
  </outline>
</glyph>
<glyph name="zero" format="1">
  <advance width="608"/>
  <unicode hex="0030"/>
  <outline>
    <contour>
      <point x="158" y="579"/>
      <point x="59" y="469"/>
      <point x="59" y="287" type="curve"/>
      <point x="59" y="100"/>
      <point x="160" y="-13"/>
      <point x="304" y="-13" type="curve"/>
      <point x="445" y="-13"/>
      <point x="547" y="106"/>
      <point x="547" y="288" type="curve"/>
      <point x="547" y="475"/>
      <point x="450" y="579"/>
      <point x="304" y="579" type="curve"/>
    </contour>
    <contour>
      <point x="208" y="55"/>
      <point x="138" y="141"/>
      <point x="138" y="290" type="curve"/>
      <point x="138" y="431"/>
      <point x="209" y="512"/>
      <point x="304" y="512" type="curve"/>
      <point x="401" y="512"/>
      <point x="469" y="432"/>
      <point x="469" y="285" type="curve"/>
      <point x="469" y="143"/>
      <point x="397" y="55"/>
      <point x="304" y="55" type="curve"/>
    </contour>
  </outline>
</glyph>
<glyph name="two" format="1">
  <advance width="494"/>
  <unicode hex="0032"/>
  <outline>
    <contour>
      <point x="423" y="487"/>
      <point x="373" y="579"/>
      <point x="227" y="579" type="curve"/>
      <point x="135" y="579"/>
      <point x="68" y="529"/>
      <point x="57" y="522" type="curve"/>
      <point x="92" y="465" type="line"/>
      <point x="94" y="467"/>
      <point x="162" y="514"/>
      <point x="225" y="514" type="curve"/>
      <point x="306" y="514"/>
      <point x="345" y="469"/>
      <point x="345" y="408" type="curve"/>
      <point x="345" y="356"/>
      <point x="318" y="319"/>
      <point x="234" y="243" type="curve"/>
      <point x="31" y="59" type="line"/>
      <point x="31" y="0" type="line"/>
      <point x="443" y="0" type="line"/>
      <point x="433" y="62" type="line"/>
      <point x="130" y="62" type="line"/>
      <point x="277" y="191" type="line" smooth="yes"/>
      <point x="373" y="275"/>
      <point x="423" y="332"/>
      <point x="423" y="408" type="curve"/>
    </contour>
  </outline>
</glyph>
<glyph name="four" format="1">
  <advance width="556"/>
  <unicode hex="0034"/>
  <outline>
    <contour>
      <point x="516" y="70" type="line"/>
      <point x="525" y="135" type="line"/>
      <point x="421" y="135" type="line"/>
      <point x="421" y="571" type="line"/>
      <point x="366" y="571" type="line"/>
      <point x="31" y="135" type="line"/>
      <point x="42" y="70" type="line"/>
      <point x="341" y="70" type="line"/>
      <point x="341" y="-69" type="line"/>
      <point x="421" y="-69" type="line"/>
      <point x="421" y="70" type="line"/>
    </contour>
    <contour>
      <point x="116" y="135" type="line"/>
      <point x="341" y="433" type="line"/>
      <point x="341" y="135" type="line"/>
    </contour>
  </outline>
</glyph>
<glyph name="nine" format="1">
  <advance width="545"/>
  <unicode hex="0039"/>
  <outline>
    <contour>
      <point x="129" y="579"/>
      <point x="47" y="479"/>
      <point x="47" y="372" type="curve"/>
      <point x="47" y="268"/>
      <point x="125" y="174"/>
      <point x="252" y="174" type="curve"/>
      <point x="306" y="174"/>
      <point x="360" y="202"/>
      <point x="396" y="233" type="curve"/>
      <point x="370" y="118"/>
      <point x="280" y="8"/>
      <point x="160" y="-18" type="curve"/>
      <point x="195" y="-69" type="line"/>
      <point x="367" y="-33"/>
      <point x="484" y="157"/>
      <point x="484" y="304" type="curve"/>
      <point x="484" y="485"/>
      <point x="390" y="579"/>
      <point x="250" y="579" type="curve"/>
    </contour>
    <contour>
      <point x="171" y="235"/>
      <point x="123" y="304"/>
      <point x="123" y="378" type="curve"/>
      <point x="123" y="448"/>
      <point x="172" y="513"/>
      <point x="253" y="513" type="curve"/>
      <point x="353" y="513"/>
      <point x="401" y="437"/>
      <point x="406" y="323" type="curve"/>
      <point x="380" y="278"/>
      <point x="324" y="235"/>
      <point x="252" y="235" type="curve"/>
    </contour>
  </outline>
</glyph>
<glyph name="colon" format="1">
  <advance width="137"/>
  <unicode hex="003A"/>
  <outline>
    <contour>
      <point x="122" y="112"/>
      <point x="99" y="135"/>
      <point x="68" y="135" type="curve"/>
      <point x="38" y="135"/>
      <point x="14" y="112"/>
      <point x="14" y="81" type="curve"/>
      <point x="14" y="50"/>
      <point x="38" y="27"/>
      <point x="68" y="27" type="curve"/>
      <point x="99" y="27"/>
      <point x="122" y="50"/>
      <point x="122" y="81" type="curve"/>
    </contour>
    <contour>
      <point x="122" y="431"/>
      <point x="99" y="457"/>
      <point x="68" y="457" type="curve"/>
      <point x="38" y="457"/>
      <point x="14" y="431"/>
      <point x="14" y="402" type="curve"/>
      <point x="14" y="372"/>
      <point x="38" y="348"/>
      <point x="68" y="348" type="curve"/>
      <point x="99" y="348"/>
      <point x="122" y="372"/>
      <point x="122" y="402" type="curve"/>
    </contour>
  </outline>
</glyph>
<glyph name="less" format="1">
  <advance width="321"/>
  <unicode hex="003C"/>
  <outline>
    <contour>
      <point x="267" y="19" type="line"/>
      <point x="290" y="80" type="line"/>
      <point x="86" y="245" type="line"/>
      <point x="290" y="410" type="line"/>
      <point x="267" y="470" type="line"/>
      <point x="11" y="270" type="line"/>
      <point x="11" y="220" type="line"/>
    </contour>
  </outline>
</glyph>
<glyph name="equal" format="1">
  <advance width="484"/>
  <unicode hex="003D"/>
  <outline>
    <contour>
      <point x="463" y="319" type="line"/>
      <point x="455" y="380" type="line"/>
      <point x="21" y="380" type="line"/>
      <point x="30" y="319" type="line"/>
    </contour>
    <contour>
      <point x="463" y="131" type="line"/>
      <point x="455" y="192" type="line"/>
      <point x="21" y="192" type="line"/>
      <point x="30" y="131" type="line"/>
    </contour>
  </outline>
</glyph>
<glyph name="question" format="1">
  <advance width="400"/>
  <unicode hex="003F"/>
  <outline>
    <contour>
      <point x="385" y="633"/>
      <point x="327" y="702"/>
      <point x="194" y="702" type="curve"/>
      <point x="116" y="702"/>
      <point x="68" y="677"/>
      <point x="13" y="642" type="curve"/>
      <point x="24" y="572" type="line"/>
      <point x="79" y="612"/>
      <point x="126" y="634"/>
      <point x="192" y="634" type="curve"/>
      <point x="267" y="634"/>
      <point x="307" y="604"/>
      <point x="307" y="533" type="curve"/>
      <point x="307" y="461"/>
      <point x="234" y="401"/>
      <point x="132" y="368" type="curve"/>
      <point x="140" y="172" type="line"/>
      <point x="198" y="149" type="line"/>
      <point x="208" y="328" type="line"/>
      <point x="315" y="378"/>
      <point x="385" y="459"/>
      <point x="385" y="534" type="curve"/>
    </contour>
    <contour>
      <point x="221" y="84"/>
      <point x="197" y="107"/>
      <point x="167" y="107" type="curve"/>
      <point x="136" y="107"/>
      <point x="113" y="84"/>
      <point x="113" y="54" type="curve"/>
      <point x="113" y="23"/>
      <point x="136" y="0"/>
      <point x="167" y="0" type="curve"/>
      <point x="197" y="0"/>
      <point x="221" y="23"/>
      <point x="221" y="54" type="curve"/>
    </contour>
  </outline>
</glyph>
<glyph name="at" format="1">
  <advance width="801"/>
  <unicode hex="0040"/>
  <outline>
    <contour>
      <point x="537" y="415" type="line"/>
      <point x="464" y="415" type="line" smooth="yes"/>
      <point x="347" y="415"/>
      <point x="239" y="337"/>
      <point x="239" y="214" type="curve" smooth="yes"/>
      <point x="239" y="125"/>
      <point x="292" y="64"/>
      <point x="405" y="64" type="curve" smooth="yes"/>
      <point x="440" y="64"/>
      <point x="475" y="80"/>
      <point x="499" y="96" type="curve"/>
      <point x="519" y="74"/>
      <point x="548" y="63"/>
      <point x="580" y="63" type="curve" smooth="yes"/>
      <point x="683" y="63"/>
      <point x="751" y="143"/>
      <point x="751" y="304" type="curve" smooth="yes"/>
      <point x="751" y="473"/>
      <point x="623" y="596"/>
      <point x="441" y="596" type="curve" smooth="yes"/>
      <point x="198" y="596"/>
      <point x="52" y="423"/>
      <point x="52" y="216" type="curve" smooth="yes"/>
      <point x="52" y="22"/>
      <point x="209" y="-104"/>
      <point x="374" y="-104" type="curve" smooth="yes"/>
      <point x="440" y="-104"/>
      <point x="509" y="-94"/>
      <point x="569" y="-63" type="curve"/>
      <point x="549" y="-4" type="line"/>
      <point x="503" y="-28"/>
      <point x="439" y="-39"/>
      <point x="385" y="-39" type="curve" smooth="yes"/>
      <point x="242" y="-39"/>
      <point x="127" y="57"/>
      <point x="127" y="216" type="curve" smooth="yes"/>
      <point x="127" y="412"/>
      <point x="274" y="534"/>
      <point x="439" y="534" type="curve" smooth="yes"/>
      <point x="588" y="534"/>
      <point x="683" y="436"/>
      <point x="683" y="298" type="curve" smooth="yes"/>
      <point x="683" y="190"/>
      <point x="642" y="124"/>
      <point x="587" y="124" type="curve" smooth="yes"/>
      <point x="565" y="124"/>
      <point x="538" y="136"/>
      <point x="538" y="177" type="curve" smooth="yes"/>
      <point x="538" y="179"/>
      <point x="538" y="182"/>
      <point x="562" y="385" type="curve" smooth="yes"/>
    </contour>
    <contour>
      <point x="460" y="137"/>
      <point x="435" y="124"/>
      <point x="404" y="124" type="curve" smooth="yes"/>
      <point x="337" y="124"/>
      <point x="313" y="171"/>
      <point x="313" y="214" type="curve" smooth="yes"/>
      <point x="313" y="301"/>
      <point x="378" y="356"/>
      <point x="453" y="359" type="curve"/>
      <point x="495" y="359" type="line"/>
      <point x="485" y="292"/>
      <point x="472" y="234"/>
      <point x="472" y="178" type="curve" smooth="yes"/>
      <point x="472" y="171"/>
      <point x="473" y="163"/>
      <point x="474" y="157" type="curve"/>
    </contour>
  </outline>
</glyph>
<glyph name="B" format="1">
  <advance width="616"/>
  <unicode hex="0042"/>
  <outline>
    <contour>
      <point x="518" y="637"/>
      <point x="420" y="680"/>
      <point x="279" y="680" type="curve"/>
      <point x="100" y="680" type="line"/>
      <point x="100" y="0" type="line"/>
      <point x="313" y="0" type="line"/>
      <point x="455" y="0"/>
      <point x="565" y="51"/>
      <point x="565" y="191" type="curve"/>
      <point x="565" y="283"/>
      <point x="512" y="337"/>
      <point x="434" y="364" type="curve"/>
      <point x="485" y="391"/>
      <point x="518" y="436"/>
      <point x="518" y="500" type="curve"/>
    </contour>
    <contour>
      <point x="322" y="320" type="line" smooth="yes"/>
      <point x="421" y="320"/>
      <point x="484" y="282"/>
      <point x="484" y="189" type="curve"/>
      <point x="484" y="95"/>
      <point x="409" y="66"/>
      <point x="312" y="66" type="curve"/>
      <point x="178" y="66" type="line"/>
      <point x="178" y="320" type="line"/>
    </contour>
    <contour>
      <point x="275" y="613" type="line" smooth="yes"/>
      <point x="374" y="613"/>
      <point x="437" y="593"/>
      <point x="437" y="498" type="curve"/>
      <point x="437" y="411"/>
      <point x="367" y="385"/>
      <point x="271" y="384" type="curve"/>
      <point x="178" y="384" type="line"/>
      <point x="178" y="613" type="line"/>
    </contour>
  </outline>
</glyph>
<glyph name="D" format="1">
  <advance width="695"/>
  <unicode hex="0044"/>
  <outline>
    <contour>
      <point x="99" y="0" type="line"/>
      <point x="321" y="0" type="line" smooth="yes"/>
      <point x="520" y="0"/>
      <point x="625" y="148"/>
      <point x="625" y="344" type="curve" smooth="yes"/>
      <point x="625" y="532"/>
      <point x="539" y="680"/>
      <point x="328" y="680" type="curve" smooth="yes"/>
      <point x="99" y="680" type="line"/>
    </contour>
    <contour>
      <point x="331" y="612" type="line" smooth="yes"/>
      <point x="479" y="612"/>
      <point x="547" y="500"/>
      <point x="547" y="343" type="curve" smooth="yes"/>
      <point x="547" y="168"/>
      <point x="457" y="66"/>
      <point x="322" y="66" type="curve" smooth="yes"/>
      <point x="178" y="66" type="line"/>
      <point x="178" y="612" type="line"/>
    </contour>
  </outline>
</glyph>
<glyph name="P" format="1">
  <advance width="584"/>
  <unicode hex="0050"/>
  <outline>
    <contour>
      <point x="100" y="0" type="line"/>
      <point x="178" y="0" type="line"/>
      <point x="178" y="257" type="line"/>
      <point x="274" y="257" type="line" smooth="yes"/>
      <point x="417" y="257"/>
      <point x="534" y="322"/>
      <point x="536" y="472" type="curve"/>
      <point x="536" y="623"/>
      <point x="429" y="680"/>
      <point x="285" y="680" type="curve"/>
      <point x="100" y="680" type="line"/>
    </contour>
    <contour>
      <point x="285" y="613" type="line" smooth="yes"/>
      <point x="389" y="613"/>
      <point x="454" y="579"/>
      <point x="454" y="469" type="curve"/>
      <point x="452" y="364"/>
      <point x="377" y="324"/>
      <point x="278" y="324" type="curve"/>
      <point x="178" y="324" type="line"/>
      <point x="178" y="613" type="line"/>
    </contour>
  </outline>
</glyph>
<glyph name="Q" format="1">
  <advance width="737"/>
  <unicode hex="0051"/>
  <outline>
    <contour>
      <point x="606" y="-20" type="line"/>
      <point x="653" y="21" type="line"/>
      <point x="585" y="86" type="line"/>
      <point x="640" y="152"/>
      <point x="669" y="245"/>
      <point x="669" y="345" type="curve"/>
      <point x="669" y="533"/>
      <point x="581" y="696"/>
      <point x="371" y="696" type="curve"/>
      <point x="173" y="692"/>
      <point x="69" y="540"/>
      <point x="69" y="337" type="curve"/>
      <point x="69" y="149"/>
      <point x="156" y="-14"/>
      <point x="366" y="-14" type="curve"/>
      <point x="435" y="-13"/>
      <point x="494" y="7"/>
      <point x="539" y="43" type="curve"/>
    </contour>
    <contour>
      <point x="217" y="54"/>
      <point x="152" y="180"/>
      <point x="152" y="338" type="curve"/>
      <point x="152" y="508"/>
      <point x="238" y="626"/>
      <point x="372" y="626" type="curve"/>
      <point x="520" y="626"/>
      <point x="584" y="502"/>
      <point x="584" y="344" type="curve"/>
      <point x="584" y="261"/>
      <point x="564" y="191"/>
      <point x="529" y="141" type="curve"/>
      <point x="441" y="228" type="line"/>
      <point x="386" y="186" type="line"/>
      <point x="484" y="94" type="line"/>
      <point x="451" y="68"/>
      <point x="411" y="54"/>
      <point x="364" y="54" type="curve"/>
    </contour>
  </outline>
</glyph>
<glyph name="S" format="1">
  <advance width="538"/>
  <unicode hex="0053"/>
  <outline>
    <contour>
      <point x="182" y="54"/>
      <point x="116" y="77"/>
      <point x="80" y="95" type="curve"/>
      <point x="73" y="74"/>
      <point x="67" y="53"/>
      <point x="61" y="33" type="curve"/>
      <point x="86" y="11"/>
      <point x="190" y="-13"/>
      <point x="248" y="-13" type="curve" smooth="yes"/>
      <point x="402" y="-13"/>
      <point x="488" y="61"/>
      <point x="488" y="166" type="curve" smooth="yes"/>
      <point x="488" y="365"/>
      <point x="127" y="377"/>
      <point x="127" y="526" type="curve" smooth="yes"/>
      <point x="127" y="591"/>
      <point x="187" y="627"/>
      <point x="272" y="627" type="curve" smooth="yes"/>
      <point x="339" y="627"/>
      <point x="379" y="609"/>
      <point x="414" y="592" type="curve"/>
      <point x="423" y="613"/>
      <point x="433" y="633"/>
      <point x="441" y="654" type="curve"/>
      <point x="398" y="675"/>
      <point x="335" y="696"/>
      <point x="267" y="696" type="curve" smooth="yes"/>
      <point x="132" y="696"/>
      <point x="50" y="621"/>
      <point x="50" y="524" type="curve" smooth="yes"/>
      <point x="50" y="317"/>
      <point x="410" y="309"/>
      <point x="410" y="164" type="curve" smooth="yes"/>
      <point x="410" y="99"/>
      <point x="353" y="54"/>
      <point x="247" y="54" type="curve" smooth="yes"/>
    </contour>
  </outline>
</glyph>
<glyph name="V" format="1">
  <advance width="601"/>
  <unicode hex="0056"/>
  <outline>
    <contour>
      <point x="266" y="0" type="line"/>
      <point x="343" y="0" type="line"/>
      <point x="595" y="680" type="line"/>
      <point x="518" y="680" type="line"/>
      <point x="304" y="103" type="line"/>
      <point x="83" y="680" type="line"/>
      <point x="6" y="667" type="line"/>
    </contour>
  </outline>
</glyph>
<glyph name="Y" format="1">
  <advance width="561"/>
  <unicode hex="0059"/>
  <outline>
    <contour>
      <point x="238" y="0" type="line"/>
      <point x="318" y="0" type="line"/>
      <point x="319" y="277" type="line"/>
      <point x="556" y="680" type="line"/>
      <point x="472" y="680" type="line"/>
      <point x="278" y="351" type="line"/>
      <point x="88" y="680" type="line"/>
      <point x="6" y="667" type="line"/>
      <point x="239" y="273" type="line"/>
    </contour>
  </outline>
</glyph>
<glyph name="Z" format="1">
  <advance width="569"/>
  <unicode hex="005A"/>
  <outline>
    <contour>
      <point x="530" y="0" type="line"/>
      <point x="522" y="62" type="line"/>
      <point x="109" y="62" type="line"/>
      <point x="253" y="248"/>
      <point x="395" y="432"/>
      <point x="539" y="617" type="curve"/>
      <point x="531" y="680" type="line"/>
      <point x="50" y="680" type="line"/>
      <point x="53" y="659"/>
      <point x="58" y="638"/>
      <point x="61" y="617" type="curve"/>
      <point x="451" y="617" type="line"/>
      <point x="308" y="432"/>
      <point x="165" y="248"/>
      <point x="22" y="62" type="curve"/>
      <point x="31" y="0" type="line"/>
    </contour>
  </outline>
</glyph>
<glyph name="asciicircum" format="1">
  <advance width="431"/>
  <unicode hex="005E"/>
  <outline>
    <contour>
      <point x="93" y="143" type="line"/>
      <point x="216" y="322" type="line"/>
      <point x="338" y="143" type="line"/>
      <point x="416" y="143" type="line"/>
      <point x="247" y="390" type="line"/>
      <point x="183" y="390" type="line"/>
      <point x="14" y="143" type="line"/>
    </contour>
  </outline>
</glyph>
<glyph name="b" format="1">
  <advance width="552"/>
  <unicode hex="0062"/>
  <outline>
    <contour>
      <point x="80" y="0" type="line"/>
      <point x="127" y="0" type="line"/>
      <point x="134" y="14"/>
      <point x="140" y="28"/>
      <point x="146" y="42" type="curve"/>
      <point x="189" y="9"/>
      <point x="242" y="-12"/>
      <point x="290" y="-12" type="curve" smooth="yes"/>
      <point x="432" y="-12"/>
      <point x="501" y="94"/>
      <point x="501" y="243" type="curve" smooth="yes"/>
      <point x="501" y="391"/>
      <point x="433" y="499"/>
      <point x="290" y="499" type="curve" smooth="yes"/>
      <point x="247" y="499"/>
      <point x="198" y="479"/>
      <point x="159" y="450" type="curve"/>
      <point x="159" y="706" type="line"/>
      <point x="80" y="695" type="line"/>
    </contour>
    <contour>
      <point x="241" y="54"/>
      <point x="197" y="72"/>
      <point x="159" y="105" type="curve"/>
      <point x="159" y="380" type="line"/>
      <point x="197" y="414"/>
      <point x="241" y="432"/>
      <point x="278" y="432" type="curve" smooth="yes"/>
      <point x="385" y="432"/>
      <point x="422" y="350"/>
      <point x="422" y="242" type="curve" smooth="yes"/>
      <point x="422" y="137"/>
      <point x="383" y="54"/>
      <point x="278" y="54" type="curve" smooth="yes"/>
    </contour>
  </outline>
</glyph>
<glyph name="c" format="1">
  <advance width="469"/>
  <unicode hex="0063"/>
  <outline>
    <contour>
      <point x="132" y="351"/>
      <point x="176" y="431"/>
      <point x="275" y="431" type="curve"/>
      <point x="339" y="431"/>
      <point x="365" y="415"/>
      <point x="402" y="397" type="curve"/>
      <point x="426" y="454" type="line"/>
      <point x="385" y="482"/>
      <point x="316" y="498"/>
      <point x="277" y="498" type="curve"/>
      <point x="130" y="498"/>
      <point x="51" y="393"/>
      <point x="49" y="244" type="curve"/>
      <point x="49" y="92"/>
      <point x="125" y="-13"/>
      <point x="272" y="-13" type="curve"/>
      <point x="313" y="-13"/>
      <point x="381" y="3"/>
      <point x="422" y="30" type="curve"/>
      <point x="398" y="88" type="line"/>
      <point x="360" y="69"/>
      <point x="336" y="54"/>
      <point x="271" y="54" type="curve"/>
      <point x="170" y="54"/>
      <point x="130" y="135"/>
      <point x="130" y="245" type="curve"/>
    </contour>
  </outline>
</glyph>
<glyph name="h" format="1">
  <advance width="560"/>
  <unicode hex="0068"/>
  <outline>
    <contour>
      <point x="268" y="499"/>
      <point x="200" y="465"/>
      <point x="159" y="421" type="curve"/>
      <point x="159" y="706" type="line"/>
      <point x="80" y="696" type="line"/>
      <point x="80" y="0" type="line"/>
      <point x="159" y="0" type="line"/>
      <point x="159" y="353" type="line"/>
      <point x="202" y="403"/>
      <point x="269" y="432"/>
      <point x="310" y="432" type="curve"/>
      <point x="378" y="431"/>
      <point x="408" y="384"/>
      <point x="408" y="318" type="curve"/>
      <point x="408" y="1" type="line"/>
      <point x="487" y="1" type="line"/>
      <point x="487" y="329" type="line"/>
      <point x="487" y="427"/>
      <point x="436" y="499"/>
      <point x="324" y="499" type="curve"/>
    </contour>
  </outline>
</glyph>
<glyph name="o" format="1">
  <advance width="543"/>
  <unicode hex="006F"/>
  <outline>
    <contour>
      <point x="49" y="94"/>
      <point x="120" y="-11"/>
      <point x="264" y="-13" type="curve"/>
      <point x="409" y="-13"/>
      <point x="492" y="90"/>
      <point x="493" y="239" type="curve"/>
      <point x="493" y="390"/>
      <point x="421" y="498"/>
      <point x="274" y="498" type="curve"/>
      <point x="129" y="496"/>
      <point x="51" y="392"/>
      <point x="49" y="245" type="curve"/>
    </contour>
    <contour>
      <point x="377" y="430"/>
      <point x="414" y="350"/>
      <point x="414" y="239" type="curve"/>
      <point x="412" y="127"/>
      <point x="365" y="55"/>
      <point x="265" y="55" type="curve"/>
      <point x="165" y="55"/>
      <point x="130" y="132"/>
      <point x="130" y="246" type="curve"/>
      <point x="132" y="355"/>
      <point x="177" y="430"/>
      <point x="276" y="430" type="curve"/>
    </contour>
  </outline>
</glyph>
<glyph name="q" format="1">
  <advance width="554"/>
  <unicode hex="0071"/>
  <outline>
    <contour>
      <point x="474" y="485" type="line"/>
      <point x="427" y="485" type="line"/>
      <point x="407" y="441" type="line"/>
      <point x="366" y="474"/>
      <point x="309" y="499"/>
      <point x="262" y="499" type="curve"/>
      <point x="120" y="499"/>
      <point x="49" y="392"/>
      <point x="49" y="242" type="curve"/>
      <point x="49" y="94"/>
      <point x="118" y="-13"/>
      <point x="260" y="-13" type="curve"/>
      <point x="303" y="-13"/>
      <point x="355" y="7"/>
      <point x="394" y="37" type="curve"/>
      <point x="394" y="-219" type="line"/>
      <point x="474" y="-208" type="line"/>
    </contour>
    <contour>
      <point x="130" y="348"/>
      <point x="168" y="432"/>
      <point x="274" y="432" type="curve"/>
      <point x="311" y="432"/>
      <point x="356" y="413"/>
      <point x="394" y="379" type="curve"/>
      <point x="394" y="107" type="line"/>
      <point x="356" y="73"/>
      <point x="311" y="55"/>
      <point x="274" y="55" type="curve"/>
      <point x="167" y="55"/>
      <point x="130" y="135"/>
      <point x="130" y="243" type="curve"/>
    </contour>
  </outline>
</glyph>
<glyph name="u" format="1">
  <advance width="542"/>
  <unicode hex="0075"/>
  <outline>
    <contour>
      <point x="289" y="-14"/>
      <point x="349" y="14"/>
      <point x="392" y="53" type="curve"/>
      <point x="415" y="0" type="line"/>
      <point x="464" y="0" type="line"/>
      <point x="464" y="485" type="line"/>
      <point x="385" y="485" type="line"/>
      <point x="385" y="114" type="line"/>
      <point x="342" y="75"/>
      <point x="286" y="53"/>
      <point x="249" y="53" type="curve"/>
      <point x="183" y="53"/>
      <point x="152" y="101"/>
      <point x="152" y="166" type="curve"/>
      <point x="152" y="485" type="line"/>
      <point x="73" y="485" type="line"/>
      <point x="73" y="157" type="line"/>
      <point x="73" y="58"/>
      <point x="123" y="-14"/>
      <point x="237" y="-14" type="curve"/>
    </contour>
  </outline>
</glyph>
<glyph name="v" format="1">
  <advance width="477"/>
  <unicode hex="0076"/>
  <outline>
    <contour>
      <point x="202" y="0" type="line"/>
      <point x="280" y="0" type="line"/>
      <point x="460" y="485" type="line"/>
      <point x="381" y="485" type="line"/>
      <point x="242" y="107" type="line"/>
      <point x="97" y="485" type="line"/>
      <point x="17" y="473" type="line"/>
    </contour>
  </outline>
</glyph>
<glyph name="x" format="1">
  <advance width="497"/>
  <unicode hex="0078"/>
  <outline>
    <contour>
      <point x="14" y="0" type="line"/>
      <point x="103" y="0" type="line"/>
      <point x="242" y="185" type="line"/>
      <point x="382" y="0" type="line"/>
      <point x="469" y="0" type="line"/>
      <point x="297" y="231" type="line"/>
      <point x="483" y="485" type="line"/>
      <point x="397" y="485" type="line"/>
      <point x="252" y="291" type="line"/>
      <point x="111" y="485" type="line"/>
      <point x="29" y="473" type="line"/>
      <point x="197" y="245" type="line"/>
    </contour>
  </outline>
</glyph>
<glyph name="z" format="1">
  <advance width="466"/>
  <unicode hex="007A"/>
  <outline>
    <contour>
      <point x="427" y="442" type="line"/>
      <point x="423" y="485" type="line"/>
      <point x="60" y="485" type="line"/>
      <point x="78" y="421" type="line"/>
      <point x="319" y="421" type="line"/>
      <point x="35" y="40" type="line"/>
      <point x="46" y="0" type="line"/>
      <point x="425" y="0" type="line"/>
      <point x="415" y="62" type="line"/>
      <point x="139" y="62" type="line"/>
    </contour>
  </outline>
</glyph>
<glyph name="bar" format="1">
  <advance width="270"/>
  <unicode hex="007C"/>
  <outline>
    <contour>
      <point x="175" y="705" type="line"/>
      <point x="96" y="711" type="line"/>
      <point x="96" y="0" type="line"/>
      <point x="175" y="-6" type="line"/>
    </contour>
  </outline>
</glyph>
<glyph name="asciitilde" format="1">
  <advance width="383"/>
  <unicode hex="007E"/>
  <outline>
    <contour>
      <point x="318" y="193"/>
      <point x="364" y="221"/>
      <point x="364" y="304" type="curve"/>
      <point x="300" y="304" type="line"/>
      <point x="298" y="271"/>
      <point x="277" y="262"/>
      <point x="257" y="262" type="curve" smooth="yes"/>
      <point x="221" y="262"/>
      <point x="180" y="306"/>
      <point x="120" y="306" type="curve" smooth="yes"/>
      <point x="66" y="306"/>
      <point x="18" y="280"/>
      <point x="18" y="203" type="curve" smooth="yes"/>
      <point x="18" y="196" type="line"/>
      <point x="81" y="196" type="line"/>
      <point x="84" y="227"/>
      <point x="101" y="236"/>
      <point x="122" y="236" type="curve" smooth="yes"/>
      <point x="156" y="236"/>
      <point x="209" y="193"/>
      <point x="262" y="193" type="curve" smooth="yes"/>
    </contour>
  </outline>
</glyph>
<glyph name="dv_CandrabinduInverted" format="1">
  <advance width="0"/>
  <unicode hex="0090"/>
  <outline>
    <contour>
      <point x="439" y="865" type="line"/>
      <point x="390" y="959"/>
      <point x="316" y="999"/>
      <point x="228" y="999" type="curve" smooth="yes"/>
      <point x="138" y="999"/>
      <point x="64" y="959"/>
      <point x="17" y="865" type="curve"/>
      <point x="36" y="853"/>
      <point x="55" y="839"/>
      <point x="75" y="827" type="curve"/>
      <point x="111" y="901"/>
      <point x="167" y="935"/>
      <point x="228" y="935" type="curve" smooth="yes"/>
      <point x="288" y="935"/>
      <point x="341" y="903"/>
      <point x="380" y="827" type="curve"/>
    </contour>
    <contour>
      <point x="170" y="791"/>
      <point x="196" y="765"/>
      <point x="229" y="765" type="curve" smooth="yes"/>
      <point x="261" y="765"/>
      <point x="288" y="791"/>
      <point x="288" y="824" type="curve" smooth="yes"/>
      <point x="288" y="857"/>
      <point x="261" y="883"/>
      <point x="229" y="883" type="curve" smooth="yes"/>
      <point x="196" y="883"/>
      <point x="170" y="857"/>
      <point x="170" y="824" type="curve" smooth="yes"/>
    </contour>
  </outline>
</glyph>
<glyph name="exclamdown" format="1">
  <advance width="229"/>
  <unicode hex="00A1"/>
  <outline>
    <contour>
      <point x="69" y="0" type="line"/>
      <point x="159" y="0" type="line"/>
      <point x="143" y="478" type="line"/>
      <point x="124" y="487"/>
      <point x="105" y="495"/>
      <point x="85" y="505" type="curve"/>
    </contour>
    <contour>
      <point x="59" y="617"/>
      <point x="84" y="592"/>
      <point x="114" y="592" type="curve" smooth="yes"/>
      <point x="144" y="592"/>
      <point x="168" y="617"/>
      <point x="168" y="647" type="curve" smooth="yes"/>
      <point x="168" y="677"/>
      <point x="144" y="702"/>
      <point x="114" y="702" type="curve" smooth="yes"/>
      <point x="84" y="702"/>
      <point x="59" y="677"/>
      <point x="59" y="647" type="curve" smooth="yes"/>
    </contour>
  </outline>
</glyph>
<glyph name="currency" format="1">
  <advance width="671"/>
  <unicode hex="00A4"/>
  <outline>
    <contour>
      <point x="392" y="-13"/>
      <point x="447" y="7"/>
      <point x="489" y="42" type="curve"/>
      <point x="596" y="-66" type="line"/>
      <point x="642" y="-11" type="line"/>
      <point x="540" y="94" type="line"/>
      <point x="566" y="135"/>
      <point x="582" y="184"/>
      <point x="583" y="240" type="curve"/>
      <point x="583" y="298"/>
      <point x="568" y="350"/>
      <point x="540" y="390" type="curve"/>
      <point x="642" y="494" type="line"/>
      <point x="596" y="549" type="line"/>
      <point x="492" y="443" type="line"/>
      <point x="451" y="477"/>
      <point x="399" y="498"/>
      <point x="339" y="498" type="curve"/>
      <point x="277" y="497"/>
      <point x="224" y="476"/>
      <point x="181" y="442" type="curve"/>
      <point x="74" y="549" type="line"/>
      <point x="28" y="494" type="line"/>
      <point x="132" y="388" type="line"/>
      <point x="105" y="349"/>
      <point x="89" y="299"/>
      <point x="89" y="244" type="curve"/>
      <point x="89" y="187"/>
      <point x="104" y="134"/>
      <point x="130" y="93" type="curve"/>
      <point x="28" y="-11" type="line"/>
      <point x="74" y="-66" type="line"/>
      <point x="179" y="41" type="line"/>
      <point x="219" y="7"/>
      <point x="270" y="-12"/>
      <point x="330" y="-13" type="curve"/>
    </contour>
    <contour>
      <point x="439" y="427"/>
      <point x="502" y="346"/>
      <point x="503" y="240" type="curve"/>
      <point x="502" y="134"/>
      <point x="428" y="58"/>
      <point x="331" y="58" type="curve"/>
      <point x="233" y="58"/>
      <point x="170" y="138"/>
      <point x="169" y="245" type="curve"/>
      <point x="170" y="349"/>
      <point x="242" y="426"/>
      <point x="339" y="427" type="curve"/>
    </contour>
  </outline>
</glyph>
<glyph name="yen" format="1">
  <advance width="561"/>
  <unicode hex="00A5"/>
  <outline>
    <contour>
      <point x="238" y="0" type="line"/>
      <point x="318" y="0" type="line"/>
      <point x="318" y="75" type="line"/>
      <point x="500" y="75" type="line"/>
      <point x="491" y="135" type="line"/>
      <point x="319" y="135" type="line"/>
      <point x="319" y="248" type="line"/>
      <point x="500" y="248" type="line"/>
      <point x="491" y="310" type="line"/>
      <point x="338" y="310" type="line"/>
      <point x="556" y="680" type="line"/>
      <point x="472" y="680" type="line"/>
      <point x="278" y="351" type="line"/>
      <point x="88" y="680" type="line"/>
      <point x="60" y="675"/>
      <point x="33" y="672"/>
      <point x="6" y="667" type="curve"/>
      <point x="76" y="548"/>
      <point x="148" y="429"/>
      <point x="218" y="310" type="curve"/>
      <point x="58" y="310" type="line"/>
      <point x="66" y="248" type="line"/>
      <point x="239" y="248" type="line"/>
      <point x="239" y="135" type="line"/>
      <point x="58" y="135" type="line"/>
      <point x="66" y="75" type="line"/>
      <point x="238" y="75" type="line"/>
    </contour>
  </outline>
</glyph>
<glyph name="macron" format="1">
  <advance width="277"/>
  <unicode hex="00AF"/>
  <outline>
    <contour>
      <point x="16" y="696" type="line"/>
      <point x="16" y="633" type="line"/>
      <point x="262" y="633" type="line"/>
      <point x="262" y="696" type="line"/>
    </contour>
  </outline>
</glyph>
<glyph name="degree" format="1">
  <advance width="246"/>
  <unicode hex="00B0"/>
  <outline>
    <contour>
      <point x="233" y="661"/>
      <point x="183" y="707"/>
      <point x="123" y="707" type="curve"/>
      <point x="63" y="707"/>
      <point x="13" y="661"/>
      <point x="13" y="602" type="curve"/>
      <point x="13" y="540"/>
      <point x="63" y="498"/>
      <point x="123" y="498" type="curve"/>
      <point x="183" y="498"/>
      <point x="233" y="540"/>
      <point x="233" y="602" type="curve"/>
    </contour>
    <contour>
      <point x="154" y="656"/>
      <point x="179" y="632"/>
      <point x="179" y="601" type="curve"/>
      <point x="179" y="570"/>
      <point x="154" y="545"/>
      <point x="123" y="545" type="curve"/>
      <point x="91" y="545"/>
      <point x="68" y="571"/>
      <point x="68" y="602" type="curve"/>
      <point x="68" y="632"/>
      <point x="91" y="656"/>
      <point x="123" y="656" type="curve"/>
    </contour>
  </outline>
</glyph>
<glyph name="plusminus" format="1">
  <advance width="469"/>
  <unicode hex="00B1"/>
  <outline>
    <contour>
      <point x="447" y="301" type="line"/>
      <point x="439" y="359" type="line"/>
      <point x="269" y="359" type="line"/>
      <point x="269" y="531" type="line"/>
      <point x="199" y="534" type="line"/>
      <point x="199" y="359" type="line"/>
      <point x="21" y="359" type="line"/>
      <point x="29" y="301" type="line"/>
      <point x="199" y="301" type="line"/>
      <point x="199" y="121" type="line"/>
      <point x="269" y="116" type="line"/>
      <point x="269" y="301" type="line"/>
    </contour>
    <contour>
      <point x="447" y="1" type="line"/>
      <point x="440" y="58" type="line"/>
      <point x="22" y="58" type="line"/>
      <point x="29" y="1" type="line"/>
    </contour>
  </outline>
</glyph>
<glyph name="cedilla" format="1">
  <advance width="227"/>
  <unicode hex="00B8"/>
  <outline>
    <contour>
      <point x="94" y="13" type="line"/>
      <point x="58" y="-80" type="line"/>
      <point x="108" y="-85"/>
      <point x="147" y="-105"/>
      <point x="147" y="-131" type="curve"/>
      <point x="147" y="-154"/>
      <point x="120" y="-165"/>
      <point x="95" y="-165" type="curve"/>
      <point x="75" y="-165"/>
      <point x="48" y="-156"/>
      <point x="35" y="-149" type="curve"/>
      <point x="16" y="-200" type="line"/>
      <point x="35" y="-212"/>
      <point x="71" y="-221"/>
      <point x="95" y="-221" type="curve"/>
      <point x="156" y="-221"/>
      <point x="211" y="-192"/>
      <point x="211" y="-129" type="curve"/>
      <point x="211" y="-94"/>
      <point x="177" y="-56"/>
      <point x="133" y="-48" type="curve"/>
      <point x="157" y="13" type="line"/>
    </contour>
  </outline>
</glyph>
<glyph name="guillemotright" format="1">
  <advance width="363"/>
  <unicode hex="00BB"/>
  <outline>
    <contour>
      <point x="189" y="406" type="line"/>
      <point x="166" y="354" type="line"/>
      <point x="273" y="245" type="line"/>
      <point x="166" y="136" type="line"/>
      <point x="189" y="84" type="line"/>
      <point x="334" y="222" type="line"/>
      <point x="334" y="267" type="line"/>
    </contour>
    <contour>
      <point x="33" y="406" type="line"/>
      <point x="10" y="354" type="line"/>
      <point x="116" y="245" type="line"/>
      <point x="10" y="136" type="line"/>
      <point x="33" y="84" type="line"/>
      <point x="178" y="222" type="line"/>
      <point x="178" y="267" type="line"/>
    </contour>
  </outline>
</glyph>
<glyph name="onequarter" format="1">
  <advance width="784"/>
  <unicode hex="00BC"/>
  <outline>
    <contour>
      <point x="746" y="-76" type="line"/>
      <point x="752" y="-19" type="line"/>
      <point x="671" y="-19" type="line"/>
      <point x="671" y="321" type="line"/>
      <point x="624" y="321" type="line"/>
      <point x="543" y="210"/>
      <point x="460" y="99"/>
      <point x="379" y="-11" type="curve"/>
      <point x="372" y="-19" type="line"/>
      <point x="372" y="-25"/>
      <point x="373" y="-31"/>
      <point x="374" y="-37" type="curve" smooth="yes"/>
      <point x="378" y="-76" type="line"/>
      <point x="603" y="-76" type="line"/>
      <point x="603" y="-163" type="line"/>
      <point x="671" y="-163" type="line"/>
      <point x="671" y="-76" type="line"/>
    </contour>
    <contour>
      <point x="286" y="336" type="line"/>
      <point x="283" y="354"/>
      <point x="280" y="372"/>
      <point x="278" y="390" type="curve"/>
      <point x="213" y="390" type="line"/>
      <point x="213" y="764" type="line"/>
      <point x="167" y="764" type="line"/>
      <point x="63" y="698" type="line"/>
      <point x="92" y="650" type="line"/>
      <point x="109" y="660"/>
      <point x="126" y="672"/>
      <point x="142" y="683" type="curve"/>
      <point x="142" y="390" type="line"/>
      <point x="62" y="390" type="line"/>
      <point x="70" y="336" type="line"/>
    </contour>
    <contour>
      <point x="467" y="501" type="line"/>
      <point x="371" y="334"/>
      <point x="275" y="167"/>
      <point x="178" y="0" type="curve"/>
      <point x="255" y="-4" type="line"/>
      <point x="351" y="163"/>
      <point x="447" y="331"/>
      <point x="544" y="498" type="curve"/>
    </contour>
    <contour>
      <point x="445" y="-19" type="line"/>
      <point x="603" y="195" type="line"/>
      <point x="603" y="-19" type="line"/>
    </contour>
  </outline>
</glyph>
<glyph name="onehalf" format="1">
  <advance width="822"/>
  <unicode hex="00BD"/>
  <outline>
    <contour>
      <point x="758" y="256"/>
      <point x="717" y="325"/>
      <point x="608" y="325" type="curve" smooth="yes"/>
      <point x="539" y="325"/>
      <point x="489" y="289"/>
      <point x="481" y="284" type="curve"/>
      <point x="508" y="230" type="line"/>
      <point x="509" y="232"/>
      <point x="558" y="268"/>
      <point x="605" y="268" type="curve" smooth="yes"/>
      <point x="666" y="268"/>
      <point x="687" y="228"/>
      <point x="687" y="198" type="curve" smooth="yes"/>
      <point x="687" y="163"/>
      <point x="669" y="125"/>
      <point x="611" y="74" type="curve" smooth="yes"/>
      <point x="461" y="-57" type="line"/>
      <point x="461" y="-110" type="line"/>
      <point x="772" y="-110" type="line"/>
      <point x="764" y="-55" type="line"/>
      <point x="548" y="-55" type="line"/>
      <point x="679" y="54"/>
      <point x="758" y="118"/>
      <point x="758" y="198" type="curve" smooth="yes"/>
    </contour>
    <contour>
      <point x="286" y="336" type="line"/>
      <point x="283" y="354"/>
      <point x="280" y="372"/>
      <point x="278" y="390" type="curve"/>
      <point x="213" y="390" type="line"/>
      <point x="213" y="764" type="line"/>
      <point x="167" y="764" type="line"/>
      <point x="63" y="698" type="line"/>
      <point x="92" y="650" type="line"/>
      <point x="109" y="660"/>
      <point x="126" y="672"/>
      <point x="142" y="683" type="curve"/>
      <point x="142" y="390" type="line"/>
      <point x="62" y="390" type="line"/>
      <point x="70" y="336" type="line"/>
    </contour>
    <contour>
      <point x="536" y="498" type="line"/>
      <point x="460" y="501" type="line"/>
      <point x="363" y="334"/>
      <point x="267" y="167"/>
      <point x="171" y="0" type="curve"/>
      <point x="246" y="-4" type="line"/>
    </contour>
  </outline>
</glyph>
<glyph name="threequarters" format="1">
  <advance width="834"/>
  <unicode hex="00BE"/>
  <outline>
    <contour>
      <point x="797" y="-76" type="line"/>
      <point x="803" y="-19" type="line"/>
      <point x="722" y="-19" type="line"/>
      <point x="722" y="321" type="line"/>
      <point x="674" y="321" type="line"/>
      <point x="593" y="210"/>
      <point x="511" y="99"/>
      <point x="429" y="-11" type="curve"/>
      <point x="426" y="-13"/>
      <point x="424" y="-16"/>
      <point x="421" y="-19" type="curve"/>
      <point x="421" y="-38"/>
      <point x="425" y="-58"/>
      <point x="429" y="-76" type="curve"/>
      <point x="653" y="-76" type="line"/>
      <point x="653" y="-163" type="line"/>
      <point x="722" y="-163" type="line"/>
      <point x="722" y="-76" type="line"/>
    </contour>
    <contour>
      <point x="340" y="714"/>
      <point x="290" y="771"/>
      <point x="188" y="771" type="curve" smooth="yes"/>
      <point x="127" y="771"/>
      <point x="81" y="751"/>
      <point x="39" y="724" type="curve"/>
      <point x="48" y="708"/>
      <point x="58" y="692"/>
      <point x="67" y="675" type="curve"/>
      <point x="92" y="692"/>
      <point x="129" y="713"/>
      <point x="183" y="713" type="curve" smooth="yes"/>
      <point x="242" y="713"/>
      <point x="269" y="680"/>
      <point x="269" y="647" type="curve" smooth="yes"/>
      <point x="269" y="603"/>
      <point x="236" y="565"/>
      <point x="155" y="565" type="curve" smooth="yes"/>
      <point x="124" y="565" type="line"/>
      <point x="126" y="547"/>
      <point x="130" y="529"/>
      <point x="132" y="510" type="curve"/>
      <point x="150" y="510" type="line" smooth="yes"/>
      <point x="243" y="510"/>
      <point x="278" y="477"/>
      <point x="278" y="417" type="curve" smooth="yes"/>
      <point x="278" y="363"/>
      <point x="232" y="335"/>
      <point x="176" y="335" type="curve" smooth="yes"/>
      <point x="124" y="335"/>
      <point x="95" y="347"/>
      <point x="59" y="369" type="curve"/>
      <point x="28" y="320" type="line"/>
      <point x="66" y="299"/>
      <point x="120" y="278"/>
      <point x="176" y="278" type="curve" smooth="yes"/>
      <point x="283" y="278"/>
      <point x="349" y="339"/>
      <point x="349" y="418" type="curve" smooth="yes"/>
      <point x="349" y="481"/>
      <point x="311" y="527"/>
      <point x="261" y="538" type="curve"/>
      <point x="303" y="552"/>
      <point x="340" y="595"/>
      <point x="340" y="648" type="curve" smooth="yes"/>
    </contour>
    <contour>
      <point x="594" y="498" type="line"/>
      <point x="517" y="501" type="line"/>
      <point x="421" y="334"/>
      <point x="325" y="167"/>
      <point x="228" y="0" type="curve"/>
      <point x="304" y="-4" type="line"/>
    </contour>
    <contour>
      <point x="496" y="-19" type="line"/>
      <point x="653" y="195" type="line"/>
      <point x="653" y="-19" type="line"/>
    </contour>
  </outline>
</glyph>
<glyph name="questiondown" format="1">
  <advance width="423"/>
  <unicode hex="00BF"/>
  <outline>
    <contour>
      <point x="34" y="-1"/>
      <point x="91" y="-69"/>
      <point x="224" y="-69" type="curve"/>
      <point x="302" y="-69"/>
      <point x="352" y="-46"/>
      <point x="405" y="-11" type="curve"/>
      <point x="395" y="60" type="line"/>
      <point x="339" y="20"/>
      <point x="292" y="-2"/>
      <point x="227" y="-2" type="curve"/>
      <point x="152" y="-2"/>
      <point x="113" y="28"/>
      <point x="113" y="99" type="curve"/>
      <point x="113" y="170"/>
      <point x="184" y="231"/>
      <point x="286" y="264" type="curve"/>
      <point x="278" y="460" type="line"/>
      <point x="221" y="483" type="line"/>
      <point x="211" y="305" type="line"/>
      <point x="104" y="255"/>
      <point x="34" y="173"/>
      <point x="34" y="97" type="curve"/>
    </contour>
    <contour>
      <point x="198" y="548"/>
      <point x="222" y="523"/>
      <point x="252" y="523" type="curve"/>
      <point x="283" y="523"/>
      <point x="306" y="548"/>
      <point x="306" y="578" type="curve"/>
      <point x="306" y="608"/>
      <point x="283" y="632"/>
      <point x="252" y="632" type="curve"/>
      <point x="222" y="632"/>
      <point x="198" y="608"/>
      <point x="198" y="578" type="curve"/>
    </contour>
  </outline>
</glyph>
<glyph name="Aacute" format="1">
  <advance width="601"/>
  <unicode hex="00C1"/>
  <outline>
    <contour>
      <point x="334" y="680" type="line"/>
      <point x="257" y="680" type="line"/>
      <point x="6" y="0" type="line"/>
      <point x="83" y="0" type="line"/>
      <point x="154" y="193" type="line"/>
      <point x="441" y="193" type="line"/>
      <point x="516" y="0" type="line"/>
      <point x="595" y="12" type="line"/>
    </contour>
    <contour>
      <point x="295" y="575" type="line"/>
      <point x="418" y="257" type="line"/>
      <point x="176" y="257" type="line"/>
    </contour>
    <contour>
      <point x="298" y="895" type="line"/>
      <point x="238" y="739" type="line"/>
      <point x="297" y="739" type="line"/>
      <point x="385" y="895" type="line"/>
    </contour>
  </outline>
</glyph>
<glyph name="Ccedilla" format="1">
  <advance width="598"/>
  <unicode hex="00C7"/>
  <outline>
    <contour>
      <point x="438" y="626"/>
      <point x="468" y="615"/>
      <point x="514" y="597" type="curve"/>
      <point x="539" y="655" type="line"/>
      <point x="496" y="683"/>
      <point x="410" y="694"/>
      <point x="369" y="694" type="curve"/>
      <point x="172" y="694"/>
      <point x="69" y="539"/>
      <point x="69" y="336" type="curve"/>
      <point x="69" y="158"/>
      <point x="144" y="4"/>
      <point x="328" y="-12" type="curve"/>
      <point x="302" y="-80" type="line"/>
      <point x="353" y="-85"/>
      <point x="392" y="-105"/>
      <point x="392" y="-131" type="curve"/>
      <point x="392" y="-154"/>
      <point x="365" y="-165"/>
      <point x="340" y="-165" type="curve"/>
      <point x="320" y="-165"/>
      <point x="293" y="-156"/>
      <point x="279" y="-149" type="curve"/>
      <point x="261" y="-200" type="line"/>
      <point x="280" y="-212"/>
      <point x="315" y="-221"/>
      <point x="340" y="-221" type="curve"/>
      <point x="400" y="-221"/>
      <point x="455" y="-192"/>
      <point x="455" y="-129" type="curve"/>
      <point x="455" y="-94"/>
      <point x="422" y="-56"/>
      <point x="378" y="-48" type="curve"/>
      <point x="392" y="-13" type="line"/>
      <point x="444" y="-8"/>
      <point x="505" y="6"/>
      <point x="540" y="25" type="curve"/>
      <point x="510" y="85" type="line"/>
      <point x="473" y="68"/>
      <point x="429" y="54"/>
      <point x="360" y="54" type="curve"/>
      <point x="214" y="54"/>
      <point x="152" y="182"/>
      <point x="152" y="337" type="curve"/>
      <point x="152" y="508"/>
      <point x="235" y="625"/>
      <point x="369" y="626" type="curve"/>
    </contour>
  </outline>
</glyph>
<glyph name="Eacute" format="1">
  <advance width="538"/>
  <unicode hex="00C9"/>
  <outline>
    <contour>
      <point x="99" y="0" type="line"/>
      <point x="509" y="0" type="line"/>
      <point x="500" y="62" type="line"/>
      <point x="178" y="62" type="line"/>
      <point x="178" y="317" type="line"/>
      <point x="383" y="317" type="line"/>
      <point x="379" y="337"/>
      <point x="377" y="357"/>
      <point x="374" y="377" type="curve"/>
      <point x="178" y="377" type="line"/>
      <point x="178" y="620" type="line"/>
      <point x="480" y="620" type="line"/>
      <point x="476" y="640"/>
      <point x="474" y="660"/>
      <point x="471" y="680" type="curve"/>
      <point x="99" y="680" type="line"/>
    </contour>
    <contour>
      <point x="287" y="894" type="line"/>
      <point x="227" y="739" type="line"/>
      <point x="287" y="739" type="line"/>
      <point x="375" y="894" type="line"/>
    </contour>
  </outline>
</glyph>
<glyph name="Edieresis" format="1">
  <advance width="538"/>
  <unicode hex="00CB"/>
  <outline>
    <contour>
      <point x="99" y="0" type="line"/>
      <point x="509" y="0" type="line"/>
      <point x="500" y="62" type="line"/>
      <point x="178" y="62" type="line"/>
      <point x="178" y="317" type="line"/>
      <point x="383" y="317" type="line"/>
      <point x="379" y="337"/>
      <point x="377" y="357"/>
      <point x="374" y="377" type="curve"/>
      <point x="178" y="377" type="line"/>
      <point x="178" y="620" type="line"/>
      <point x="480" y="620" type="line"/>
      <point x="476" y="640"/>
      <point x="474" y="660"/>
      <point x="471" y="680" type="curve"/>
      <point x="99" y="680" type="line"/>
    </contour>
    <contour>
      <point x="251" y="839"/>
      <point x="230" y="861"/>
      <point x="202" y="861" type="curve" smooth="yes"/>
      <point x="176" y="861"/>
      <point x="153" y="839"/>
      <point x="153" y="813" type="curve" smooth="yes"/>
      <point x="153" y="785"/>
      <point x="176" y="764"/>
      <point x="202" y="764" type="curve" smooth="yes"/>
      <point x="230" y="764"/>
      <point x="251" y="785"/>
      <point x="251" y="813" type="curve" smooth="yes"/>
    </contour>
    <contour>
      <point x="416" y="839"/>
      <point x="395" y="861"/>
      <point x="367" y="861" type="curve" smooth="yes"/>
      <point x="341" y="861"/>
      <point x="319" y="839"/>
      <point x="319" y="813" type="curve" smooth="yes"/>
      <point x="319" y="785"/>
      <point x="341" y="764"/>
      <point x="367" y="764" type="curve" smooth="yes"/>
      <point x="395" y="764"/>
      <point x="416" y="785"/>
      <point x="416" y="813" type="curve" smooth="yes"/>
    </contour>
  </outline>
</glyph>
<glyph name="Igrave" format="1">
  <advance width="278"/>
  <unicode hex="00CC"/>
  <outline>
    <contour>
      <point x="99" y="0" type="line"/>
      <point x="178" y="0" type="line"/>
      <point x="178" y="680" type="line"/>
      <point x="99" y="680" type="line"/>
    </contour>
    <contour>
      <point x="48" y="894" type="line"/>
      <point x="136" y="739" type="line"/>
      <point x="196" y="739" type="line"/>
      <point x="135" y="894" type="line"/>
    </contour>
  </outline>
</glyph>
<glyph name="Icircumflex" format="1">
  <advance width="278"/>
  <unicode hex="00CE"/>
  <outline>
    <contour>
      <point x="99" y="0" type="line"/>
      <point x="178" y="0" type="line"/>
      <point x="178" y="680" type="line"/>
      <point x="99" y="680" type="line"/>
    </contour>
    <contour>
      <point x="66" y="739" type="line"/>
      <point x="139" y="837" type="line"/>
      <point x="163" y="804"/>
      <point x="186" y="771"/>
      <point x="211" y="739" type="curve"/>
      <point x="287" y="739" type="line"/>
      <point x="169" y="894" type="line"/>
      <point x="107" y="894" type="line"/>
      <point x="68" y="842"/>
      <point x="29" y="791"/>
      <point x="-9" y="739" type="curve"/>
    </contour>
  </outline>
</glyph>
<glyph name="Idieresis" format="1">
  <advance width="278"/>
  <unicode hex="00CF"/>
  <outline>
    <contour>
      <point x="99" y="0" type="line"/>
      <point x="178" y="0" type="line"/>
      <point x="178" y="680" type="line"/>
      <point x="99" y="680" type="line"/>
    </contour>
    <contour>
      <point x="105" y="839"/>
      <point x="84" y="861"/>
      <point x="56" y="861" type="curve" smooth="yes"/>
      <point x="30" y="861"/>
      <point x="8" y="839"/>
      <point x="8" y="813" type="curve" smooth="yes"/>
      <point x="8" y="785"/>
      <point x="30" y="764"/>
      <point x="56" y="764" type="curve" smooth="yes"/>
      <point x="84" y="764"/>
      <point x="105" y="785"/>
      <point x="105" y="813" type="curve" smooth="yes"/>
    </contour>
    <contour>
      <point x="270" y="839"/>
      <point x="250" y="861"/>
      <point x="222" y="861" type="curve" smooth="yes"/>
      <point x="195" y="861"/>
      <point x="173" y="839"/>
      <point x="173" y="813" type="curve" smooth="yes"/>
      <point x="173" y="785"/>
      <point x="195" y="764"/>
      <point x="222" y="764" type="curve" smooth="yes"/>
      <point x="250" y="764"/>
      <point x="270" y="785"/>
      <point x="270" y="813" type="curve" smooth="yes"/>
    </contour>
  </outline>
</glyph>
<glyph name="Oacute" format="1">
  <advance width="737"/>
  <unicode hex="00D3"/>
  <outline>
    <contour>
      <point x="173" y="692"/>
      <point x="69" y="540"/>
      <point x="69" y="337" type="curve"/>
      <point x="69" y="149"/>
      <point x="156" y="-14"/>
      <point x="366" y="-14" type="curve"/>
      <point x="564" y="-11"/>
      <point x="669" y="150"/>
      <point x="669" y="345" type="curve"/>
      <point x="669" y="533"/>
      <point x="581" y="696"/>
      <point x="371" y="696" type="curve"/>
    </contour>
    <contour>
      <point x="217" y="54"/>
      <point x="152" y="180"/>
      <point x="152" y="338" type="curve"/>
      <point x="152" y="508"/>
      <point x="238" y="626"/>
      <point x="372" y="626" type="curve"/>
      <point x="520" y="626"/>
      <point x="584" y="502"/>
      <point x="584" y="344" type="curve"/>
      <point x="584" y="169"/>
      <point x="500" y="54"/>
      <point x="364" y="54" type="curve"/>
    </contour>
    <contour>
      <point x="374" y="895" type="line"/>
      <point x="314" y="739" type="line"/>
      <point x="373" y="739" type="line"/>
      <point x="461" y="895" type="line"/>
    </contour>
  </outline>
</glyph>
<glyph name="Otilde" format="1">
  <advance width="737"/>
  <unicode hex="00D5"/>
  <outline>
    <contour>
      <point x="669" y="533"/>
      <point x="581" y="696"/>
      <point x="370" y="696" type="curve"/>
      <point x="173" y="692"/>
      <point x="69" y="539"/>
      <point x="69" y="337" type="curve" smooth="yes"/>
      <point x="69" y="149"/>
      <point x="156" y="-14"/>
      <point x="366" y="-14" type="curve"/>
      <point x="564" y="-10"/>
      <point x="669" y="150"/>
      <point x="669" y="344" type="curve" smooth="yes"/>
    </contour>
    <contour>
      <point x="217" y="54"/>
      <point x="152" y="180"/>
      <point x="152" y="338" type="curve" smooth="yes"/>
      <point x="152" y="508"/>
      <point x="238" y="626"/>
      <point x="372" y="626" type="curve" smooth="yes"/>
      <point x="520" y="626"/>
      <point x="584" y="501"/>
      <point x="584" y="344" type="curve" smooth="yes"/>
      <point x="584" y="168"/>
      <point x="500" y="54"/>
      <point x="364" y="54" type="curve" smooth="yes"/>
    </contour>
    <contour>
      <point x="460" y="853" type="line"/>
      <point x="457" y="826"/>
      <point x="442" y="813"/>
      <point x="424" y="813" type="curve" smooth="yes"/>
      <point x="389" y="813"/>
      <point x="366" y="857"/>
      <point x="312" y="857" type="curve" smooth="yes"/>
      <point x="265" y="857"/>
      <point x="223" y="835"/>
      <point x="223" y="766" type="curve" smooth="yes"/>
      <point x="223" y="759" type="line"/>
      <point x="278" y="759" type="line"/>
      <point x="279" y="785"/>
      <point x="297" y="799"/>
      <point x="314" y="799" type="curve" smooth="yes"/>
      <point x="349" y="799"/>
      <point x="378" y="754"/>
      <point x="425" y="754" type="curve" smooth="yes"/>
      <point x="474" y="754"/>
      <point x="514" y="778"/>
      <point x="514" y="853" type="curve"/>
    </contour>
  </outline>
</glyph>
<glyph name="Udieresis" format="1">
  <advance width="692"/>
  <unicode hex="00DC"/>
  <outline>
    <contour>
      <point x="237" y="54"/>
      <point x="169" y="134"/>
      <point x="169" y="250" type="curve" smooth="yes"/>
      <point x="169" y="680" type="line"/>
      <point x="90" y="680" type="line"/>
      <point x="90" y="241" type="line" smooth="yes"/>
      <point x="90" y="94"/>
      <point x="187" y="-11"/>
      <point x="345" y="-11" type="curve" smooth="yes"/>
      <point x="505" y="-11"/>
      <point x="601" y="94"/>
      <point x="601" y="241" type="curve" smooth="yes"/>
      <point x="601" y="680" type="line"/>
      <point x="521" y="680" type="line"/>
      <point x="521" y="250" type="line" smooth="yes"/>
      <point x="521" y="135"/>
      <point x="457" y="54"/>
      <point x="345" y="54" type="curve" smooth="yes"/>
    </contour>
    <contour>
      <point x="312" y="839"/>
      <point x="291" y="861"/>
      <point x="263" y="861" type="curve" smooth="yes"/>
      <point x="237" y="861"/>
      <point x="214" y="839"/>
      <point x="214" y="813" type="curve" smooth="yes"/>
      <point x="214" y="785"/>
      <point x="237" y="764"/>
      <point x="263" y="764" type="curve" smooth="yes"/>
      <point x="291" y="764"/>
      <point x="312" y="785"/>
      <point x="312" y="813" type="curve" smooth="yes"/>
    </contour>
    <contour>
      <point x="477" y="839"/>
      <point x="456" y="861"/>
      <point x="428" y="861" type="curve" smooth="yes"/>
      <point x="402" y="861"/>
      <point x="380" y="839"/>
      <point x="380" y="813" type="curve" smooth="yes"/>
      <point x="380" y="785"/>
      <point x="402" y="764"/>
      <point x="428" y="764" type="curve" smooth="yes"/>
      <point x="456" y="764"/>
      <point x="477" y="785"/>
      <point x="477" y="813" type="curve" smooth="yes"/>
    </contour>
  </outline>
</glyph>
<glyph name="atilde" format="1">
  <advance width="504"/>
  <unicode hex="00E3"/>
  <outline>
    <contour>
      <point x="202" y="498"/>
      <point x="120" y="481"/>
      <point x="82" y="455" type="curve"/>
      <point x="90" y="435"/>
      <point x="98" y="415"/>
      <point x="105" y="395" type="curve"/>
      <point x="141" y="411"/>
      <point x="180" y="429"/>
      <point x="245" y="429" type="curve" smooth="yes"/>
      <point x="336" y="429"/>
      <point x="351" y="365"/>
      <point x="351" y="285" type="curve"/>
      <point x="226" y="285" type="line" smooth="yes"/>
      <point x="122" y="285"/>
      <point x="51" y="234"/>
      <point x="51" y="138" type="curve" smooth="yes"/>
      <point x="51" y="51"/>
      <point x="104" y="-12"/>
      <point x="217" y="-12" type="curve" smooth="yes"/>
      <point x="271" y="-12"/>
      <point x="329" y="18"/>
      <point x="362" y="49" type="curve"/>
      <point x="383" y="0" type="line"/>
      <point x="431" y="0" type="line"/>
      <point x="431" y="334" type="line" smooth="yes"/>
      <point x="431" y="432"/>
      <point x="354" y="498"/>
      <point x="242" y="498" type="curve" smooth="yes"/>
    </contour>
    <contour>
      <point x="151" y="51"/>
      <point x="124" y="96"/>
      <point x="124" y="138" type="curve" smooth="yes"/>
      <point x="124" y="189"/>
      <point x="158" y="233"/>
      <point x="224" y="233" type="curve" smooth="yes"/>
      <point x="352" y="233" type="line"/>
      <point x="352" y="122" type="line"/>
      <point x="318" y="83"/>
      <point x="271" y="51"/>
      <point x="215" y="51" type="curve" smooth="yes"/>
    </contour>
    <contour>
      <point x="335" y="703" type="line"/>
      <point x="332" y="676"/>
      <point x="317" y="663"/>
      <point x="299" y="663" type="curve" smooth="yes"/>
      <point x="264" y="663"/>
      <point x="242" y="707"/>
      <point x="187" y="707" type="curve" smooth="yes"/>
      <point x="137" y="707"/>
      <point x="97" y="684"/>
      <point x="97" y="609" type="curve"/>
      <point x="154" y="609" type="line"/>
      <point x="155" y="634"/>
      <point x="171" y="649"/>
      <point x="189" y="649" type="curve" smooth="yes"/>
      <point x="224" y="649"/>
      <point x="254" y="604"/>
      <point x="299" y="604" type="curve" smooth="yes"/>
      <point x="349" y="604"/>
      <point x="390" y="628"/>
      <point x="390" y="703" type="curve"/>
    </contour>
  </outline>
</glyph>
<glyph name="adieresis" format="1">
  <advance width="504"/>
  <unicode hex="00E4"/>
  <outline>
    <contour>
      <point x="202" y="498"/>
      <point x="120" y="481"/>
      <point x="82" y="455" type="curve"/>
      <point x="90" y="435"/>
      <point x="98" y="415"/>
      <point x="105" y="395" type="curve"/>
      <point x="141" y="411"/>
      <point x="180" y="429"/>
      <point x="245" y="429" type="curve" smooth="yes"/>
      <point x="336" y="429"/>
      <point x="351" y="365"/>
      <point x="351" y="285" type="curve"/>
      <point x="226" y="285" type="line" smooth="yes"/>
      <point x="122" y="285"/>
      <point x="51" y="234"/>
      <point x="51" y="138" type="curve" smooth="yes"/>
      <point x="51" y="51"/>
      <point x="104" y="-12"/>
      <point x="217" y="-12" type="curve" smooth="yes"/>
      <point x="271" y="-12"/>
      <point x="329" y="18"/>
      <point x="362" y="49" type="curve"/>
      <point x="383" y="0" type="line"/>
      <point x="431" y="0" type="line"/>
      <point x="431" y="334" type="line" smooth="yes"/>
      <point x="431" y="432"/>
      <point x="354" y="498"/>
      <point x="242" y="498" type="curve" smooth="yes"/>
    </contour>
    <contour>
      <point x="151" y="51"/>
      <point x="124" y="96"/>
      <point x="124" y="138" type="curve" smooth="yes"/>
      <point x="124" y="189"/>
      <point x="158" y="233"/>
      <point x="224" y="233" type="curve" smooth="yes"/>
      <point x="352" y="233" type="line"/>
      <point x="352" y="122" type="line"/>
      <point x="318" y="83"/>
      <point x="271" y="51"/>
      <point x="215" y="51" type="curve" smooth="yes"/>
    </contour>
    <contour>
      <point x="214" y="689"/>
      <point x="192" y="711"/>
      <point x="165" y="711" type="curve" smooth="yes"/>
      <point x="137" y="711"/>
      <point x="115" y="689"/>
      <point x="115" y="663" type="curve" smooth="yes"/>
      <point x="115" y="635"/>
      <point x="137" y="614"/>
      <point x="165" y="614" type="curve" smooth="yes"/>
      <point x="192" y="614"/>
      <point x="214" y="635"/>
      <point x="214" y="663" type="curve" smooth="yes"/>
    </contour>
    <contour>
      <point x="378" y="689"/>
      <point x="357" y="711"/>
      <point x="330" y="711" type="curve" smooth="yes"/>
      <point x="303" y="711"/>
      <point x="281" y="689"/>
      <point x="281" y="663" type="curve" smooth="yes"/>
      <point x="281" y="635"/>
      <point x="303" y="614"/>
      <point x="330" y="614" type="curve" smooth="yes"/>
      <point x="357" y="614"/>
      <point x="378" y="635"/>
      <point x="378" y="663" type="curve" smooth="yes"/>
    </contour>
  </outline>
</glyph>
<glyph name="aring" format="1">
  <advance width="504"/>
  <unicode hex="00E5"/>
  <outline>
    <contour>
      <point x="202" y="498"/>
      <point x="120" y="481"/>
      <point x="82" y="455" type="curve"/>
      <point x="90" y="435"/>
      <point x="98" y="415"/>
      <point x="105" y="395" type="curve"/>
      <point x="141" y="411"/>
      <point x="180" y="429"/>
      <point x="245" y="429" type="curve" smooth="yes"/>
      <point x="336" y="429"/>
      <point x="351" y="365"/>
      <point x="351" y="285" type="curve"/>
      <point x="226" y="285" type="line" smooth="yes"/>
      <point x="122" y="285"/>
      <point x="51" y="234"/>
      <point x="51" y="138" type="curve" smooth="yes"/>
      <point x="51" y="51"/>
      <point x="104" y="-12"/>
      <point x="217" y="-12" type="curve" smooth="yes"/>
      <point x="271" y="-12"/>
      <point x="329" y="18"/>
      <point x="362" y="49" type="curve"/>
      <point x="383" y="0" type="line"/>
      <point x="431" y="0" type="line"/>
      <point x="431" y="334" type="line" smooth="yes"/>
      <point x="431" y="432"/>
      <point x="354" y="498"/>
      <point x="242" y="498" type="curve" smooth="yes"/>
    </contour>
    <contour>
      <point x="151" y="51"/>
      <point x="124" y="96"/>
      <point x="124" y="138" type="curve" smooth="yes"/>
      <point x="124" y="189"/>
      <point x="158" y="233"/>
      <point x="224" y="233" type="curve" smooth="yes"/>
      <point x="352" y="233" type="line"/>
      <point x="352" y="122" type="line"/>
      <point x="318" y="83"/>
      <point x="271" y="51"/>
      <point x="215" y="51" type="curve" smooth="yes"/>
    </contour>
    <contour>
      <point x="290" y="656"/>
      <point x="270" y="637"/>
      <point x="247" y="637" type="curve" smooth="yes"/>
      <point x="223" y="637"/>
      <point x="204" y="656"/>
      <point x="204" y="679" type="curve" smooth="yes"/>
      <point x="204" y="703"/>
      <point x="223" y="722"/>
      <point x="247" y="722" type="curve" smooth="yes"/>
      <point x="270" y="722"/>
      <point x="290" y="703"/>
      <point x="290" y="679" type="curve" smooth="yes"/>
    </contour>
    <contour>
      <point x="340" y="729"/>
      <point x="297" y="767"/>
      <point x="247" y="767" type="curve" smooth="yes"/>
      <point x="196" y="767"/>
      <point x="153" y="729"/>
      <point x="153" y="679" type="curve" smooth="yes"/>
      <point x="153" y="629"/>
      <point x="196" y="594"/>
      <point x="247" y="594" type="curve" smooth="yes"/>
      <point x="297" y="594"/>
      <point x="340" y="629"/>
      <point x="340" y="679" type="curve" smooth="yes"/>
    </contour>
  </outline>
</glyph>
<glyph name="ae" format="1">
  <advance width="829"/>
  <unicode hex="00E6"/>
  <outline>
    <contour>
      <point x="784" y="230" type="line"/>
      <point x="784" y="380"/>
      <point x="727" y="498"/>
      <point x="576" y="498" type="curve" smooth="yes"/>
      <point x="500" y="498"/>
      <point x="441" y="467"/>
      <point x="404" y="416" type="curve"/>
      <point x="374" y="466"/>
      <point x="317" y="498"/>
      <point x="242" y="498" type="curve" smooth="yes"/>
      <point x="202" y="498"/>
      <point x="120" y="481"/>
      <point x="82" y="455" type="curve"/>
      <point x="90" y="435"/>
      <point x="98" y="415"/>
      <point x="105" y="395" type="curve"/>
      <point x="141" y="411"/>
      <point x="180" y="429"/>
      <point x="245" y="429" type="curve" smooth="yes"/>
      <point x="317" y="429"/>
      <point x="352" y="384"/>
      <point x="352" y="320" type="curve" smooth="yes"/>
      <point x="352" y="283" type="line"/>
      <point x="226" y="283" type="line" smooth="yes"/>
      <point x="122" y="283"/>
      <point x="51" y="233"/>
      <point x="51" y="137" type="curve" smooth="yes"/>
      <point x="51" y="50"/>
      <point x="103" y="-12"/>
      <point x="220" y="-12" type="curve" smooth="yes"/>
      <point x="295" y="-12"/>
      <point x="365" y="32"/>
      <point x="397" y="80" type="curve"/>
      <point x="436" y="22"/>
      <point x="503" y="-12"/>
      <point x="594" y="-12" type="curve" smooth="yes"/>
      <point x="635" y="-12"/>
      <point x="716" y="0"/>
      <point x="756" y="28" type="curve"/>
      <point x="748" y="47"/>
      <point x="739" y="67"/>
      <point x="732" y="86" type="curve"/>
      <point x="695" y="68"/>
      <point x="659" y="52"/>
      <point x="594" y="52" type="curve" smooth="yes"/>
      <point x="484" y="52"/>
      <point x="436" y="127"/>
      <point x="432" y="230" type="curve"/>
    </contour>
    <contour>
      <point x="151" y="51"/>
      <point x="124" y="95"/>
      <point x="124" y="137" type="curve" smooth="yes"/>
      <point x="124" y="188"/>
      <point x="158" y="230"/>
      <point x="224" y="230" type="curve" smooth="yes"/>
      <point x="351" y="230" type="line"/>
      <point x="352" y="196"/>
      <point x="358" y="166"/>
      <point x="367" y="138" type="curve"/>
      <point x="333" y="87"/>
      <point x="278" y="51"/>
      <point x="215" y="51" type="curve" smooth="yes"/>
    </contour>
    <contour>
      <point x="658" y="431"/>
      <point x="696" y="371"/>
      <point x="705" y="284" type="curve"/>
      <point x="433" y="284" type="line"/>
      <point x="445" y="371"/>
      <point x="489" y="431"/>
      <point x="574" y="431" type="curve" smooth="yes"/>
    </contour>
  </outline>
</glyph>
<glyph name="ccedilla" format="1">
  <advance width="469"/>
  <unicode hex="00E7"/>
  <outline>
    <contour>
      <point x="132" y="351"/>
      <point x="176" y="431"/>
      <point x="275" y="431" type="curve"/>
      <point x="339" y="431"/>
      <point x="365" y="415"/>
      <point x="402" y="397" type="curve"/>
      <point x="426" y="454" type="line"/>
      <point x="385" y="482"/>
      <point x="316" y="498"/>
      <point x="277" y="498" type="curve"/>
      <point x="130" y="498"/>
      <point x="51" y="393"/>
      <point x="49" y="244" type="curve"/>
      <point x="49" y="103"/>
      <point x="113" y="3"/>
      <point x="239" y="-10" type="curve"/>
      <point x="213" y="-80" type="line"/>
      <point x="263" y="-85"/>
      <point x="301" y="-105"/>
      <point x="301" y="-131" type="curve"/>
      <point x="301" y="-154"/>
      <point x="274" y="-165"/>
      <point x="251" y="-165" type="curve"/>
      <point x="231" y="-165"/>
      <point x="203" y="-156"/>
      <point x="190" y="-149" type="curve"/>
      <point x="170" y="-200" type="line"/>
      <point x="189" y="-212"/>
      <point x="225" y="-221"/>
      <point x="251" y="-221" type="curve"/>
      <point x="311" y="-221"/>
      <point x="366" y="-192"/>
      <point x="366" y="-129" type="curve"/>
      <point x="366" y="-94"/>
      <point x="332" y="-56"/>
      <point x="288" y="-48" type="curve"/>
      <point x="302" y="-10" type="line"/>
      <point x="342" y="-5"/>
      <point x="390" y="9"/>
      <point x="422" y="30" type="curve"/>
      <point x="398" y="88" type="line"/>
      <point x="360" y="69"/>
      <point x="336" y="54"/>
      <point x="271" y="54" type="curve"/>
      <point x="170" y="54"/>
      <point x="130" y="135"/>
      <point x="130" y="245" type="curve"/>
    </contour>
  </outline>
</glyph>
<glyph name="eth" format="1">
  <advance width="545"/>
  <unicode hex="00F0"/>
  <outline>
    <contour>
      <point x="397" y="651" type="line"/>
      <point x="362" y="702" type="line"/>
      <point x="283" y="633" type="line"/>
      <point x="237" y="666"/>
      <point x="188" y="688"/>
      <point x="139" y="698" type="curve"/>
      <point x="105" y="647" type="line"/>
      <point x="146" y="639"/>
      <point x="189" y="618"/>
      <point x="229" y="589" type="curve"/>
      <point x="143" y="516" type="line"/>
      <point x="178" y="464" type="line"/>
      <point x="278" y="549" type="line"/>
      <point x="337" y="493"/>
      <point x="383" y="417"/>
      <point x="399" y="331" type="curve"/>
      <point x="363" y="363"/>
      <point x="308" y="392"/>
      <point x="252" y="392" type="curve"/>
      <point x="125" y="392"/>
      <point x="47" y="297"/>
      <point x="47" y="193" type="curve"/>
      <point x="47" y="86"/>
      <point x="129" y="-13"/>
      <point x="250" y="-13" type="curve"/>
      <point x="390" y="-13"/>
      <point x="484" y="82"/>
      <point x="484" y="262" type="curve"/>
      <point x="484" y="395"/>
      <point x="419" y="513"/>
      <point x="332" y="595" type="curve"/>
    </contour>
    <contour>
      <point x="172" y="53"/>
      <point x="123" y="118"/>
      <point x="123" y="188" type="curve"/>
      <point x="123" y="263"/>
      <point x="171" y="331"/>
      <point x="252" y="331" type="curve"/>
      <point x="324" y="331"/>
      <point x="380" y="288"/>
      <point x="406" y="242" type="curve"/>
      <point x="401" y="128"/>
      <point x="353" y="53"/>
      <point x="253" y="53" type="curve"/>
    </contour>
  </outline>
</glyph>
<glyph name="ucircumflex" format="1">
  <advance width="542"/>
  <unicode hex="00FB"/>
  <outline>
    <contour>
      <point x="289" y="-14"/>
      <point x="349" y="14"/>
      <point x="392" y="53" type="curve"/>
      <point x="415" y="0" type="line"/>
      <point x="464" y="0" type="line"/>
      <point x="464" y="485" type="line"/>
      <point x="385" y="485" type="line"/>
      <point x="385" y="114" type="line"/>
      <point x="342" y="75"/>
      <point x="286" y="53"/>
      <point x="249" y="53" type="curve"/>
      <point x="183" y="53"/>
      <point x="152" y="101"/>
      <point x="152" y="166" type="curve"/>
      <point x="152" y="485" type="line"/>
      <point x="73" y="485" type="line"/>
      <point x="73" y="157" type="line"/>
      <point x="73" y="58"/>
      <point x="123" y="-14"/>
      <point x="237" y="-14" type="curve"/>
    </contour>
    <contour>
      <point x="197" y="589" type="line"/>
      <point x="269" y="687" type="line"/>
      <point x="342" y="589" type="line"/>
      <point x="417" y="589" type="line"/>
      <point x="299" y="745" type="line"/>
      <point x="238" y="745" type="line"/>
      <point x="120" y="589" type="line"/>
    </contour>
  </outline>
</glyph>
<glyph name="Aogonek" format="1">
  <advance width="601"/>
  <unicode hex="0104"/>
  <outline>
    <contour>
      <point x="257" y="680" type="line"/>
      <point x="174" y="453"/>
      <point x="89" y="227"/>
      <point x="6" y="0" type="curve"/>
      <point x="82" y="0" type="line"/>
      <point x="154" y="193" type="line"/>
      <point x="441" y="193" type="line"/>
      <point x="465" y="129"/>
      <point x="490" y="66"/>
      <point x="514" y="3" type="curve"/>
      <point x="484" y="-21"/>
      <point x="463" y="-69"/>
      <point x="463" y="-106" type="curve" smooth="yes"/>
      <point x="463" y="-165"/>
      <point x="507" y="-207"/>
      <point x="570" y="-207" type="curve" smooth="yes"/>
      <point x="605" y="-207"/>
      <point x="634" y="-195"/>
      <point x="655" y="-176" type="curve"/>
      <point x="647" y="-159"/>
      <point x="638" y="-144"/>
      <point x="629" y="-127" type="curve"/>
      <point x="614" y="-141"/>
      <point x="596" y="-147"/>
      <point x="578" y="-147" type="curve" smooth="yes"/>
      <point x="553" y="-147"/>
      <point x="531" y="-134"/>
      <point x="531" y="-101" type="curve" smooth="yes"/>
      <point x="531" y="-69"/>
      <point x="567" y="-9"/>
      <point x="594" y="12" type="curve"/>
      <point x="507" y="234"/>
      <point x="421" y="457"/>
      <point x="333" y="680" type="curve"/>
    </contour>
    <contour>
      <point x="295" y="575" type="line"/>
      <point x="335" y="469"/>
      <point x="377" y="362"/>
      <point x="417" y="256" type="curve"/>
      <point x="176" y="256" type="line"/>
    </contour>
  </outline>
</glyph>
<glyph name="aogonek" format="1">
  <advance width="504"/>
  <unicode hex="0105"/>
  <outline>
    <contour>
      <point x="202" y="498"/>
      <point x="120" y="481"/>
      <point x="82" y="455" type="curve"/>
      <point x="90" y="435"/>
      <point x="98" y="415"/>
      <point x="105" y="395" type="curve"/>
      <point x="141" y="411"/>
      <point x="180" y="429"/>
      <point x="245" y="429" type="curve" smooth="yes"/>
      <point x="336" y="429"/>
      <point x="351" y="365"/>
      <point x="351" y="285" type="curve"/>
      <point x="226" y="285" type="line" smooth="yes"/>
      <point x="122" y="285"/>
      <point x="51" y="234"/>
      <point x="51" y="138" type="curve" smooth="yes"/>
      <point x="51" y="51"/>
      <point x="104" y="-12"/>
      <point x="217" y="-12" type="curve" smooth="yes"/>
      <point x="271" y="-12"/>
      <point x="329" y="18"/>
      <point x="362" y="49" type="curve"/>
      <point x="371" y="20" type="line"/>
      <point x="336" y="-7"/>
      <point x="302" y="-56"/>
      <point x="302" y="-106" type="curve" smooth="yes"/>
      <point x="302" y="-165"/>
      <point x="347" y="-207"/>
      <point x="408" y="-207" type="curve" smooth="yes"/>
      <point x="443" y="-207"/>
      <point x="475" y="-195"/>
      <point x="495" y="-176" type="curve"/>
      <point x="469" y="-127" type="line"/>
      <point x="454" y="-141"/>
      <point x="436" y="-147"/>
      <point x="418" y="-147" type="curve" smooth="yes"/>
      <point x="392" y="-147"/>
      <point x="371" y="-134"/>
      <point x="371" y="-101" type="curve" smooth="yes"/>
      <point x="371" y="-65"/>
      <point x="405" y="-21"/>
      <point x="431" y="0" type="curve"/>
      <point x="431" y="334" type="line" smooth="yes"/>
      <point x="431" y="432"/>
      <point x="354" y="498"/>
      <point x="242" y="498" type="curve" smooth="yes"/>
    </contour>
    <contour>
      <point x="151" y="51"/>
      <point x="124" y="96"/>
      <point x="124" y="138" type="curve" smooth="yes"/>
      <point x="124" y="189"/>
      <point x="158" y="233"/>
      <point x="224" y="233" type="curve" smooth="yes"/>
      <point x="352" y="233" type="line"/>
      <point x="352" y="122" type="line"/>
      <point x="318" y="83"/>
      <point x="271" y="51"/>
      <point x="215" y="51" type="curve" smooth="yes"/>
    </contour>
  </outline>
</glyph>
<glyph name="Dcaron" format="1">
  <advance width="695"/>
  <unicode hex="010E"/>
  <outline>
    <contour>
      <point x="99" y="0" type="line"/>
      <point x="321" y="0" type="line" smooth="yes"/>
      <point x="520" y="0"/>
      <point x="625" y="148"/>
      <point x="625" y="344" type="curve" smooth="yes"/>
      <point x="625" y="532"/>
      <point x="539" y="680"/>
      <point x="328" y="680" type="curve" smooth="yes"/>
      <point x="99" y="680" type="line"/>
    </contour>
    <contour>
      <point x="331" y="612" type="line" smooth="yes"/>
      <point x="479" y="612"/>
      <point x="547" y="500"/>
      <point x="547" y="343" type="curve" smooth="yes"/>
      <point x="547" y="168"/>
      <point x="457" y="66"/>
      <point x="322" y="66" type="curve" smooth="yes"/>
      <point x="178" y="66" type="line"/>
      <point x="178" y="612" type="line"/>
    </contour>
    <contour>
      <point x="158" y="894" type="line"/>
      <point x="275" y="738" type="line"/>
      <point x="338" y="738" type="line"/>
      <point x="455" y="894" type="line"/>
      <point x="379" y="894" type="line"/>
      <point x="307" y="796" type="line"/>
      <point x="234" y="894" type="line"/>
    </contour>
  </outline>
</glyph>
<glyph name="dcaron" format="1">
  <advance width="689"/>
  <unicode hex="010F"/>
  <outline>
    <contour>
      <point x="474" y="705" type="line"/>
      <point x="394" y="696" type="line"/>
      <point x="394" y="450" type="line"/>
      <point x="355" y="479"/>
      <point x="304" y="499"/>
      <point x="262" y="499" type="curve"/>
      <point x="120" y="499"/>
      <point x="49" y="392"/>
      <point x="49" y="242" type="curve"/>
      <point x="49" y="94"/>
      <point x="118" y="-13"/>
      <point x="260" y="-13" type="curve"/>
      <point x="308" y="-13"/>
      <point x="364" y="10"/>
      <point x="406" y="44" type="curve"/>
      <point x="427" y="0" type="line"/>
      <point x="474" y="0" type="line"/>
    </contour>
    <contour>
      <point x="130" y="348"/>
      <point x="168" y="432"/>
      <point x="274" y="432" type="curve"/>
      <point x="311" y="432"/>
      <point x="356" y="413"/>
      <point x="394" y="379" type="curve"/>
      <point x="394" y="107" type="line"/>
      <point x="356" y="73"/>
      <point x="311" y="55"/>
      <point x="274" y="55" type="curve"/>
      <point x="167" y="55"/>
      <point x="130" y="135"/>
      <point x="130" y="243" type="curve"/>
    </contour>
    <contour>
      <point x="682" y="687"/>
      <point x="658" y="712"/>
      <point x="628" y="712" type="curve"/>
      <point x="597" y="712"/>
      <point x="573" y="686"/>
      <point x="573" y="657" type="curve"/>
      <point x="573" y="630"/>
      <point x="593" y="606"/>
      <point x="620" y="604" type="curve"/>
      <point x="615" y="567"/>
      <point x="592" y="545"/>
      <point x="559" y="521" type="curve"/>
      <point x="580" y="484" type="line"/>
      <point x="638" y="514"/>
      <point x="682" y="585"/>
      <point x="682" y="648" type="curve"/>
    </contour>
  </outline>
</glyph>
<glyph name="Eogonek" format="1">
  <advance width="538"/>
  <unicode hex="0118"/>
  <outline>
    <contour>
      <point x="99" y="0" type="line"/>
      <point x="366" y="0" type="line"/>
      <point x="338" y="-26"/>
      <point x="318" y="-71"/>
      <point x="318" y="-106" type="curve" smooth="yes"/>
      <point x="318" y="-165"/>
      <point x="363" y="-207"/>
      <point x="425" y="-207" type="curve" smooth="yes"/>
      <point x="460" y="-207"/>
      <point x="490" y="-195"/>
      <point x="511" y="-176" type="curve"/>
      <point x="503" y="-159"/>
      <point x="493" y="-144"/>
      <point x="485" y="-127" type="curve"/>
      <point x="469" y="-141"/>
      <point x="452" y="-147"/>
      <point x="434" y="-147" type="curve" smooth="yes"/>
      <point x="409" y="-147"/>
      <point x="387" y="-134"/>
      <point x="387" y="-101" type="curve" smooth="yes"/>
      <point x="387" y="-70"/>
      <point x="417" y="-23"/>
      <point x="447" y="0" type="curve"/>
      <point x="509" y="0" type="line"/>
      <point x="500" y="62" type="line"/>
      <point x="178" y="62" type="line"/>
      <point x="178" y="317" type="line"/>
      <point x="383" y="317" type="line"/>
      <point x="379" y="337"/>
      <point x="377" y="357"/>
      <point x="374" y="377" type="curve"/>
      <point x="178" y="377" type="line"/>
      <point x="178" y="620" type="line"/>
      <point x="480" y="620" type="line"/>
      <point x="476" y="640"/>
      <point x="474" y="660"/>
      <point x="471" y="680" type="curve"/>
      <point x="99" y="680" type="line"/>
    </contour>
  </outline>
</glyph>
<glyph name="eogonek" format="1">
  <advance width="528"/>
  <unicode hex="0119"/>
  <outline>
    <contour>
      <point x="483" y="230" type="line"/>
      <point x="483" y="379"/>
      <point x="426" y="498"/>
      <point x="275" y="498" type="curve" smooth="yes"/>
      <point x="130" y="498"/>
      <point x="51" y="392"/>
      <point x="49" y="244" type="curve"/>
      <point x="49" y="90"/>
      <point x="132" y="-11"/>
      <point x="296" y="-11" type="curve"/>
      <point x="273" y="-38"/>
      <point x="259" y="-76"/>
      <point x="259" y="-106" type="curve" smooth="yes"/>
      <point x="259" y="-165"/>
      <point x="304" y="-207"/>
      <point x="366" y="-207" type="curve" smooth="yes"/>
      <point x="401" y="-207"/>
      <point x="430" y="-195"/>
      <point x="452" y="-176" type="curve"/>
      <point x="425" y="-127" type="line"/>
      <point x="410" y="-141"/>
      <point x="393" y="-147"/>
      <point x="375" y="-147" type="curve" smooth="yes"/>
      <point x="349" y="-147"/>
      <point x="328" y="-134"/>
      <point x="328" y="-101" type="curve" smooth="yes"/>
      <point x="328" y="-70"/>
      <point x="358" y="-23"/>
      <point x="388" y="0" type="curve"/>
      <point x="413" y="7"/>
      <point x="437" y="16"/>
      <point x="455" y="28" type="curve"/>
      <point x="430" y="86" type="line"/>
      <point x="393" y="68"/>
      <point x="357" y="52"/>
      <point x="292" y="52" type="curve" smooth="yes"/>
      <point x="182" y="52"/>
      <point x="135" y="127"/>
      <point x="131" y="230" type="curve"/>
    </contour>
    <contour>
      <point x="357" y="431"/>
      <point x="394" y="371"/>
      <point x="405" y="284" type="curve"/>
      <point x="133" y="284" type="line"/>
      <point x="143" y="371"/>
      <point x="187" y="431"/>
      <point x="272" y="431" type="curve" smooth="yes"/>
    </contour>
  </outline>
</glyph>
<glyph name="imacron" format="1">
  <advance width="238"/>
  <unicode hex="012B"/>
  <outline>
    <contour>
      <point x="79" y="0" type="line"/>
      <point x="159" y="0" type="line"/>
      <point x="159" y="485" type="line"/>
      <point x="79" y="485" type="line"/>
    </contour>
    <contour>
      <point x="-4" y="695" type="line"/>
      <point x="-4" y="633" type="line"/>
      <point x="242" y="633" type="line"/>
      <point x="242" y="695" type="line"/>
    </contour>
  </outline>
</glyph>
<glyph name="dotlessi" format="1">
  <advance width="238"/>
  <unicode hex="0131"/>
  <outline>
    <contour>
      <point x="79" y="0" type="line"/>
      <point x="159" y="0" type="line"/>
      <point x="159" y="485" type="line"/>
      <point x="79" y="485" type="line"/>
    </contour>
  </outline>
</glyph>
<glyph name="Kcedilla" format="1">
  <advance width="611"/>
  <unicode hex="0136"/>
  <outline>
    <contour>
      <point x="507" y="0" type="line"/>
      <point x="603" y="0" type="line"/>
      <point x="299" y="390" type="line"/>
      <point x="374" y="476"/>
      <point x="448" y="561"/>
      <point x="522" y="648" type="curve"/>
      <point x="505" y="664"/>
      <point x="486" y="679"/>
      <point x="468" y="695" type="curve"/>
      <point x="371" y="580"/>
      <point x="273" y="465"/>
      <point x="175" y="350" type="curve"/>
      <point x="175" y="680" type="line"/>
      <point x="96" y="680" type="line"/>
      <point x="96" y="0" type="line"/>
      <point x="175" y="0" type="line"/>
      <point x="175" y="246" type="line"/>
      <point x="249" y="331" type="line"/>
    </contour>
    <contour>
      <point x="391" y="-45"/>
      <point x="367" y="-21"/>
      <point x="338" y="-21" type="curve" smooth="yes"/>
      <point x="308" y="-21"/>
      <point x="282" y="-46"/>
      <point x="282" y="-75" type="curve" smooth="yes"/>
      <point x="282" y="-102"/>
      <point x="302" y="-126"/>
      <point x="329" y="-128" type="curve"/>
      <point x="325" y="-162"/>
      <point x="300" y="-184"/>
      <point x="273" y="-202" type="curve"/>
      <point x="293" y="-239" type="line"/>
      <point x="347" y="-213"/>
      <point x="391" y="-147"/>
      <point x="391" y="-84" type="curve" smooth="yes"/>
    </contour>
  </outline>
</glyph>
<glyph name="kcedilla" format="1">
  <advance width="493"/>
  <unicode hex="0137"/>
  <outline>
    <contour>
      <point x="80" y="0" type="line"/>
      <point x="159" y="0" type="line"/>
      <point x="159" y="182" type="line"/>
      <point x="226" y="249" type="line"/>
      <point x="279" y="166"/>
      <point x="332" y="83"/>
      <point x="386" y="0" type="curve"/>
      <point x="479" y="0" type="line"/>
      <point x="413" y="100"/>
      <point x="345" y="200"/>
      <point x="279" y="300" type="curve"/>
      <point x="427" y="447" type="line"/>
      <point x="379" y="498" type="line"/>
      <point x="159" y="276" type="line"/>
      <point x="159" y="706" type="line"/>
      <point x="80" y="695" type="line"/>
    </contour>
    <contour>
      <point x="315" y="-45"/>
      <point x="290" y="-21"/>
      <point x="259" y="-21" type="curve" smooth="yes"/>
      <point x="230" y="-21"/>
      <point x="205" y="-46"/>
      <point x="205" y="-75" type="curve" smooth="yes"/>
      <point x="205" y="-102"/>
      <point x="226" y="-126"/>
      <point x="252" y="-128" type="curve"/>
      <point x="246" y="-162"/>
      <point x="223" y="-184"/>
      <point x="194" y="-202" type="curve"/>
      <point x="216" y="-239" type="line"/>
      <point x="268" y="-213"/>
      <point x="315" y="-147"/>
      <point x="315" y="-84" type="curve" smooth="yes"/>
    </contour>
  </outline>
</glyph>
<glyph name="lcedilla" format="1">
  <advance width="239"/>
  <unicode hex="013C"/>
  <outline>
    <contour>
      <point x="80" y="0" type="line"/>
      <point x="159" y="0" type="line"/>
      <point x="159" y="706" type="line"/>
      <point x="80" y="695" type="line"/>
    </contour>
    <contour>
      <point x="174" y="-45"/>
      <point x="150" y="-21"/>
      <point x="121" y="-21" type="curve" smooth="yes"/>
      <point x="90" y="-21"/>
      <point x="66" y="-46"/>
      <point x="66" y="-75" type="curve" smooth="yes"/>
      <point x="66" y="-102"/>
      <point x="87" y="-126"/>
      <point x="112" y="-128" type="curve"/>
      <point x="108" y="-162"/>
      <point x="85" y="-184"/>
      <point x="56" y="-202" type="curve"/>
      <point x="77" y="-239" type="line"/>
      <point x="130" y="-213"/>
      <point x="174" y="-147"/>
      <point x="174" y="-84" type="curve" smooth="yes"/>
    </contour>
  </outline>
</glyph>
<glyph name="lcaron" format="1">
  <advance width="374"/>
  <unicode hex="013E"/>
  <outline>
    <contour>
      <point x="80" y="0" type="line"/>
      <point x="159" y="0" type="line"/>
      <point x="159" y="706" type="line"/>
      <point x="80" y="695" type="line"/>
    </contour>
    <contour>
      <point x="366" y="687"/>
      <point x="342" y="712"/>
      <point x="311" y="712" type="curve" smooth="yes"/>
      <point x="283" y="712"/>
      <point x="258" y="685"/>
      <point x="258" y="657" type="curve" smooth="yes"/>
      <point x="258" y="630"/>
      <point x="278" y="606"/>
      <point x="303" y="603" type="curve"/>
      <point x="300" y="566"/>
      <point x="276" y="545"/>
      <point x="244" y="521" type="curve"/>
      <point x="264" y="484" type="line"/>
      <point x="322" y="513"/>
      <point x="366" y="584"/>
      <point x="366" y="648" type="curve" smooth="yes"/>
    </contour>
  </outline>
</glyph>
<glyph name="Lslash" format="1">
  <advance width="521"/>
  <unicode hex="0141"/>
  <outline>
    <contour>
      <point x="503" y="0" type="line"/>
      <point x="494" y="63" type="line"/>
      <point x="183" y="63" type="line"/>
      <point x="183" y="316" type="line"/>
      <point x="321" y="432" type="line"/>
      <point x="286" y="482" type="line"/>
      <point x="183" y="396" type="line"/>
      <point x="183" y="680" type="line"/>
      <point x="104" y="680" type="line"/>
      <point x="104" y="330" type="line"/>
      <point x="20" y="260" type="line"/>
      <point x="55" y="208" type="line"/>
      <point x="104" y="250" type="line"/>
      <point x="104" y="0" type="line"/>
    </contour>
  </outline>
</glyph>
<glyph name="nacute" format="1">
  <advance width="559"/>
  <unicode hex="0144"/>
  <outline>
    <contour>
      <point x="265" y="499"/>
      <point x="193" y="462"/>
      <point x="151" y="415" type="curve"/>
      <point x="126" y="485" type="line"/>
      <point x="78" y="485" type="line"/>
      <point x="78" y="0" type="line"/>
      <point x="157" y="0" type="line"/>
      <point x="157" y="353" type="line"/>
      <point x="200" y="403"/>
      <point x="267" y="432"/>
      <point x="309" y="432" type="curve"/>
      <point x="376" y="431"/>
      <point x="407" y="384"/>
      <point x="407" y="318" type="curve"/>
      <point x="407" y="1" type="line"/>
      <point x="486" y="1" type="line"/>
      <point x="486" y="329" type="line"/>
      <point x="486" y="427"/>
      <point x="434" y="499"/>
      <point x="323" y="499" type="curve"/>
    </contour>
    <contour>
      <point x="312" y="745" type="line"/>
      <point x="252" y="589" type="line"/>
      <point x="312" y="589" type="line"/>
      <point x="400" y="745" type="line"/>
    </contour>
  </outline>
</glyph>
<glyph name="Ncedilla" format="1">
  <advance width="713"/>
  <unicode hex="0145"/>
  <outline>
    <contour>
      <point x="99" y="0" type="line"/>
      <point x="178" y="0" type="line"/>
      <point x="178" y="533" type="line"/>
      <point x="204" y="489" type="line"/>
      <point x="551" y="0" type="line"/>
      <point x="614" y="0" type="line"/>
      <point x="614" y="680" type="line"/>
      <point x="534" y="680" type="line"/>
      <point x="534" y="153" type="line"/>
      <point x="493" y="220" type="line"/>
      <point x="162" y="680" type="line"/>
      <point x="99" y="680" type="line"/>
    </contour>
    <contour>
      <point x="415" y="-45"/>
      <point x="392" y="-20"/>
      <point x="361" y="-20" type="curve" smooth="yes"/>
      <point x="332" y="-20"/>
      <point x="307" y="-44"/>
      <point x="307" y="-74" type="curve" smooth="yes"/>
      <point x="307" y="-101"/>
      <point x="327" y="-125"/>
      <point x="353" y="-128" type="curve"/>
      <point x="349" y="-162"/>
      <point x="324" y="-183"/>
      <point x="296" y="-201" type="curve"/>
      <point x="317" y="-238" type="line"/>
      <point x="371" y="-211"/>
      <point x="415" y="-147"/>
      <point x="415" y="-83" type="curve" smooth="yes"/>
    </contour>
  </outline>
</glyph>
<glyph name="racute" format="1">
  <advance width="330"/>
  <unicode hex="0155"/>
  <outline>
    <contour>
      <point x="78" y="0" type="line"/>
      <point x="157" y="0" type="line"/>
      <point x="157" y="343" type="line"/>
      <point x="200" y="386"/>
      <point x="262" y="422"/>
      <point x="320" y="422" type="curve"/>
      <point x="313" y="443"/>
      <point x="307" y="464"/>
      <point x="301" y="485" type="curve"/>
      <point x="249" y="485"/>
      <point x="186" y="448"/>
      <point x="150" y="417" type="curve"/>
      <point x="126" y="485" type="line"/>
      <point x="78" y="485" type="line"/>
    </contour>
    <contour>
      <point x="189" y="744" type="line"/>
      <point x="129" y="589" type="line"/>
      <point x="189" y="589" type="line"/>
      <point x="276" y="744" type="line"/>
    </contour>
  </outline>
</glyph>
<glyph name="Rcedilla" format="1">
  <advance width="631"/>
  <unicode hex="0156"/>
  <outline>
    <contour>
      <point x="380" y="-45"/>
      <point x="356" y="-21"/>
      <point x="325" y="-21" type="curve"/>
      <point x="294" y="-21"/>
      <point x="271" y="-46"/>
      <point x="271" y="-76" type="curve"/>
      <point x="271" y="-102"/>
      <point x="291" y="-127"/>
      <point x="317" y="-129" type="curve"/>
      <point x="313" y="-162"/>
      <point x="290" y="-185"/>
      <point x="260" y="-202" type="curve"/>
      <point x="281" y="-240" type="line"/>
      <point x="334" y="-213"/>
      <point x="380" y="-148"/>
      <point x="380" y="-84" type="curve"/>
    </contour>
    <contour>
      <point x="502" y="0" type="line"/>
      <point x="589" y="0" type="line"/>
      <point x="415" y="304" type="line"/>
      <point x="486" y="333"/>
      <point x="535" y="390"/>
      <point x="536" y="482" type="curve"/>
      <point x="536" y="625"/>
      <point x="429" y="680"/>
      <point x="285" y="680" type="curve"/>
      <point x="100" y="680" type="line"/>
      <point x="100" y="0" type="line"/>
      <point x="178" y="0" type="line"/>
      <point x="178" y="279" type="line"/>
      <point x="274" y="279" type="line" smooth="yes"/>
      <point x="299" y="279"/>
      <point x="322" y="280"/>
      <point x="345" y="283" type="curve"/>
    </contour>
    <contour>
      <point x="285" y="613" type="line" smooth="yes"/>
      <point x="385" y="613"/>
      <point x="454" y="586"/>
      <point x="454" y="479" type="curve"/>
      <point x="454" y="376"/>
      <point x="374" y="344"/>
      <point x="278" y="344" type="curve"/>
      <point x="178" y="344" type="line"/>
      <point x="178" y="613" type="line"/>
    </contour>
  </outline>
</glyph>
<glyph name="sacute" format="1">
  <advance width="446"/>
  <unicode hex="015B"/>
  <outline>
    <contour>
      <point x="282" y="431"/>
      <point x="322" y="413"/>
      <point x="354" y="397" type="curve"/>
      <point x="378" y="455" type="line"/>
      <point x="341" y="482"/>
      <point x="269" y="498"/>
      <point x="227" y="498" type="curve"/>
      <point x="116" y="498"/>
      <point x="47" y="447"/>
      <point x="47" y="360" type="curve"/>
      <point x="47" y="283"/>
      <point x="128" y="243"/>
      <point x="205" y="217" type="curve"/>
      <point x="271" y="195"/>
      <point x="320" y="165"/>
      <point x="320" y="123" type="curve"/>
      <point x="320" y="76"/>
      <point x="278" y="54"/>
      <point x="206" y="54" type="curve"/>
      <point x="159" y="54"/>
      <point x="112" y="69"/>
      <point x="74" y="88" type="curve"/>
      <point x="50" y="28" type="line"/>
      <point x="90" y="1"/>
      <point x="164" y="-13"/>
      <point x="205" y="-13" type="curve"/>
      <point x="332" y="-13"/>
      <point x="399" y="39"/>
      <point x="399" y="128" type="curve"/>
      <point x="399" y="208"/>
      <point x="316" y="253"/>
      <point x="237" y="281" type="curve"/>
      <point x="173" y="303"/>
      <point x="128" y="326"/>
      <point x="128" y="364" type="curve"/>
      <point x="128" y="405"/>
      <point x="166" y="431"/>
      <point x="225" y="431" type="curve"/>
    </contour>
    <contour>
      <point x="231" y="745" type="line"/>
      <point x="171" y="589" type="line"/>
      <point x="230" y="589" type="line"/>
      <point x="317" y="745" type="line"/>
    </contour>
  </outline>
</glyph>
<glyph name="tcedilla" format="1">
  <advance width="325"/>
  <unicode hex="0163"/>
  <outline>
    <contour>
      <point x="280" y="63" type="line"/>
      <point x="270" y="59"/>
      <point x="251" y="53"/>
      <point x="236" y="53" type="curve"/>
      <point x="186" y="53"/>
      <point x="167" y="88"/>
      <point x="167" y="137" type="curve"/>
      <point x="167" y="417" type="line"/>
      <point x="281" y="417" type="line"/>
      <point x="255" y="477" type="line"/>
      <point x="167" y="477" type="line"/>
      <point x="167" y="623" type="line"/>
      <point x="87" y="600" type="line"/>
      <point x="87" y="477" type="line"/>
      <point x="17" y="477" type="line"/>
      <point x="18" y="417" type="line"/>
      <point x="87" y="417" type="line"/>
      <point x="87" y="126" type="line"/>
      <point x="87" y="52"/>
      <point x="121" y="6"/>
      <point x="176" y="-9" type="curve"/>
      <point x="148" y="-80" type="line"/>
      <point x="199" y="-85"/>
      <point x="236" y="-105"/>
      <point x="236" y="-131" type="curve"/>
      <point x="236" y="-154"/>
      <point x="209" y="-165"/>
      <point x="186" y="-165" type="curve"/>
      <point x="165" y="-165"/>
      <point x="138" y="-156"/>
      <point x="126" y="-149" type="curve"/>
      <point x="106" y="-200" type="line"/>
      <point x="125" y="-212"/>
      <point x="160" y="-221"/>
      <point x="186" y="-221" type="curve"/>
      <point x="246" y="-221"/>
      <point x="301" y="-192"/>
      <point x="301" y="-129" type="curve"/>
      <point x="301" y="-94"/>
      <point x="267" y="-56"/>
      <point x="223" y="-48" type="curve"/>
      <point x="236" y="-14" type="line"/>
      <point x="261" y="-12"/>
      <point x="285" y="-4"/>
      <point x="298" y="2" type="curve"/>
    </contour>
  </outline>
</glyph>
<glyph name="tcaron" format="1">
  <advance width="459"/>
  <unicode hex="0165"/>
  <outline>
    <contour>
      <point x="253" y="-15"/>
      <point x="283" y="-5"/>
      <point x="298" y="2" type="curve"/>
      <point x="280" y="63" type="line"/>
      <point x="270" y="59"/>
      <point x="251" y="53"/>
      <point x="236" y="53" type="curve"/>
      <point x="186" y="53"/>
      <point x="167" y="88"/>
      <point x="167" y="137" type="curve"/>
      <point x="167" y="417" type="line"/>
      <point x="281" y="417" type="line"/>
      <point x="255" y="477" type="line"/>
      <point x="167" y="477" type="line"/>
      <point x="167" y="623" type="line"/>
      <point x="87" y="600" type="line"/>
      <point x="87" y="477" type="line"/>
      <point x="17" y="477" type="line"/>
      <point x="18" y="417" type="line"/>
      <point x="87" y="417" type="line"/>
      <point x="87" y="126" type="line"/>
      <point x="87" y="34"/>
      <point x="141" y="-15"/>
      <point x="224" y="-15" type="curve"/>
    </contour>
    <contour>
      <point x="452" y="687"/>
      <point x="428" y="712"/>
      <point x="398" y="712" type="curve"/>
      <point x="368" y="712"/>
      <point x="343" y="686"/>
      <point x="343" y="657" type="curve"/>
      <point x="343" y="630"/>
      <point x="364" y="606"/>
      <point x="390" y="604" type="curve"/>
      <point x="386" y="567"/>
      <point x="362" y="545"/>
      <point x="330" y="521" type="curve"/>
      <point x="350" y="484" type="line"/>
      <point x="409" y="514"/>
      <point x="452" y="585"/>
      <point x="452" y="648" type="curve"/>
    </contour>
  </outline>
</glyph>
<glyph name="uogonek" format="1">
  <advance width="542"/>
  <unicode hex="0173"/>
  <outline>
    <contour>
      <point x="289" y="-14"/>
      <point x="349" y="14"/>
      <point x="392" y="53" type="curve"/>
      <point x="404" y="21" type="line"/>
      <point x="370" y="-7"/>
      <point x="334" y="-57"/>
      <point x="334" y="-107" type="curve"/>
      <point x="334" y="-166"/>
      <point x="380" y="-207"/>
      <point x="441" y="-207" type="curve"/>
      <point x="476" y="-207"/>
      <point x="507" y="-196"/>
      <point x="528" y="-176" type="curve"/>
      <point x="500" y="-128" type="line"/>
      <point x="485" y="-141"/>
      <point x="468" y="-148"/>
      <point x="451" y="-148" type="curve"/>
      <point x="425" y="-148"/>
      <point x="404" y="-135"/>
      <point x="404" y="-101" type="curve"/>
      <point x="404" y="-65"/>
      <point x="437" y="-22"/>
      <point x="464" y="0" type="curve"/>
      <point x="464" y="485" type="line"/>
      <point x="385" y="485" type="line"/>
      <point x="385" y="114" type="line"/>
      <point x="342" y="75"/>
      <point x="286" y="53"/>
      <point x="249" y="53" type="curve"/>
      <point x="183" y="53"/>
      <point x="152" y="101"/>
      <point x="152" y="166" type="curve"/>
      <point x="152" y="485" type="line"/>
      <point x="73" y="485" type="line"/>
      <point x="73" y="157" type="line"/>
      <point x="73" y="58"/>
      <point x="123" y="-14"/>
      <point x="237" y="-14" type="curve"/>
    </contour>
  </outline>
</glyph>
<glyph name="Ydieresis" format="1">
  <advance width="561"/>
  <unicode hex="0178"/>
  <outline>
    <contour>
      <point x="238" y="0" type="line"/>
      <point x="318" y="0" type="line"/>
      <point x="319" y="277" type="line"/>
      <point x="556" y="680" type="line"/>
      <point x="472" y="680" type="line"/>
      <point x="278" y="351" type="line"/>
      <point x="88" y="680" type="line"/>
      <point x="6" y="667" type="line"/>
      <point x="239" y="273" type="line"/>
    </contour>
    <contour>
      <point x="411" y="839"/>
      <point x="391" y="861"/>
      <point x="363" y="861" type="curve"/>
      <point x="336" y="861"/>
      <point x="314" y="839"/>
      <point x="314" y="813" type="curve"/>
      <point x="314" y="785"/>
      <point x="336" y="764"/>
      <point x="363" y="764" type="curve"/>
      <point x="391" y="764"/>
      <point x="411" y="785"/>
      <point x="411" y="813" type="curve"/>
    </contour>
    <contour>
      <point x="246" y="839"/>
      <point x="225" y="861"/>
      <point x="197" y="861" type="curve"/>
      <point x="171" y="861"/>
      <point x="149" y="839"/>
      <point x="149" y="813" type="curve"/>
      <point x="149" y="785"/>
      <point x="171" y="764"/>
      <point x="197" y="764" type="curve"/>
      <point x="225" y="764"/>
      <point x="246" y="785"/>
      <point x="246" y="813" type="curve"/>
    </contour>
  </outline>
</glyph>
<glyph name="Scommaaccent" format="1">
  <advance width="538"/>
  <unicode hex="0218"/>
  <outline>
    <contour>
      <point x="182" y="54"/>
      <point x="116" y="77"/>
      <point x="80" y="95" type="curve"/>
      <point x="73" y="74"/>
      <point x="67" y="53"/>
      <point x="61" y="33" type="curve"/>
      <point x="86" y="11"/>
      <point x="190" y="-13"/>
      <point x="248" y="-13" type="curve" smooth="yes"/>
      <point x="402" y="-13"/>
      <point x="488" y="61"/>
      <point x="488" y="166" type="curve" smooth="yes"/>
      <point x="488" y="365"/>
      <point x="127" y="377"/>
      <point x="127" y="526" type="curve" smooth="yes"/>
      <point x="127" y="591"/>
      <point x="187" y="627"/>
      <point x="272" y="627" type="curve" smooth="yes"/>
      <point x="339" y="627"/>
      <point x="379" y="609"/>
      <point x="414" y="592" type="curve"/>
      <point x="423" y="613"/>
      <point x="433" y="633"/>
      <point x="441" y="654" type="curve"/>
      <point x="398" y="675"/>
      <point x="335" y="696"/>
      <point x="267" y="696" type="curve" smooth="yes"/>
      <point x="132" y="696"/>
      <point x="50" y="621"/>
      <point x="50" y="524" type="curve" smooth="yes"/>
      <point x="50" y="317"/>
      <point x="410" y="309"/>
      <point x="410" y="164" type="curve" smooth="yes"/>
      <point x="410" y="99"/>
      <point x="353" y="54"/>
      <point x="247" y="54" type="curve" smooth="yes"/>
    </contour>
    <contour>
      <point x="301" y="-45"/>
      <point x="277" y="-21"/>
      <point x="247" y="-21" type="curve" smooth="yes"/>
      <point x="218" y="-21"/>
      <point x="193" y="-46"/>
      <point x="193" y="-75" type="curve" smooth="yes"/>
      <point x="193" y="-102"/>
      <point x="213" y="-126"/>
      <point x="239" y="-128" type="curve"/>
      <point x="235" y="-162"/>
      <point x="211" y="-184"/>
      <point x="183" y="-202" type="curve"/>
      <point x="204" y="-239" type="line"/>
      <point x="258" y="-213"/>
      <point x="301" y="-147"/>
      <point x="301" y="-84" type="curve" smooth="yes"/>
    </contour>
  </outline>
</glyph>
<glyph name="uni021B" format="1">
  <advance width="325"/>
  <unicode hex="021B"/>
  <outline>
    <contour>
      <point x="253" y="-15"/>
      <point x="283" y="-5"/>
      <point x="298" y="2" type="curve"/>
      <point x="280" y="63" type="line"/>
      <point x="270" y="59"/>
      <point x="251" y="53"/>
      <point x="236" y="53" type="curve"/>
      <point x="186" y="53"/>
      <point x="167" y="88"/>
      <point x="167" y="137" type="curve"/>
      <point x="167" y="417" type="line"/>
      <point x="281" y="417" type="line"/>
      <point x="255" y="477" type="line"/>
      <point x="167" y="477" type="line"/>
      <point x="167" y="623" type="line"/>
      <point x="87" y="600" type="line"/>
      <point x="87" y="477" type="line"/>
      <point x="17" y="477" type="line"/>
      <point x="18" y="417" type="line"/>
      <point x="87" y="417" type="line"/>
      <point x="87" y="126" type="line"/>
      <point x="87" y="34"/>
      <point x="141" y="-15"/>
      <point x="224" y="-15" type="curve"/>
    </contour>
    <contour>
      <point x="262" y="-45"/>
      <point x="238" y="-21"/>
      <point x="207" y="-21" type="curve"/>
      <point x="177" y="-21"/>
      <point x="153" y="-46"/>
      <point x="153" y="-76" type="curve"/>
      <point x="153" y="-102"/>
      <point x="174" y="-127"/>
      <point x="199" y="-129" type="curve"/>
      <point x="195" y="-162"/>
      <point x="171" y="-185"/>
      <point x="143" y="-202" type="curve"/>
      <point x="164" y="-240" type="line"/>
      <point x="217" y="-213"/>
      <point x="262" y="-148"/>
      <point x="262" y="-84" type="curve"/>
    </contour>
  </outline>
</glyph>
<glyph name="uni02C9" format="1">
  <advance width="277"/>
  <unicode hex="02C9"/>
  <outline>
    <contour>
      <point x="16" y="696" type="line"/>
      <point x="16" y="633" type="line"/>
      <point x="262" y="633" type="line"/>
      <point x="262" y="696" type="line"/>
    </contour>
  </outline>
</glyph>
<glyph name="dotaccent" format="1">
  <advance width="140"/>
  <unicode hex="02D9"/>
  <outline>
    <contour>
      <point x="124" y="696"/>
      <point x="100" y="721"/>
      <point x="70" y="721" type="curve"/>
      <point x="40" y="721"/>
      <point x="16" y="696"/>
      <point x="16" y="666" type="curve"/>
      <point x="16" y="635"/>
      <point x="40" y="612"/>
      <point x="70" y="612" type="curve"/>
      <point x="100" y="612"/>
      <point x="124" y="635"/>
      <point x="124" y="666" type="curve"/>
    </contour>
  </outline>
</glyph>
<glyph name="ring" format="1">
  <advance width="218"/>
  <unicode hex="02DA"/>
  <outline>
    <contour>
      <point x="152" y="656"/>
      <point x="133" y="638"/>
      <point x="109" y="638" type="curve"/>
      <point x="86" y="638"/>
      <point x="66" y="656"/>
      <point x="66" y="679" type="curve"/>
      <point x="66" y="703"/>
      <point x="86" y="722"/>
      <point x="109" y="722" type="curve"/>
      <point x="133" y="722"/>
      <point x="152" y="703"/>
      <point x="152" y="679" type="curve"/>
    </contour>
    <contour>
      <point x="202" y="729"/>
      <point x="160" y="767"/>
      <point x="109" y="767" type="curve"/>
      <point x="59" y="767"/>
      <point x="16" y="729"/>
      <point x="16" y="679" type="curve"/>
      <point x="16" y="629"/>
      <point x="59" y="594"/>
      <point x="109" y="594" type="curve"/>
      <point x="160" y="594"/>
      <point x="202" y="629"/>
      <point x="202" y="679" type="curve"/>
    </contour>
  </outline>
</glyph>
<glyph name="ogonek" format="1">
  <advance width="224"/>
  <unicode hex="02DB"/>
  <outline>
    <contour>
      <point x="68" y="4" type="line"/>
      <point x="37" y="-22"/>
      <point x="16" y="-70"/>
      <point x="16" y="-107" type="curve"/>
      <point x="16" y="-166"/>
      <point x="60" y="-207"/>
      <point x="123" y="-207" type="curve"/>
      <point x="158" y="-207"/>
      <point x="188" y="-196"/>
      <point x="208" y="-176" type="curve"/>
      <point x="183" y="-128" type="line"/>
      <point x="167" y="-141"/>
      <point x="150" y="-148"/>
      <point x="131" y="-148" type="curve"/>
      <point x="106" y="-148"/>
      <point x="84" y="-135"/>
      <point x="84" y="-101" type="curve"/>
      <point x="84" y="-69"/>
      <point x="118" y="-18"/>
      <point x="150" y="4" type="curve"/>
    </contour>
  </outline>
</glyph>
<glyph name="tilde" format="1">
  <advance width="325"/>
  <unicode hex="02DC"/>
  <outline>
    <contour>
      <point x="254" y="703" type="line"/>
      <point x="251" y="676"/>
      <point x="236" y="663"/>
      <point x="218" y="663" type="curve" smooth="yes"/>
      <point x="183" y="663"/>
      <point x="160" y="707"/>
      <point x="106" y="707" type="curve" smooth="yes"/>
      <point x="59" y="707"/>
      <point x="17" y="685"/>
      <point x="17" y="616" type="curve" smooth="yes"/>
      <point x="17" y="609" type="line"/>
      <point x="72" y="609" type="line"/>
      <point x="73" y="635"/>
      <point x="91" y="649"/>
      <point x="108" y="649" type="curve" smooth="yes"/>
      <point x="143" y="649"/>
      <point x="172" y="604"/>
      <point x="219" y="604" type="curve" smooth="yes"/>
      <point x="268" y="604"/>
      <point x="308" y="628"/>
      <point x="308" y="703" type="curve"/>
    </contour>
  </outline>
</glyph>
<glyph name="dv_Visarga" format="1">
  <advance width="157"/>
  <unicode hex="0903"/>
  <outline>
    <contour>
      <point x="20" y="436"/>
      <point x="45" y="410"/>
      <point x="78" y="410" type="curve"/>
      <point x="111" y="410"/>
      <point x="137" y="436"/>
      <point x="137" y="468" type="curve"/>
      <point x="137" y="501"/>
      <point x="111" y="527"/>
      <point x="78" y="527" type="curve"/>
      <point x="45" y="527"/>
      <point x="20" y="501"/>
      <point x="20" y="468" type="curve"/>
    </contour>
    <contour>
      <point x="20" y="90"/>
      <point x="45" y="64"/>
      <point x="78" y="64" type="curve"/>
      <point x="111" y="64"/>
      <point x="137" y="90"/>
      <point x="137" y="123" type="curve"/>
      <point x="137" y="155"/>
      <point x="111" y="181"/>
      <point x="78" y="181" type="curve"/>
      <point x="45" y="181"/>
      <point x="20" y="155"/>
      <point x="20" y="123" type="curve"/>
    </contour>
  </outline>
</glyph>
<glyph name="dv_I" format="1">
  <advance width="539"/>
  <unicode hex="0907"/>
  <outline>
    <contour>
      <point x="248" y="53"/>
      <point x="221" y="56"/>
      <point x="195" y="63" type="curve"/>
      <point x="181" y="106"/>
      <point x="141" y="141"/>
      <point x="93" y="141" type="curve" smooth="yes"/>
      <point x="66" y="141"/>
      <point x="47" y="125"/>
      <point x="47" y="99" type="curve" smooth="yes"/>
      <point x="47" y="49"/>
      <point x="95" y="11"/>
      <point x="134" y="-6" type="curve"/>
      <point x="177" y="-61"/>
      <point x="219" y="-115"/>
      <point x="261" y="-171" type="curve"/>
      <point x="318" y="-130" type="line"/>
      <point x="262" y="-62" type="line"/>
      <point x="225" y="-13" type="line"/>
      <point x="242" y="-15"/>
      <point x="259" y="-17"/>
      <point x="277" y="-17" type="curve" smooth="yes"/>
      <point x="416" y="-17"/>
      <point x="495" y="58"/>
      <point x="495" y="147" type="curve" smooth="yes"/>
      <point x="495" y="258"/>
      <point x="419" y="314"/>
      <point x="296" y="314" type="curve" smooth="yes"/>
      <point x="212" y="314" type="line" smooth="yes"/>
      <point x="166" y="314"/>
      <point x="135" y="342"/>
      <point x="135" y="380" type="curve" smooth="yes"/>
      <point x="135" y="416"/>
      <point x="169" y="445"/>
      <point x="210" y="445" type="curve" smooth="yes"/>
      <point x="439" y="445" type="line"/>
      <point x="439" y="611" type="line"/>
      <point x="549" y="611" type="line"/>
      <point x="535" y="680" type="line"/>
      <point x="-11" y="680" type="line"/>
      <point x="-6" y="657"/>
      <point x="-2" y="634"/>
      <point x="2" y="611" type="curve"/>
      <point x="353" y="611" type="line"/>
      <point x="353" y="517" type="line"/>
      <point x="209" y="517" type="line" smooth="yes"/>
      <point x="120" y="517"/>
      <point x="51" y="466"/>
      <point x="51" y="380" type="curve" smooth="yes"/>
      <point x="51" y="300"/>
      <point x="131" y="243"/>
      <point x="211" y="243" type="curve" smooth="yes"/>
      <point x="305" y="243" type="line" smooth="yes"/>
      <point x="368" y="243"/>
      <point x="408" y="203"/>
      <point x="408" y="148" type="curve" smooth="yes"/>
      <point x="408" y="95"/>
      <point x="366" y="52"/>
      <point x="275" y="52" type="curve"/>
    </contour>
  </outline>
</glyph>
<glyph name="dv_U" format="1">
  <advance width="561"/>
  <unicode hex="0909"/>
  <outline>
    <contour>
      <point x="413" y="-15"/>
      <point x="497" y="69"/>
      <point x="497" y="183" type="curve" smooth="yes"/>
      <point x="497" y="249"/>
      <point x="462" y="326"/>
      <point x="364" y="351" type="curve"/>
      <point x="446" y="376"/>
      <point x="483" y="453"/>
      <point x="483" y="513" type="curve" smooth="yes"/>
      <point x="483" y="548"/>
      <point x="469" y="585"/>
      <point x="448" y="611" type="curve"/>
      <point x="571" y="611" type="line"/>
      <point x="556" y="680" type="line"/>
      <point x="-11" y="680" type="line"/>
      <point x="-5" y="657"/>
      <point x="-1" y="634"/>
      <point x="3" y="611" type="curve"/>
      <point x="331" y="611" type="line"/>
      <point x="372" y="593"/>
      <point x="393" y="554"/>
      <point x="393" y="511" type="curve" smooth="yes"/>
      <point x="393" y="437"/>
      <point x="341" y="381"/>
      <point x="230" y="381" type="curve" smooth="yes"/>
      <point x="132" y="381" type="line"/>
      <point x="151" y="319" type="line"/>
      <point x="222" y="319" type="line" smooth="yes"/>
      <point x="363" y="319"/>
      <point x="408" y="266"/>
      <point x="408" y="181" type="curve" smooth="yes"/>
      <point x="408" y="97"/>
      <point x="343" y="55"/>
      <point x="261" y="55" type="curve" smooth="yes"/>
      <point x="192" y="55"/>
      <point x="131" y="77"/>
      <point x="79" y="113" type="curve"/>
      <point x="63" y="41" type="line"/>
      <point x="110" y="10"/>
      <point x="180" y="-15"/>
      <point x="261" y="-15" type="curve" smooth="yes"/>
    </contour>
  </outline>
</glyph>
<glyph name="dv_Ka" format="1">
  <advance width="908"/>
  <unicode hex="0915"/>
  <outline>
    <contour>
      <point x="199" y="162"/>
      <point x="141" y="219"/>
      <point x="141" y="299" type="curve"/>
      <point x="142" y="379"/>
      <point x="204" y="435"/>
      <point x="275" y="435" type="curve"/>
      <point x="349" y="435"/>
      <point x="388" y="387"/>
      <point x="413" y="351" type="curve"/>
      <point x="413" y="246" type="line"/>
      <point x="388" y="210"/>
      <point x="349" y="162"/>
      <point x="275" y="162" type="curve"/>
    </contour>
    <contour>
      <point x="51" y="173"/>
      <point x="149" y="91"/>
      <point x="275" y="91" type="curve"/>
      <point x="334" y="91"/>
      <point x="384" y="119"/>
      <point x="413" y="147" type="curve"/>
      <point x="413" y="0" type="line"/>
      <point x="500" y="-16" type="line"/>
      <point x="500" y="345" type="line"/>
      <point x="522" y="379"/>
      <point x="562" y="435"/>
      <point x="644" y="435" type="curve"/>
      <point x="715" y="435"/>
      <point x="775" y="379"/>
      <point x="775" y="299" type="curve"/>
      <point x="775" y="219"/>
      <point x="716" y="162"/>
      <point x="634" y="162" type="curve"/>
      <point x="649" y="91" type="line"/>
      <point x="762" y="91"/>
      <point x="865" y="169"/>
      <point x="865" y="298" type="curve"/>
      <point x="865" y="416"/>
      <point x="777" y="507"/>
      <point x="642" y="507" type="curve"/>
      <point x="578" y="507"/>
      <point x="528" y="476"/>
      <point x="500" y="446" type="curve"/>
      <point x="500" y="612" type="line"/>
      <point x="919" y="612" type="line"/>
      <point x="905" y="680" type="line"/>
      <point x="-11" y="680" type="line"/>
      <point x="4" y="612" type="line"/>
      <point x="413" y="612" type="line"/>
      <point x="413" y="450" type="line"/>
      <point x="384" y="479"/>
      <point x="334" y="507"/>
      <point x="275" y="507" type="curve"/>
      <point x="140" y="507"/>
      <point x="51" y="416"/>
      <point x="51" y="298" type="curve"/>
    </contour>
  </outline>
</glyph>
<glyph name="dv_Tta" format="1">
  <advance width="631"/>
  <unicode hex="091F"/>
  <outline>
    <contour>
      <point x="246" y="56"/>
      <point x="144" y="94"/>
      <point x="144" y="230" type="curve" smooth="yes"/>
      <point x="144" y="347"/>
      <point x="242" y="407"/>
      <point x="373" y="407" type="curve" smooth="yes"/>
      <point x="503" y="407" type="line"/>
      <point x="503" y="611" type="line"/>
      <point x="642" y="611" type="line"/>
      <point x="627" y="680" type="line"/>
      <point x="-11" y="680" type="line"/>
      <point x="-5" y="657"/>
      <point x="-1" y="634"/>
      <point x="3" y="611" type="curve"/>
      <point x="416" y="611" type="line"/>
      <point x="416" y="481" type="line"/>
      <point x="373" y="481" type="line" smooth="yes"/>
      <point x="199" y="481"/>
      <point x="58" y="397"/>
      <point x="58" y="230" type="curve" smooth="yes"/>
      <point x="58" y="42"/>
      <point x="206" y="-18"/>
      <point x="361" y="-18" type="curve" smooth="yes"/>
      <point x="441" y="-18"/>
      <point x="520" y="1"/>
      <point x="573" y="40" type="curve"/>
      <point x="563" y="119" type="line"/>
      <point x="498" y="72"/>
      <point x="432" y="56"/>
      <point x="361" y="56" type="curve" smooth="yes"/>
    </contour>
  </outline>
</glyph>
<glyph name="dv_Ttha" format="1">
  <advance width="716"/>
  <unicode hex="0920"/>
  <outline>
    <contour>
      <point x="59" y="42"/>
      <point x="206" y="-18"/>
      <point x="360" y="-18" type="curve"/>
      <point x="522" y="-18"/>
      <point x="661" y="62"/>
      <point x="661" y="232" type="curve"/>
      <point x="661" y="403"/>
      <point x="539" y="466"/>
      <point x="401" y="477" type="curve"/>
      <point x="401" y="612" type="line"/>
      <point x="727" y="612" type="line"/>
      <point x="712" y="680" type="line"/>
      <point x="-11" y="680" type="line"/>
      <point x="4" y="612" type="line"/>
      <point x="314" y="612" type="line"/>
      <point x="314" y="477" type="line"/>
      <point x="173" y="461"/>
      <point x="59" y="381"/>
      <point x="59" y="230" type="curve"/>
    </contour>
    <contour>
      <point x="476" y="406"/>
      <point x="576" y="367"/>
      <point x="576" y="232" type="curve"/>
      <point x="576" y="114"/>
      <point x="480" y="56"/>
      <point x="360" y="56" type="curve"/>
      <point x="245" y="56"/>
      <point x="145" y="94"/>
      <point x="145" y="230" type="curve"/>
      <point x="145" y="347"/>
      <point x="242" y="406"/>
      <point x="360" y="406" type="curve"/>
    </contour>
  </outline>
</glyph>
<glyph name="dv_Ta" format="1">
  <advance width="678"/>
  <unicode hex="0924"/>
  <outline>
    <contour>
      <point x="476" y="0" type="line"/>
      <point x="562" y="-16" type="line"/>
      <point x="562" y="612" type="line"/>
      <point x="689" y="612" type="line"/>
      <point x="674" y="680" type="line"/>
      <point x="-11" y="680" type="line"/>
      <point x="4" y="612" type="line"/>
      <point x="476" y="612" type="line"/>
      <point x="476" y="454" type="line"/>
      <point x="241" y="454" type="line" smooth="yes"/>
      <point x="131" y="454"/>
      <point x="67" y="385"/>
      <point x="67" y="294" type="curve"/>
      <point x="67" y="198"/>
      <point x="152" y="78"/>
      <point x="220" y="-19" type="curve"/>
      <point x="294" y="5" type="line"/>
      <point x="231" y="102"/>
      <point x="153" y="214"/>
      <point x="153" y="290" type="curve"/>
      <point x="153" y="353"/>
      <point x="194" y="385"/>
      <point x="278" y="385" type="curve"/>
      <point x="476" y="385" type="line"/>
    </contour>
  </outline>
</glyph>
<glyph name="dv_Tha" format="1">
  <advance width="678"/>
  <unicode hex="0925"/>
  <outline>
    <contour>
      <point x="197" y="486"/>
      <point x="233" y="509"/>
      <point x="247" y="534" type="curve"/>
      <point x="243" y="460"/>
      <point x="218" y="418"/>
      <point x="124" y="381" type="curve"/>
      <point x="118" y="374"/>
      <point x="113" y="369"/>
      <point x="108" y="362" type="curve"/>
      <point x="108" y="262"/>
      <point x="214" y="171"/>
      <point x="333" y="171" type="curve" smooth="yes"/>
      <point x="396" y="171"/>
      <point x="441" y="189"/>
      <point x="475" y="218" type="curve"/>
      <point x="475" y="0" type="line"/>
      <point x="562" y="-16" type="line"/>
      <point x="562" y="611" type="line"/>
      <point x="689" y="611" type="line"/>
      <point x="684" y="634"/>
      <point x="680" y="657"/>
      <point x="674" y="680" type="curve"/>
      <point x="398" y="680" type="line"/>
      <point x="413" y="611" type="line"/>
      <point x="475" y="611" type="line"/>
      <point x="475" y="393" type="line" smooth="yes"/>
      <point x="475" y="299"/>
      <point x="426" y="244"/>
      <point x="335" y="244" type="curve"/>
      <point x="263" y="247"/>
      <point x="207" y="285"/>
      <point x="191" y="335" type="curve"/>
      <point x="253" y="367"/>
      <point x="321" y="404"/>
      <point x="321" y="524" type="curve" smooth="yes"/>
      <point x="321" y="622"/>
      <point x="243" y="695"/>
      <point x="167" y="695" type="curve" smooth="yes"/>
      <point x="94" y="695"/>
      <point x="45" y="648"/>
      <point x="45" y="585" type="curve" smooth="yes"/>
      <point x="45" y="525"/>
      <point x="99" y="486"/>
      <point x="157" y="486" type="curve" smooth="yes"/>
    </contour>
    <contour>
      <point x="188" y="632"/>
      <point x="209" y="617"/>
      <point x="221" y="597" type="curve"/>
      <point x="214" y="570"/>
      <point x="196" y="545"/>
      <point x="161" y="545" type="curve" smooth="yes"/>
      <point x="137" y="545"/>
      <point x="114" y="560"/>
      <point x="114" y="586" type="curve" smooth="yes"/>
      <point x="114" y="617"/>
      <point x="139" y="632"/>
      <point x="164" y="632" type="curve" smooth="yes"/>
    </contour>
  </outline>
</glyph>
<glyph name="dv_Da" format="1">
  <advance width="602"/>
  <unicode hex="0926"/>
  <outline>
    <contour>
      <point x="551" y="-9" type="line"/>
      <point x="482" y="109" type="line"/>
      <point x="506" y="129"/>
      <point x="518" y="153"/>
      <point x="518" y="173" type="curve" smooth="yes"/>
      <point x="518" y="217"/>
      <point x="459" y="233"/>
      <point x="439" y="233" type="curve" smooth="yes"/>
      <point x="401" y="233"/>
      <point x="378" y="208"/>
      <point x="378" y="189" type="curve" smooth="yes"/>
      <point x="378" y="176"/>
      <point x="380" y="164"/>
      <point x="382" y="155" type="curve"/>
      <point x="366" y="153"/>
      <point x="351" y="152"/>
      <point x="336" y="152" type="curve" smooth="yes"/>
      <point x="227" y="152"/>
      <point x="141" y="205"/>
      <point x="141" y="308" type="curve" smooth="yes"/>
      <point x="141" y="409"/>
      <point x="234" y="462"/>
      <point x="360" y="462" type="curve" smooth="yes"/>
      <point x="469" y="462" type="line"/>
      <point x="469" y="611" type="line"/>
      <point x="612" y="611" type="line"/>
      <point x="597" y="680" type="line"/>
      <point x="-11" y="680" type="line"/>
      <point x="-5" y="657"/>
      <point x="-1" y="634"/>
      <point x="3" y="611" type="curve"/>
      <point x="382" y="611" type="line"/>
      <point x="382" y="534" type="line"/>
      <point x="348" y="534" type="line" smooth="yes"/>
      <point x="181" y="534"/>
      <point x="55" y="456"/>
      <point x="55" y="308" type="curve" smooth="yes"/>
      <point x="55" y="149"/>
      <point x="188" y="77"/>
      <point x="336" y="77" type="curve" smooth="yes"/>
      <point x="358" y="77"/>
      <point x="381" y="79"/>
      <point x="403" y="83" type="curve" smooth="yes"/>
      <point x="415" y="85" type="line"/>
      <point x="439" y="43"/>
      <point x="461" y="0"/>
      <point x="484" y="-43" type="curve"/>
    </contour>
  </outline>
</glyph>
<glyph name="dv_Nnna" format="1">
  <advance width="613"/>
  <unicode hex="0929"/>
  <outline>
    <contour>
      <point x="96" y="-7"/>
      <point x="123" y="-33"/>
      <point x="155" y="-33" type="curve" smooth="yes"/>
      <point x="187" y="-33"/>
      <point x="213" y="-7"/>
      <point x="213" y="24" type="curve" smooth="yes"/>
      <point x="213" y="57"/>
      <point x="187" y="83"/>
      <point x="155" y="83" type="curve" smooth="yes"/>
      <point x="123" y="83"/>
      <point x="96" y="57"/>
      <point x="96" y="24" type="curve" smooth="yes"/>
    </contour>
    <contour>
      <point x="410" y="315" type="line"/>
      <point x="410" y="0" type="line"/>
      <point x="497" y="-16" type="line"/>
      <point x="497" y="611" type="line"/>
      <point x="624" y="611" type="line"/>
      <point x="610" y="680" type="line"/>
      <point x="-11" y="680" type="line"/>
      <point x="-5" y="657"/>
      <point x="-1" y="634"/>
      <point x="3" y="611" type="curve"/>
      <point x="410" y="611" type="line"/>
      <point x="410" y="381" type="line"/>
      <point x="79" y="381" type="line" smooth="yes"/>
      <point x="49" y="381"/>
      <point x="35" y="364"/>
      <point x="35" y="339" type="curve" smooth="yes"/>
      <point x="35" y="285"/>
      <point x="95" y="230"/>
      <point x="155" y="230" type="curve" smooth="yes"/>
      <point x="173" y="230"/>
      <point x="186" y="273"/>
      <point x="186" y="315" type="curve"/>
    </contour>
  </outline>
</glyph>
<glyph name="dv_Ba" format="1">
  <advance width="618"/>
  <unicode hex="092C"/>
  <outline>
    <contour>
      <point x="414" y="0" type="line"/>
      <point x="501" y="-16" type="line"/>
      <point x="501" y="611" type="line"/>
      <point x="628" y="611" type="line"/>
      <point x="613" y="680" type="line"/>
      <point x="-11" y="680" type="line"/>
      <point x="-5" y="657"/>
      <point x="-1" y="634"/>
      <point x="3" y="611" type="curve"/>
      <point x="414" y="611" type="line"/>
      <point x="414" y="453" type="line"/>
      <point x="383" y="481"/>
      <point x="335" y="507"/>
      <point x="276" y="507" type="curve" smooth="yes"/>
      <point x="141" y="507"/>
      <point x="51" y="416"/>
      <point x="51" y="298" type="curve" smooth="yes"/>
      <point x="51" y="172"/>
      <point x="150" y="90"/>
      <point x="276" y="90" type="curve" smooth="yes"/>
      <point x="335" y="90"/>
      <point x="383" y="117"/>
      <point x="414" y="144" type="curve"/>
    </contour>
    <contour>
      <point x="351" y="436"/>
      <point x="389" y="386"/>
      <point x="414" y="351" type="curve"/>
      <point x="414" y="246" type="line"/>
      <point x="407" y="235"/>
      <point x="398" y="223"/>
      <point x="387" y="212" type="curve"/>
      <point x="328" y="281"/>
      <point x="268" y="348"/>
      <point x="209" y="417" type="curve"/>
      <point x="228" y="429"/>
      <point x="250" y="436"/>
      <point x="273" y="436" type="curve" smooth="yes"/>
    </contour>
    <contour>
      <point x="141" y="332"/>
      <point x="151" y="360"/>
      <point x="168" y="383" type="curve"/>
      <point x="347" y="179" type="line"/>
      <point x="327" y="169"/>
      <point x="303" y="161"/>
      <point x="273" y="161" type="curve" smooth="yes"/>
      <point x="198" y="161"/>
      <point x="141" y="218"/>
      <point x="141" y="299" type="curve" smooth="yes"/>
    </contour>
  </outline>
</glyph>
<glyph name="dv_Bha" format="1">
  <advance width="731"/>
  <unicode hex="092D"/>
  <outline>
    <contour>
      <point x="528" y="0" type="line"/>
      <point x="615" y="-16" type="line"/>
      <point x="615" y="611" type="line"/>
      <point x="742" y="611" type="line"/>
      <point x="727" y="680" type="line"/>
      <point x="390" y="680" type="line"/>
      <point x="406" y="611" type="line"/>
      <point x="528" y="611" type="line"/>
      <point x="528" y="322" type="line"/>
      <point x="293" y="322" type="line"/>
      <point x="293" y="530" type="line" smooth="yes"/>
      <point x="293" y="630"/>
      <point x="243" y="695"/>
      <point x="158" y="695" type="curve" smooth="yes"/>
      <point x="93" y="695"/>
      <point x="36" y="651"/>
      <point x="36" y="585" type="curve" smooth="yes"/>
      <point x="36" y="519"/>
      <point x="83" y="470"/>
      <point x="155" y="470" type="curve" smooth="yes"/>
      <point x="169" y="470"/>
      <point x="191" y="474"/>
      <point x="208" y="484" type="curve"/>
      <point x="208" y="322" type="line"/>
      <point x="167" y="322"/>
      <point x="139" y="297"/>
      <point x="139" y="281" type="curve" smooth="yes"/>
      <point x="139" y="229"/>
      <point x="195" y="171"/>
      <point x="258" y="171" type="curve" smooth="yes"/>
      <point x="281" y="171"/>
      <point x="290" y="204"/>
      <point x="290" y="255" type="curve"/>
      <point x="528" y="255" type="line"/>
    </contour>
    <contour>
      <point x="134" y="533"/>
      <point x="111" y="550"/>
      <point x="111" y="578" type="curve" smooth="yes"/>
      <point x="111" y="608"/>
      <point x="131" y="625"/>
      <point x="157" y="625" type="curve" smooth="yes"/>
      <point x="190" y="625"/>
      <point x="208" y="597"/>
      <point x="209" y="553" type="curve"/>
      <point x="195" y="541"/>
      <point x="175" y="533"/>
      <point x="159" y="533" type="curve" smooth="yes"/>
    </contour>
  </outline>
</glyph>
<glyph name="dv_Ra" format="1">
  <advance width="443"/>
  <unicode hex="0930"/>
  <outline>
    <contour>
      <point x="129" y="254" type="line"/>
      <point x="182" y="163"/>
      <point x="233" y="72"/>
      <point x="285" y="-18" type="curve"/>
      <point x="370" y="3" type="line"/>
      <point x="208" y="261" type="line"/>
      <point x="306" y="286"/>
      <point x="371" y="368"/>
      <point x="371" y="466" type="curve" smooth="yes"/>
      <point x="371" y="517"/>
      <point x="355" y="573"/>
      <point x="324" y="611" type="curve"/>
      <point x="454" y="611" type="line"/>
      <point x="438" y="680" type="line"/>
      <point x="-11" y="680" type="line"/>
      <point x="-5" y="657"/>
      <point x="-1" y="634"/>
      <point x="3" y="611" type="curve"/>
      <point x="216" y="611" type="line"/>
      <point x="257" y="586"/>
      <point x="285" y="524"/>
      <point x="285" y="466" type="curve" smooth="yes"/>
      <point x="285" y="398"/>
      <point x="247" y="350"/>
      <point x="192" y="334" type="curve"/>
      <point x="182" y="358"/>
      <point x="165" y="398"/>
      <point x="143" y="398" type="curve" smooth="yes"/>
      <point x="95" y="398"/>
      <point x="52" y="339"/>
      <point x="52" y="293" type="curve" smooth="yes"/>
      <point x="52" y="271"/>
      <point x="67" y="254"/>
      <point x="90" y="254" type="curve" smooth="yes"/>
    </contour>
  </outline>
</glyph>
<glyph name="dv_Ssa" format="1">
  <advance width="660"/>
  <unicode hex="0937"/>
  <outline>
    <contour>
      <point x="457" y="0" type="line"/>
      <point x="544" y="-16" type="line"/>
      <point x="544" y="611" type="line"/>
      <point x="672" y="611" type="line"/>
      <point x="667" y="634"/>
      <point x="662" y="657"/>
      <point x="656" y="680" type="curve"/>
      <point x="-11" y="680" type="line"/>
      <point x="-5" y="657"/>
      <point x="-1" y="634"/>
      <point x="3" y="611" type="curve"/>
      <point x="96" y="611" type="line"/>
      <point x="96" y="383" type="line" smooth="yes"/>
      <point x="96" y="249"/>
      <point x="184" y="171"/>
      <point x="312" y="171" type="curve" smooth="yes"/>
      <point x="368" y="171"/>
      <point x="424" y="189"/>
      <point x="457" y="218" type="curve"/>
    </contour>
    <contour>
      <point x="227" y="244"/>
      <point x="182" y="297"/>
      <point x="182" y="383" type="curve" smooth="yes"/>
      <point x="182" y="582" type="line"/>
      <point x="428" y="291" type="line"/>
      <point x="405" y="261"/>
      <point x="366" y="244"/>
      <point x="317" y="244" type="curve" smooth="yes"/>
    </contour>
    <contour>
      <point x="457" y="382" type="line" smooth="yes"/>
      <point x="457" y="370"/>
      <point x="457" y="360"/>
      <point x="454" y="350" type="curve"/>
      <point x="231" y="611" type="line"/>
      <point x="457" y="611" type="line"/>
    </contour>
  </outline>
</glyph>
<glyph name="dv_MatraOe" format="1">
  <advance width="0"/>
  <unicode hex="093A"/>
  <outline>
    <contour>
      <point x="-28" y="882" type="line"/>
      <point x="-109" y="898" type="line"/>
      <point x="-109" y="680" type="line"/>
      <point x="-28" y="680" type="line"/>
    </contour>
  </outline>
</glyph>
<glyph name="dv_MatraOoe" format="1">
  <advance width="320"/>
  <unicode hex="093B"/>
  <outline>
    <contour>
      <point x="200" y="882" type="line"/>
      <point x="119" y="898" type="line"/>
      <point x="119" y="680" type="line"/>
      <point x="-11" y="680" type="line"/>
      <point x="-5" y="657"/>
      <point x="-1" y="634"/>
      <point x="3" y="611" type="curve"/>
      <point x="116" y="611" type="line"/>
      <point x="116" y="0" type="line"/>
      <point x="203" y="-16" type="line"/>
      <point x="203" y="611" type="line"/>
      <point x="331" y="611" type="line"/>
      <point x="326" y="634"/>
      <point x="320" y="657"/>
      <point x="314" y="680" type="curve"/>
      <point x="200" y="680" type="line"/>
    </contour>
  </outline>
</glyph>
<glyph name="dv_MatraAa" format="1">
  <advance width="320"/>
  <unicode hex="093E"/>
  <outline>
    <contour>
      <point x="116" y="0" type="line"/>
      <point x="203" y="-16" type="line"/>
      <point x="203" y="612" type="line"/>
      <point x="331" y="612" type="line"/>
      <point x="315" y="680" type="line"/>
      <point x="-11" y="680" type="line"/>
      <point x="4" y="612" type="line"/>
      <point x="116" y="612" type="line"/>
    </contour>
  </outline>
</glyph>
<glyph name="dv_MatraI" format="1">
  <advance width="320"/>
  <unicode hex="093F"/>
  <outline>
    <contour>
      <point x="450" y="873"/>
      <point x="641" y="781"/>
      <point x="747" y="711" type="curve"/>
      <point x="780" y="765" type="line"/>
      <point x="696" y="828"/>
      <point x="472" y="943"/>
      <point x="294" y="943" type="curve"/>
      <point x="161" y="943"/>
      <point x="76" y="870"/>
      <point x="76" y="768" type="curve"/>
      <point x="76" y="723"/>
      <point x="92" y="697"/>
      <point x="102" y="680" type="curve"/>
      <point x="-11" y="680" type="line"/>
      <point x="4" y="612" type="line"/>
      <point x="116" y="612" type="line"/>
      <point x="116" y="0" type="line"/>
      <point x="203" y="-16" type="line"/>
      <point x="203" y="612" type="line"/>
      <point x="331" y="612" type="line"/>
      <point x="315" y="680" type="line"/>
      <point x="194" y="680" type="line"/>
      <point x="183" y="693"/>
      <point x="159" y="721"/>
      <point x="159" y="765" type="curve"/>
      <point x="159" y="825"/>
      <point x="212" y="873"/>
      <point x="300" y="873" type="curve"/>
    </contour>
  </outline>
</glyph>
<glyph name="dv_MatraCandraE" format="1">
  <advance width="0"/>
  <unicode hex="0945"/>
  <outline>
    <contour>
      <point x="380" y="937" type="line"/>
      <point x="341" y="863"/>
      <point x="288" y="830"/>
      <point x="228" y="830" type="curve"/>
      <point x="167" y="830"/>
      <point x="111" y="864"/>
      <point x="75" y="937" type="curve"/>
      <point x="17" y="901" type="line"/>
      <point x="65" y="807"/>
      <point x="138" y="766"/>
      <point x="228" y="766" type="curve"/>
      <point x="316" y="766"/>
      <point x="390" y="806"/>
      <point x="439" y="901" type="curve"/>
    </contour>
  </outline>
</glyph>
<glyph name="dv_MatraE" format="1">
  <advance width="0"/>
  <unicode hex="0947"/>
  <outline>
    <contour>
      <point x="-87" y="640" type="line"/>
      <point x="-397" y="947" type="line"/>
      <point x="-465" y="899" type="line"/>
      <point x="-184" y="640" type="line"/>
    </contour>
  </outline>
</glyph>
<glyph name="dv_MatraAi" format="1">
  <advance width="0"/>
  <unicode hex="0948"/>
  <outline>
    <contour>
      <point x="-124" y="678" type="line"/>
      <point x="-207" y="1017" type="line"/>
      <point x="-288" y="990" type="line"/>
      <point x="-266" y="922"/>
      <point x="-243" y="853"/>
      <point x="-220" y="785" type="curve"/>
      <point x="-285" y="859"/>
      <point x="-335" y="863"/>
      <point x="-400" y="863" type="curve" smooth="yes"/>
      <point x="-493" y="863" type="line"/>
      <point x="-475" y="788" type="line"/>
      <point x="-397" y="788" type="line" smooth="yes"/>
      <point x="-341" y="788"/>
      <point x="-302" y="781"/>
      <point x="-242" y="719" type="curve" smooth="yes"/>
      <point x="-203" y="678" type="line"/>
    </contour>
  </outline>
</glyph>
<glyph name="dv_MatraAu" format="1">
  <advance width="320"/>
  <unicode hex="094C"/>
  <outline>
    <contour>
      <point x="195" y="680" type="line"/>
      <point x="167" y="792"/>
      <point x="140" y="905"/>
      <point x="113" y="1017" type="curve"/>
      <point x="32" y="990" type="line"/>
      <point x="54" y="922"/>
      <point x="76" y="853"/>
      <point x="99" y="785" type="curve"/>
      <point x="32" y="859"/>
      <point x="-17" y="863"/>
      <point x="-88" y="863" type="curve" smooth="yes"/>
      <point x="-172" y="863" type="line"/>
      <point x="-156" y="788" type="line"/>
      <point x="-77" y="788" type="line" smooth="yes"/>
      <point x="-21" y="788"/>
      <point x="15" y="782"/>
      <point x="74" y="722" type="curve" smooth="yes"/>
      <point x="115" y="680" type="line"/>
      <point x="-11" y="680" type="line"/>
      <point x="-5" y="657"/>
      <point x="-1" y="634"/>
      <point x="3" y="611" type="curve"/>
      <point x="116" y="611" type="line"/>
      <point x="116" y="0" type="line"/>
      <point x="203" y="-16" type="line"/>
      <point x="203" y="611" type="line"/>
      <point x="331" y="611" type="line"/>
      <point x="326" y="634"/>
      <point x="320" y="657"/>
      <point x="314" y="680" type="curve"/>
    </contour>
  </outline>
</glyph>
<glyph name="dv_Udatta" format="1">
  <advance width="0"/>
  <unicode hex="0951"/>
  <outline>
    <contour>
      <point x="87" y="755" type="line"/>
      <point x="100" y="942" type="line"/>
      <point x="17" y="942" type="line"/>
      <point x="29" y="755" type="line"/>
    </contour>
  </outline>
</glyph>
<glyph name="dv_Graveaccent" format="1">
  <advance width="0"/>
  <unicode hex="0953"/>
  <outline>
    <contour>
      <point x="175" y="755" type="line"/>
      <point x="109" y="942" type="line"/>
      <point x="17" y="942" type="line"/>
      <point x="120" y="755" type="line"/>
    </contour>
  </outline>
</glyph>
<glyph name="dv_Acuteaccent" format="1">
  <advance width="0"/>
  <unicode hex="0954"/>
  <outline>
    <contour>
      <point x="175" y="942" type="line"/>
      <point x="84" y="942" type="line"/>
      <point x="17" y="755" type="line"/>
      <point x="71" y="755" type="line"/>
    </contour>
  </outline>
</glyph>
<glyph name="dv_MatraCandraLongE" format="1">
  <advance width="0"/>
  <unicode hex="0955"/>
  <outline>
    <contour>
      <point x="383" y="989" type="line"/>
      <point x="344" y="915"/>
      <point x="286" y="884"/>
      <point x="231" y="884" type="curve" smooth="yes"/>
      <point x="170" y="884"/>
      <point x="114" y="918"/>
      <point x="78" y="989" type="curve"/>
      <point x="58" y="978"/>
      <point x="39" y="966"/>
      <point x="20" y="955" type="curve"/>
      <point x="67" y="861"/>
      <point x="142" y="822"/>
      <point x="231" y="822" type="curve" smooth="yes"/>
      <point x="320" y="822"/>
      <point x="393" y="860"/>
      <point x="441" y="955" type="curve"/>
    </contour>
    <contour>
      <point x="451" y="731" type="line"/>
      <point x="446" y="751"/>
      <point x="443" y="770"/>
      <point x="438" y="789" type="curve"/>
      <point x="19" y="789" type="line"/>
      <point x="32" y="731" type="line"/>
    </contour>
  </outline>
</glyph>
<glyph name="dv_MatraUe" format="1">
  <advance width="0"/>
  <unicode hex="0956"/>
  <outline>
    <contour>
      <point x="380" y="-42" type="line"/>
      <point x="341" y="-115"/>
      <point x="288" y="-150"/>
      <point x="228" y="-150" type="curve"/>
      <point x="167" y="-150"/>
      <point x="111" y="-114"/>
      <point x="75" y="-42" type="curve"/>
      <point x="17" y="-78" type="line"/>
      <point x="65" y="-172"/>
      <point x="138" y="-212"/>
      <point x="228" y="-212" type="curve"/>
      <point x="316" y="-212"/>
      <point x="390" y="-172"/>
      <point x="439" y="-78" type="curve"/>
    </contour>
  </outline>
</glyph>
<glyph name="dv_MatraUue" format="1">
  <advance width="0"/>
  <unicode hex="0957"/>
  <outline>
    <contour>
      <point x="429" y="-42" type="line"/>
      <point x="391" y="-115"/>
      <point x="322" y="-132"/>
      <point x="280" y="-132" type="curve"/>
      <point x="238" y="-132"/>
      <point x="165" y="-113"/>
      <point x="131" y="-42" type="curve"/>
      <point x="73" y="-77" type="line"/>
      <point x="122" y="-169"/>
      <point x="219" y="-193"/>
      <point x="280" y="-193" type="curve"/>
      <point x="339" y="-193"/>
      <point x="437" y="-170"/>
      <point x="487" y="-77" type="curve"/>
    </contour>
    <contour>
      <point x="480" y="-141" type="line"/>
      <point x="432" y="-209"/>
      <point x="350" y="-235"/>
      <point x="280" y="-235" type="curve"/>
      <point x="208" y="-235"/>
      <point x="122" y="-204"/>
      <point x="75" y="-141" type="curve"/>
      <point x="17" y="-177" type="line"/>
      <point x="84" y="-266"/>
      <point x="186" y="-297"/>
      <point x="280" y="-297" type="curve"/>
      <point x="374" y="-297"/>
      <point x="475" y="-270"/>
      <point x="537" y="-177" type="curve"/>
    </contour>
  </outline>
</glyph>
<glyph name="dv_Za" format="1">
  <advance width="764"/>
  <unicode hex="095B"/>
  <outline>
    <contour>
      <point x="562" y="391" type="line"/>
      <point x="562" y="0" type="line"/>
      <point x="647" y="-16" type="line"/>
      <point x="647" y="611" type="line"/>
      <point x="775" y="611" type="line"/>
      <point x="760" y="680" type="line"/>
      <point x="-11" y="680" type="line"/>
      <point x="-5" y="657"/>
      <point x="-1" y="634"/>
      <point x="3" y="611" type="curve"/>
      <point x="562" y="611" type="line"/>
      <point x="562" y="462" type="line"/>
      <point x="139" y="462" type="line"/>
      <point x="144" y="438"/>
      <point x="150" y="415"/>
      <point x="156" y="391" type="curve"/>
      <point x="211" y="391" type="line" smooth="yes"/>
      <point x="295" y="391"/>
      <point x="346" y="346"/>
      <point x="346" y="271" type="curve" smooth="yes"/>
      <point x="346" y="197"/>
      <point x="287" y="147"/>
      <point x="206" y="147" type="curve" smooth="yes"/>
      <point x="141" y="147"/>
      <point x="79" y="174"/>
      <point x="28" y="211" type="curve"/>
      <point x="12" y="136" type="line"/>
      <point x="58" y="105"/>
      <point x="126" y="76"/>
      <point x="208" y="76" type="curve" smooth="yes"/>
      <point x="330" y="76"/>
      <point x="431" y="140"/>
      <point x="431" y="272" type="curve" smooth="yes"/>
      <point x="431" y="321"/>
      <point x="415" y="361"/>
      <point x="389" y="391" type="curve"/>
    </contour>
    <contour>
      <point x="151" y="-78"/>
      <point x="178" y="-104"/>
      <point x="210" y="-104" type="curve" smooth="yes"/>
      <point x="243" y="-104"/>
      <point x="269" y="-78"/>
      <point x="269" y="-46" type="curve" smooth="yes"/>
      <point x="269" y="-14"/>
      <point x="243" y="12"/>
      <point x="210" y="12" type="curve" smooth="yes"/>
      <point x="178" y="12"/>
      <point x="151" y="-14"/>
      <point x="151" y="-46" type="curve" smooth="yes"/>
    </contour>
  </outline>
</glyph>
<glyph name="dv_Fa" format="1">
  <advance width="947"/>
  <unicode hex="095E"/>
  <outline>
    <contour>
      <point x="163" y="-7"/>
      <point x="189" y="-33"/>
      <point x="221" y="-33" type="curve" smooth="yes"/>
      <point x="255" y="-33"/>
      <point x="280" y="-7"/>
      <point x="280" y="24" type="curve" smooth="yes"/>
      <point x="280" y="57"/>
      <point x="255" y="83"/>
      <point x="221" y="83" type="curve" smooth="yes"/>
      <point x="189" y="83"/>
      <point x="163" y="57"/>
      <point x="163" y="24" type="curve" smooth="yes"/>
    </contour>
    <contour>
      <point x="815" y="206"/>
      <point x="756" y="149"/>
      <point x="674" y="149" type="curve"/>
      <point x="688" y="78" type="line"/>
      <point x="800" y="78"/>
      <point x="905" y="156"/>
      <point x="905" y="285" type="curve" smooth="yes"/>
      <point x="905" y="403"/>
      <point x="816" y="494"/>
      <point x="682" y="494" type="curve" smooth="yes"/>
      <point x="620" y="494"/>
      <point x="571" y="464"/>
      <point x="541" y="436" type="curve"/>
      <point x="541" y="611" type="line"/>
      <point x="959" y="611" type="line"/>
      <point x="944" y="680" type="line"/>
      <point x="-11" y="680" type="line"/>
      <point x="-5" y="657"/>
      <point x="-1" y="634"/>
      <point x="3" y="611" type="curve"/>
      <point x="95" y="611" type="line"/>
      <point x="95" y="383" type="line" smooth="yes"/>
      <point x="95" y="249"/>
      <point x="184" y="171"/>
      <point x="312" y="171" type="curve" smooth="yes"/>
      <point x="368" y="171"/>
      <point x="420" y="189"/>
      <point x="454" y="218" type="curve"/>
      <point x="454" y="0" type="line"/>
      <point x="541" y="-16" type="line"/>
      <point x="541" y="333" type="line"/>
      <point x="564" y="368"/>
      <point x="602" y="421"/>
      <point x="684" y="421" type="curve" smooth="yes"/>
      <point x="755" y="421"/>
      <point x="814" y="366"/>
      <point x="815" y="286" type="curve" smooth="yes"/>
    </contour>
    <contour>
      <point x="454" y="379" type="line"/>
      <point x="451" y="294"/>
      <point x="401" y="244"/>
      <point x="317" y="244" type="curve" smooth="yes"/>
      <point x="227" y="244"/>
      <point x="181" y="297"/>
      <point x="181" y="383" type="curve" smooth="yes"/>
      <point x="181" y="611" type="line"/>
      <point x="454" y="611" type="line"/>
    </contour>
  </outline>
</glyph>
<glyph name="dv_MatraVocalicL" format="1">
  <advance width="0"/>
  <unicode hex="0962"/>
  <outline>
    <contour>
      <point x="254" y="-143" type="line" smooth="yes"/>
      <point x="254" y="-101"/>
      <point x="282" y="-80"/>
      <point x="310" y="-80" type="curve"/>
      <point x="334" y="-80"/>
      <point x="357" y="-96"/>
      <point x="357" y="-124" type="curve"/>
      <point x="357" y="-169"/>
      <point x="310" y="-204"/>
      <point x="310" y="-261" type="curve"/>
      <point x="310" y="-299"/>
      <point x="359" y="-313"/>
      <point x="387" y="-313" type="curve"/>
      <point x="405" y="-313" type="line"/>
      <point x="419" y="-261" type="line"/>
      <point x="408" y="-261" type="line" smooth="yes"/>
      <point x="391" y="-261"/>
      <point x="379" y="-252"/>
      <point x="381" y="-240" type="curve"/>
      <point x="384" y="-205"/>
      <point x="426" y="-170"/>
      <point x="426" y="-120" type="curve"/>
      <point x="426" y="-67"/>
      <point x="379" y="-18"/>
      <point x="312" y="-18" type="curve"/>
      <point x="276" y="-18"/>
      <point x="235" y="-45"/>
      <point x="221" y="-74" type="curve"/>
      <point x="209" y="-43"/>
      <point x="167" y="-18"/>
      <point x="129" y="-18" type="curve"/>
      <point x="67" y="-19"/>
      <point x="17" y="-67"/>
      <point x="17" y="-120" type="curve"/>
      <point x="17" y="-185"/>
      <point x="48" y="-239"/>
      <point x="87" y="-314" type="curve"/>
      <point x="149" y="-299" type="line"/>
      <point x="108" y="-219"/>
      <point x="83" y="-175"/>
      <point x="83" y="-124" type="curve"/>
      <point x="83" y="-101"/>
      <point x="108" y="-79"/>
      <point x="131" y="-80" type="curve"/>
      <point x="160" y="-79"/>
      <point x="187" y="-96"/>
      <point x="188" y="-143" type="curve"/>
      <point x="188" y="-201" type="line"/>
      <point x="254" y="-216" type="line"/>
    </contour>
  </outline>
</glyph>
<glyph name="dv_Zero" format="1">
  <advance width="692"/>
  <unicode hex="0966"/>
  <outline>
    <contour>
      <point x="64" y="183"/>
      <point x="184" y="57"/>
      <point x="347" y="57" type="curve"/>
      <point x="509" y="57"/>
      <point x="628" y="183"/>
      <point x="628" y="339" type="curve"/>
      <point x="628" y="496"/>
      <point x="509" y="622"/>
      <point x="346" y="622" type="curve"/>
      <point x="183" y="622"/>
      <point x="64" y="496"/>
      <point x="64" y="339" type="curve"/>
    </contour>
    <contour>
      <point x="229" y="131"/>
      <point x="147" y="218"/>
      <point x="147" y="339" type="curve"/>
      <point x="147" y="461"/>
      <point x="229" y="548"/>
      <point x="346" y="548" type="curve"/>
      <point x="464" y="548"/>
      <point x="545" y="461"/>
      <point x="545" y="339" type="curve"/>
      <point x="545" y="218"/>
      <point x="464" y="131"/>
      <point x="346" y="131" type="curve"/>
    </contour>
  </outline>
</glyph>
<glyph name="dv_One" format="1">
  <advance width="388"/>
  <unicode hex="0967"/>
  <outline>
    <contour>
      <point x="55" y="306"/>
      <point x="54" y="296"/>
      <point x="54" y="286" type="curve"/>
      <point x="119" y="184"/>
      <point x="183" y="82"/>
      <point x="248" y="-18" type="curve"/>
      <point x="336" y="3" type="line"/>
      <point x="135" y="285" type="line"/>
      <point x="135" y="287"/>
      <point x="136" y="288"/>
      <point x="136" y="289" type="curve"/>
      <point x="229" y="363" type="line"/>
      <point x="319" y="430"/>
      <point x="343" y="493"/>
      <point x="343" y="556" type="curve" smooth="yes"/>
      <point x="343" y="634"/>
      <point x="288" y="695"/>
      <point x="201" y="695" type="curve" smooth="yes"/>
      <point x="123" y="695"/>
      <point x="67" y="632"/>
      <point x="67" y="549" type="curve" smooth="yes"/>
      <point x="67" y="481"/>
      <point x="124" y="430"/>
      <point x="174" y="412" type="curve"/>
      <point x="161" y="401" type="line" smooth="yes"/>
      <point x="127" y="372"/>
      <point x="89" y="346"/>
      <point x="55" y="317" type="curve"/>
    </contour>
    <contour>
      <point x="149" y="590"/>
      <point x="169" y="620"/>
      <point x="205" y="620" type="curve" smooth="yes"/>
      <point x="242" y="620"/>
      <point x="266" y="586"/>
      <point x="266" y="544" type="curve" smooth="yes"/>
      <point x="266" y="511"/>
      <point x="248" y="479"/>
      <point x="223" y="456" type="curve"/>
      <point x="183" y="470"/>
      <point x="149" y="502"/>
      <point x="149" y="550" type="curve" smooth="yes"/>
    </contour>
  </outline>
</glyph>
<glyph name="dv_Six" format="1">
  <advance width="547"/>
  <unicode hex="096C"/>
  <outline>
    <contour>
      <point x="513" y="-6" type="line"/>
      <point x="443" y="111" type="line"/>
      <point x="466" y="132"/>
      <point x="479" y="155"/>
      <point x="479" y="176" type="curve" smooth="yes"/>
      <point x="479" y="217"/>
      <point x="427" y="244"/>
      <point x="392" y="244" type="curve" smooth="yes"/>
      <point x="359" y="244"/>
      <point x="338" y="222"/>
      <point x="338" y="191" type="curve" smooth="yes"/>
      <point x="338" y="180"/>
      <point x="339" y="171"/>
      <point x="341" y="161" type="curve"/>
      <point x="325" y="156"/>
      <point x="307" y="154"/>
      <point x="288" y="154" type="curve" smooth="yes"/>
      <point x="217" y="154"/>
      <point x="154" y="198"/>
      <point x="154" y="255" type="curve" smooth="yes"/>
      <point x="154" y="316"/>
      <point x="190" y="374"/>
      <point x="300" y="374" type="curve" smooth="yes"/>
      <point x="400" y="374" type="line"/>
      <point x="395" y="394"/>
      <point x="391" y="415"/>
      <point x="387" y="436" type="curve"/>
      <point x="294" y="436" type="line" smooth="yes"/>
      <point x="206" y="436"/>
      <point x="165" y="475"/>
      <point x="165" y="536" type="curve" smooth="yes"/>
      <point x="165" y="589"/>
      <point x="208" y="624"/>
      <point x="267" y="624" type="curve" smooth="yes"/>
      <point x="333" y="624"/>
      <point x="385" y="601"/>
      <point x="434" y="564" type="curve"/>
      <point x="438" y="588"/>
      <point x="442" y="611"/>
      <point x="445" y="635" type="curve"/>
      <point x="398" y="671"/>
      <point x="335" y="695"/>
      <point x="260" y="695" type="curve" smooth="yes"/>
      <point x="144" y="695"/>
      <point x="77" y="624"/>
      <point x="77" y="538" type="curve" smooth="yes"/>
      <point x="77" y="477"/>
      <point x="109" y="422"/>
      <point x="165" y="405" type="curve"/>
      <point x="100" y="389"/>
      <point x="66" y="325"/>
      <point x="66" y="255" type="curve" smooth="yes"/>
      <point x="66" y="155"/>
      <point x="154" y="80"/>
      <point x="285" y="80" type="curve" smooth="yes"/>
      <point x="305" y="80"/>
      <point x="351" y="80"/>
      <point x="374" y="91" type="curve"/>
      <point x="376" y="86"/>
      <point x="378" y="82"/>
      <point x="381" y="78" type="curve"/>
      <point x="445" y="-41" type="line"/>
    </contour>
  </outline>
</glyph>
<glyph name="dv_Seven" format="1">
  <advance width="687"/>
  <unicode hex="096D"/>
  <outline>
    <contour>
      <point x="460" y="283"/>
      <point x="520" y="311"/>
      <point x="552" y="356" type="curve"/>
      <point x="554" y="341"/>
      <point x="555" y="327"/>
      <point x="555" y="314" type="curve" smooth="yes"/>
      <point x="555" y="155"/>
      <point x="466" y="58"/>
      <point x="341" y="58" type="curve" smooth="yes"/>
      <point x="199" y="58"/>
      <point x="119" y="144"/>
      <point x="119" y="303" type="curve"/>
      <point x="90" y="303"/>
      <point x="62" y="304"/>
      <point x="33" y="304" type="curve"/>
      <point x="33" y="102"/>
      <point x="138" y="-18"/>
      <point x="336" y="-18" type="curve" smooth="yes"/>
      <point x="521" y="-18"/>
      <point x="641" y="124"/>
      <point x="641" y="296" type="curve" smooth="yes"/>
      <point x="641" y="483"/>
      <point x="564" y="629"/>
      <point x="415" y="629" type="curve" smooth="yes"/>
      <point x="302" y="629"/>
      <point x="227" y="551"/>
      <point x="227" y="448" type="curve" smooth="yes"/>
      <point x="227" y="353"/>
      <point x="301" y="283"/>
      <point x="409" y="283" type="curve" smooth="yes"/>
    </contour>
    <contour>
      <point x="475" y="553"/>
      <point x="511" y="515"/>
      <point x="532" y="460" type="curve"/>
      <point x="529" y="401"/>
      <point x="473" y="354"/>
      <point x="418" y="354" type="curve" smooth="yes"/>
      <point x="352" y="354"/>
      <point x="311" y="396"/>
      <point x="311" y="455" type="curve" smooth="yes"/>
      <point x="311" y="514"/>
      <point x="359" y="553"/>
      <point x="417" y="553" type="curve" smooth="yes"/>
    </contour>
  </outline>
</glyph>
<glyph name="dv_Abbreviation" format="1">
  <advance width="569"/>
  <unicode hex="0970"/>
  <outline>
    <contour>
      <point x="517" y="414"/>
      <point x="415" y="518"/>
      <point x="286" y="518" type="curve"/>
      <point x="153" y="518"/>
      <point x="53" y="417"/>
      <point x="53" y="287" type="curve"/>
      <point x="53" y="152"/>
      <point x="153" y="48"/>
      <point x="285" y="48" type="curve"/>
      <point x="415" y="48"/>
      <point x="517" y="152"/>
      <point x="517" y="282" type="curve"/>
    </contour>
    <contour>
      <point x="440" y="190"/>
      <point x="372" y="119"/>
      <point x="285" y="119" type="curve"/>
      <point x="198" y="119"/>
      <point x="130" y="189"/>
      <point x="130" y="284" type="curve"/>
      <point x="130" y="376"/>
      <point x="198" y="446"/>
      <point x="285" y="446" type="curve"/>
      <point x="372" y="446"/>
      <point x="440" y="376"/>
      <point x="440" y="284" type="curve"/>
    </contour>
  </outline>
</glyph>
<glyph name="dv_Oe" format="1">
  <advance width="889"/>
  <unicode hex="0973"/>
  <outline>
    <contour>
      <point x="417" y="-15"/>
      <point x="500" y="69"/>
      <point x="500" y="183" type="curve" smooth="yes"/>
      <point x="500" y="242"/>
      <point x="472" y="288"/>
      <point x="422" y="317" type="curve"/>
      <point x="685" y="317" type="line"/>
      <point x="685" y="0" type="line"/>
      <point x="771" y="-16" type="line"/>
      <point x="771" y="611" type="line"/>
      <point x="900" y="611" type="line"/>
      <point x="884" y="680" type="line"/>
      <point x="769" y="680" type="line"/>
      <point x="769" y="882" type="line"/>
      <point x="687" y="898" type="line"/>
      <point x="687" y="680" type="line"/>
      <point x="556" y="680" type="line"/>
      <point x="573" y="611" type="line"/>
      <point x="685" y="611" type="line"/>
      <point x="685" y="382" type="line"/>
      <point x="408" y="382" type="line"/>
      <point x="454" y="411"/>
      <point x="486" y="460"/>
      <point x="486" y="513" type="curve" smooth="yes"/>
      <point x="486" y="609"/>
      <point x="428" y="695"/>
      <point x="280" y="695" type="curve" smooth="yes"/>
      <point x="201" y="695"/>
      <point x="128" y="667"/>
      <point x="79" y="630" type="curve"/>
      <point x="83" y="606"/>
      <point x="87" y="581"/>
      <point x="90" y="557" type="curve"/>
      <point x="147" y="599"/>
      <point x="207" y="624"/>
      <point x="275" y="624" type="curve" smooth="yes"/>
      <point x="359" y="624"/>
      <point x="397" y="572"/>
      <point x="397" y="511" type="curve" smooth="yes"/>
      <point x="397" y="439"/>
      <point x="344" y="381"/>
      <point x="233" y="381" type="curve" smooth="yes"/>
      <point x="135" y="381" type="line"/>
      <point x="142" y="360"/>
      <point x="148" y="339"/>
      <point x="155" y="319" type="curve"/>
      <point x="226" y="319" type="line" smooth="yes"/>
      <point x="369" y="319"/>
      <point x="412" y="267"/>
      <point x="412" y="181" type="curve" smooth="yes"/>
      <point x="412" y="97"/>
      <point x="347" y="55"/>
      <point x="264" y="55" type="curve" smooth="yes"/>
      <point x="195" y="55"/>
      <point x="133" y="77"/>
      <point x="82" y="113" type="curve"/>
      <point x="67" y="41" type="line"/>
      <point x="113" y="10"/>
      <point x="183" y="-15"/>
      <point x="264" y="-15" type="curve" smooth="yes"/>
    </contour>
  </outline>
</glyph>
<glyph name="dv_Zha" format="1">
  <advance width="764"/>
  <unicode hex="0979"/>
  <outline>
    <contour>
      <point x="562" y="391" type="line"/>
      <point x="562" y="0" type="line"/>
      <point x="647" y="-16" type="line"/>
      <point x="647" y="611" type="line"/>
      <point x="775" y="611" type="line"/>
      <point x="760" y="680" type="line"/>
      <point x="-11" y="680" type="line"/>
      <point x="-5" y="657"/>
      <point x="-1" y="634"/>
      <point x="3" y="611" type="curve"/>
      <point x="562" y="611" type="line"/>
      <point x="562" y="462" type="line"/>
      <point x="139" y="462" type="line"/>
      <point x="144" y="438"/>
      <point x="150" y="415"/>
      <point x="156" y="391" type="curve"/>
      <point x="211" y="391" type="line" smooth="yes"/>
      <point x="295" y="391"/>
      <point x="346" y="346"/>
      <point x="346" y="271" type="curve" smooth="yes"/>
      <point x="346" y="197"/>
      <point x="287" y="147"/>
      <point x="206" y="147" type="curve" smooth="yes"/>
      <point x="141" y="147"/>
      <point x="79" y="174"/>
      <point x="28" y="211" type="curve"/>
      <point x="12" y="136" type="line"/>
      <point x="58" y="105"/>
      <point x="126" y="76"/>
      <point x="208" y="76" type="curve" smooth="yes"/>
      <point x="330" y="76"/>
      <point x="431" y="140"/>
      <point x="431" y="272" type="curve" smooth="yes"/>
      <point x="431" y="321"/>
      <point x="415" y="361"/>
      <point x="389" y="391" type="curve"/>
    </contour>
    <contour>
      <point x="252" y="-54"/>
      <point x="279" y="-80"/>
      <point x="311" y="-80" type="curve" smooth="yes"/>
      <point x="343" y="-80"/>
      <point x="369" y="-54"/>
      <point x="369" y="-21" type="curve" smooth="yes"/>
      <point x="369" y="11"/>
      <point x="343" y="37"/>
      <point x="311" y="37" type="curve" smooth="yes"/>
      <point x="279" y="37"/>
      <point x="252" y="11"/>
      <point x="252" y="-21" type="curve" smooth="yes"/>
    </contour>
    <contour>
      <point x="49" y="-54"/>
      <point x="75" y="-80"/>
      <point x="107" y="-80" type="curve" smooth="yes"/>
      <point x="140" y="-80"/>
      <point x="167" y="-54"/>
      <point x="167" y="-21" type="curve" smooth="yes"/>
      <point x="167" y="11"/>
      <point x="140" y="37"/>
      <point x="107" y="37" type="curve" smooth="yes"/>
      <point x="75" y="37"/>
      <point x="49" y="11"/>
      <point x="49" y="-21" type="curve" smooth="yes"/>
    </contour>
    <contour>
      <point x="151" y="-165"/>
      <point x="177" y="-190"/>
      <point x="210" y="-190" type="curve" smooth="yes"/>
      <point x="242" y="-190"/>
      <point x="268" y="-165"/>
      <point x="268" y="-132" type="curve" smooth="yes"/>
      <point x="268" y="-100"/>
      <point x="242" y="-73"/>
      <point x="210" y="-73" type="curve" smooth="yes"/>
      <point x="177" y="-73"/>
      <point x="151" y="-100"/>
      <point x="151" y="-132" type="curve" smooth="yes"/>
    </contour>
  </outline>
</glyph>
<glyph name="dv_HeavyYa" format="1">
  <advance width="625"/>
  <unicode hex="097A"/>
  <outline>
    <contour>
      <point x="153" y="441"/>
      <point x="116" y="391"/>
      <point x="78" y="379" type="curve"/>
      <point x="62" y="362" type="line"/>
      <point x="62" y="262"/>
      <point x="167" y="171"/>
      <point x="288" y="171" type="curve" smooth="yes"/>
      <point x="349" y="171"/>
      <point x="395" y="189"/>
      <point x="429" y="217" type="curve"/>
      <point x="429" y="0" type="line"/>
      <point x="515" y="-16" type="line"/>
      <point x="515" y="611" type="line"/>
      <point x="644" y="611" type="line"/>
      <point x="628" y="680" type="line"/>
      <point x="-7" y="680" type="line"/>
      <point x="8" y="611" type="line"/>
      <point x="82" y="611" type="line"/>
      <point x="126" y="597"/>
      <point x="153" y="560"/>
      <point x="153" y="510" type="curve" smooth="yes"/>
    </contour>
    <contour>
      <point x="216" y="247"/>
      <point x="160" y="292"/>
      <point x="145" y="341" type="curve"/>
      <point x="211" y="378"/>
      <point x="233" y="449"/>
      <point x="233" y="516" type="curve"/>
      <point x="410" y="307" type="line"/>
      <point x="387" y="266"/>
      <point x="345" y="244"/>
      <point x="289" y="244" type="curve"/>
    </contour>
    <contour>
      <point x="429" y="611" type="line"/>
      <point x="429" y="398" type="line" smooth="yes"/>
      <point x="429" y="388"/>
      <point x="428" y="379"/>
      <point x="428" y="370" type="curve"/>
      <point x="359" y="450"/>
      <point x="290" y="531"/>
      <point x="220" y="611" type="curve"/>
    </contour>
  </outline>
</glyph>
<glyph name="dv_GlottalStop" format="1">
  <advance width="551"/>
  <unicode hex="097D"/>
  <outline>
    <contour>
      <point x="498" y="602"/>
      <point x="426" y="695"/>
      <point x="280" y="695" type="curve"/>
      <point x="192" y="695"/>
      <point x="124" y="667"/>
      <point x="66" y="629" type="curve"/>
      <point x="77" y="550" type="line"/>
      <point x="137" y="592"/>
      <point x="199" y="620"/>
      <point x="276" y="620" type="curve"/>
      <point x="357" y="620"/>
      <point x="407" y="576"/>
      <point x="407" y="495" type="curve"/>
      <point x="407" y="412"/>
      <point x="327" y="339"/>
      <point x="215" y="304" type="curve"/>
      <point x="215" y="42" type="line"/>
      <point x="302" y="15" type="line"/>
      <point x="302" y="260" type="line"/>
      <point x="428" y="306"/>
      <point x="498" y="408"/>
      <point x="498" y="496" type="curve"/>
    </contour>
  </outline>
</glyph>
<glyph name="endash" format="1">
  <advance width="412"/>
  <unicode hex="2013"/>
  <outline>
    <contour>
      <point x="396" y="242" type="line"/>
      <point x="387" y="305" type="line"/>
      <point x="16" y="305" type="line"/>
      <point x="25" y="242" type="line"/>
    </contour>
  </outline>
</glyph>
<glyph name="quoteleft" format="1">
  <advance width="135"/>
  <unicode hex="2018"/>
  <outline>
    <contour>
      <point x="7" y="509"/>
      <point x="29" y="484"/>
      <point x="61" y="484" type="curve"/>
      <point x="92" y="484"/>
      <point x="115" y="510"/>
      <point x="115" y="538" type="curve"/>
      <point x="115" y="565"/>
      <point x="95" y="590"/>
      <point x="68" y="592" type="curve"/>
      <point x="73" y="629"/>
      <point x="97" y="651"/>
      <point x="130" y="674" type="curve"/>
      <point x="108" y="712" type="line"/>
      <point x="52" y="682"/>
      <point x="7" y="611"/>
      <point x="7" y="547" type="curve"/>
    </contour>
  </outline>
</glyph>
<glyph name="quotesinglbase" format="1">
  <advance width="135"/>
  <unicode hex="201A"/>
  <outline>
    <contour>
      <point x="128" y="83"/>
      <point x="103" y="107"/>
      <point x="74" y="107" type="curve"/>
      <point x="43" y="107"/>
      <point x="19" y="82"/>
      <point x="19" y="54" type="curve"/>
      <point x="19" y="27"/>
      <point x="40" y="2"/>
      <point x="65" y="1" type="curve"/>
      <point x="60" y="-37"/>
      <point x="38" y="-59"/>
      <point x="6" y="-82" type="curve"/>
      <point x="26" y="-120" type="line"/>
      <point x="83" y="-90"/>
      <point x="128" y="-20"/>
      <point x="128" y="45" type="curve"/>
    </contour>
  </outline>
</glyph>
<glyph name="quotedblleft" format="1">
  <advance width="291"/>
  <unicode hex="201C"/>
  <outline>
    <contour>
      <point x="163" y="509"/>
      <point x="187" y="484"/>
      <point x="217" y="484" type="curve"/>
      <point x="247" y="484"/>
      <point x="272" y="510"/>
      <point x="272" y="538" type="curve"/>
      <point x="272" y="565"/>
      <point x="251" y="590"/>
      <point x="226" y="592" type="curve"/>
      <point x="229" y="629"/>
      <point x="253" y="651"/>
      <point x="285" y="674" type="curve"/>
      <point x="265" y="712" type="line"/>
      <point x="208" y="682"/>
      <point x="163" y="611"/>
      <point x="163" y="547" type="curve"/>
    </contour>
    <contour>
      <point x="7" y="509"/>
      <point x="29" y="484"/>
      <point x="61" y="484" type="curve"/>
      <point x="92" y="484"/>
      <point x="115" y="510"/>
      <point x="115" y="538" type="curve"/>
      <point x="115" y="565"/>
      <point x="95" y="590"/>
      <point x="68" y="592" type="curve"/>
      <point x="73" y="629"/>
      <point x="97" y="651"/>
      <point x="130" y="674" type="curve"/>
      <point x="108" y="712" type="line"/>
      <point x="52" y="682"/>
      <point x="7" y="611"/>
      <point x="7" y="547" type="curve"/>
    </contour>
  </outline>
</glyph>
<glyph name="quotedblright" format="1">
  <advance width="291"/>
  <unicode hex="201D"/>
  <outline>
    <contour>
      <point x="128" y="687"/>
      <point x="103" y="712"/>
      <point x="74" y="712" type="curve"/>
      <point x="43" y="712"/>
      <point x="19" y="686"/>
      <point x="19" y="657" type="curve"/>
      <point x="19" y="630"/>
      <point x="40" y="606"/>
      <point x="65" y="604" type="curve"/>
      <point x="60" y="567"/>
      <point x="38" y="545"/>
      <point x="6" y="521" type="curve"/>
      <point x="26" y="484" type="line"/>
      <point x="83" y="514"/>
      <point x="128" y="585"/>
      <point x="128" y="648" type="curve"/>
    </contour>
    <contour>
      <point x="284" y="687"/>
      <point x="260" y="712"/>
      <point x="230" y="712" type="curve"/>
      <point x="199" y="712"/>
      <point x="176" y="686"/>
      <point x="176" y="657" type="curve"/>
      <point x="176" y="630"/>
      <point x="196" y="606"/>
      <point x="222" y="604" type="curve"/>
      <point x="217" y="567"/>
      <point x="195" y="545"/>
      <point x="162" y="521" type="curve"/>
      <point x="183" y="484" type="line"/>
      <point x="239" y="514"/>
      <point x="284" y="585"/>
      <point x="284" y="648" type="curve"/>
    </contour>
  </outline>
</glyph>
<glyph name="ellipsis" format="1">
  <advance width="433"/>
  <unicode hex="2026"/>
  <outline>
    <contour>
      <point x="116" y="79"/>
      <point x="94" y="101"/>
      <point x="65" y="101" type="curve"/>
      <point x="37" y="101"/>
      <point x="14" y="79"/>
      <point x="14" y="50" type="curve"/>
      <point x="14" y="22"/>
      <point x="37" y="0"/>
      <point x="65" y="0" type="curve"/>
      <point x="94" y="0"/>
      <point x="116" y="22"/>
      <point x="116" y="50" type="curve"/>
    </contour>
    <contour>
      <point x="269" y="79"/>
      <point x="247" y="101"/>
      <point x="219" y="101" type="curve"/>
      <point x="190" y="101"/>
      <point x="167" y="79"/>
      <point x="167" y="50" type="curve"/>
      <point x="167" y="22"/>
      <point x="190" y="0"/>
      <point x="219" y="0" type="curve"/>
      <point x="247" y="0"/>
      <point x="269" y="22"/>
      <point x="269" y="50" type="curve"/>
    </contour>
    <contour>
      <point x="418" y="79"/>
      <point x="396" y="101"/>
      <point x="368" y="101" type="curve"/>
      <point x="340" y="101"/>
      <point x="317" y="79"/>
      <point x="317" y="50" type="curve"/>
      <point x="317" y="22"/>
      <point x="340" y="0"/>
      <point x="368" y="0" type="curve"/>
      <point x="396" y="0"/>
      <point x="418" y="22"/>
      <point x="418" y="50" type="curve"/>
    </contour>
  </outline>
</glyph>
<glyph name="perthousand" format="1">
  <advance width="1235"/>
  <unicode hex="2030"/>
  <outline>
    <contour>
      <point x="102" y="702"/>
      <point x="31" y="636"/>
      <point x="31" y="532" type="curve"/>
      <point x="31" y="424"/>
      <point x="98" y="363"/>
      <point x="190" y="363" type="curve"/>
      <point x="277" y="363"/>
      <point x="348" y="428"/>
      <point x="348" y="532" type="curve"/>
      <point x="348" y="640"/>
      <point x="281" y="702"/>
      <point x="189" y="702" type="curve"/>
    </contour>
    <contour>
      <point x="145" y="424"/>
      <point x="105" y="457"/>
      <point x="105" y="532" type="curve"/>
      <point x="105" y="610"/>
      <point x="149" y="640"/>
      <point x="189" y="640" type="curve"/>
      <point x="234" y="640"/>
      <point x="274" y="608"/>
      <point x="274" y="532" type="curve"/>
      <point x="274" y="454"/>
      <point x="230" y="424"/>
      <point x="190" y="424" type="curve"/>
    </contour>
    <contour>
      <point x="621" y="706" type="line"/>
      <point x="543" y="710" type="line"/>
      <point x="238" y="0" type="line"/>
      <point x="314" y="-4" type="line"/>
    </contour>
    <contour>
      <point x="583" y="338"/>
      <point x="512" y="273"/>
      <point x="512" y="169" type="curve"/>
      <point x="512" y="61"/>
      <point x="579" y="0"/>
      <point x="671" y="0" type="curve"/>
      <point x="758" y="0"/>
      <point x="828" y="65"/>
      <point x="828" y="169" type="curve"/>
      <point x="828" y="276"/>
      <point x="762" y="338"/>
      <point x="671" y="338" type="curve"/>
    </contour>
    <contour>
      <point x="626" y="61"/>
      <point x="587" y="93"/>
      <point x="587" y="169" type="curve"/>
      <point x="587" y="247"/>
      <point x="630" y="277"/>
      <point x="671" y="277" type="curve"/>
      <point x="715" y="277"/>
      <point x="754" y="244"/>
      <point x="754" y="169" type="curve"/>
      <point x="754" y="92"/>
      <point x="711" y="61"/>
      <point x="671" y="61" type="curve"/>
    </contour>
    <contour>
      <point x="958" y="338"/>
      <point x="888" y="273"/>
      <point x="888" y="169" type="curve"/>
      <point x="888" y="61"/>
      <point x="954" y="0"/>
      <point x="1046" y="0" type="curve"/>
      <point x="1133" y="0"/>
      <point x="1204" y="65"/>
      <point x="1204" y="169" type="curve"/>
      <point x="1204" y="276"/>
      <point x="1138" y="338"/>
      <point x="1046" y="338" type="curve"/>
    </contour>
    <contour>
      <point x="1001" y="61"/>
      <point x="961" y="93"/>
      <point x="961" y="169" type="curve"/>
      <point x="961" y="247"/>
      <point x="1006" y="277"/>
      <point x="1046" y="277" type="curve"/>
      <point x="1090" y="277"/>
      <point x="1130" y="244"/>
      <point x="1130" y="169" type="curve"/>
      <point x="1130" y="92"/>
      <point x="1087" y="61"/>
      <point x="1046" y="61" type="curve"/>
    </contour>
  </outline>
</glyph>
<glyph name="Euro" format="1">
  <advance width="595"/>
  <unicode hex="20AC"/>
  <outline>
    <contour>
      <point x="476" y="218" type="line"/>
      <point x="468" y="279" type="line"/>
      <point x="211" y="279" type="line"/>
      <point x="210" y="297"/>
      <point x="208" y="318"/>
      <point x="208" y="337" type="curve"/>
      <point x="208" y="358"/>
      <point x="210" y="379"/>
      <point x="212" y="398" type="curve"/>
      <point x="476" y="398" type="line"/>
      <point x="468" y="459" type="line"/>
      <point x="224" y="459" type="line"/>
      <point x="250" y="561"/>
      <point x="313" y="626"/>
      <point x="414" y="626" type="curve"/>
      <point x="474" y="626"/>
      <point x="494" y="615"/>
      <point x="540" y="597" type="curve"/>
      <point x="565" y="655" type="line"/>
      <point x="522" y="683"/>
      <point x="464" y="694"/>
      <point x="412" y="694" type="curve"/>
      <point x="257" y="694"/>
      <point x="173" y="597"/>
      <point x="143" y="459" type="curve"/>
      <point x="34" y="459" type="line"/>
      <point x="43" y="398" type="line"/>
      <point x="134" y="398" type="line"/>
      <point x="131" y="379"/>
      <point x="129" y="357"/>
      <point x="129" y="336" type="curve"/>
      <point x="129" y="316"/>
      <point x="130" y="297"/>
      <point x="133" y="279" type="curve"/>
      <point x="34" y="279" type="line"/>
      <point x="43" y="218" type="line"/>
      <point x="141" y="218" type="line"/>
      <point x="166" y="85"/>
      <point x="242" y="-14"/>
      <point x="407" y="-14" type="curve"/>
      <point x="468" y="-14"/>
      <point x="525" y="3"/>
      <point x="566" y="25" type="curve"/>
      <point x="536" y="85" type="line"/>
      <point x="499" y="68"/>
      <point x="462" y="54"/>
      <point x="404" y="54" type="curve"/>
      <point x="297" y="54"/>
      <point x="244" y="122"/>
      <point x="221" y="218" type="curve"/>
    </contour>
  </outline>
</glyph>
<glyph name="Turkishlira" format="1">
  <advance width="530"/>
  <unicode hex="20BA"/>
  <outline>
    <contour>
      <point x="365" y="503" type="line"/>
      <point x="305" y="482"/>
      <point x="245" y="460"/>
      <point x="186" y="440" type="curve"/>
      <point x="186" y="491" type="line"/>
      <point x="376" y="558" type="line"/>
      <point x="365" y="616" type="line"/>
      <point x="305" y="596"/>
      <point x="245" y="574"/>
      <point x="186" y="553" type="curve"/>
      <point x="186" y="706" type="line"/>
      <point x="107" y="695" type="line"/>
      <point x="107" y="525" type="line"/>
      <point x="21" y="495" type="line"/>
      <point x="31" y="436" type="line"/>
      <point x="56" y="445"/>
      <point x="82" y="454"/>
      <point x="107" y="462" type="curve"/>
      <point x="107" y="412" type="line"/>
      <point x="21" y="381" type="line"/>
      <point x="31" y="323" type="line"/>
      <point x="56" y="331"/>
      <point x="82" y="341"/>
      <point x="107" y="349" type="curve"/>
      <point x="107" y="0" type="line"/>
      <point x="175" y="0" type="line" smooth="yes"/>
      <point x="342" y="0"/>
      <point x="498" y="135"/>
      <point x="498" y="327" type="curve"/>
      <point x="417" y="327" type="line"/>
      <point x="417" y="187"/>
      <point x="301" y="69"/>
      <point x="186" y="69" type="curve"/>
      <point x="186" y="377" type="line"/>
      <point x="249" y="400"/>
      <point x="313" y="422"/>
      <point x="376" y="444" type="curve"/>
    </contour>
  </outline>
</glyph>
<glyph name="Ruble" format="1">
  <advance width="601"/>
  <unicode hex="20BD"/>
  <outline>
    <contour>
      <point x="469" y="147" type="line"/>
      <point x="462" y="207" type="line"/>
      <point x="195" y="207" type="line"/>
      <point x="195" y="265" type="line"/>
      <point x="291" y="265" type="line" smooth="yes"/>
      <point x="433" y="265"/>
      <point x="550" y="326"/>
      <point x="551" y="475" type="curve"/>
      <point x="551" y="626"/>
      <point x="445" y="680"/>
      <point x="300" y="680" type="curve"/>
      <point x="115" y="680" type="line"/>
      <point x="115" y="331" type="line"/>
      <point x="44" y="331" type="line"/>
      <point x="44" y="265" type="line"/>
      <point x="115" y="265" type="line"/>
      <point x="115" y="207" type="line"/>
      <point x="43" y="207" type="line"/>
      <point x="50" y="147" type="line"/>
      <point x="115" y="147" type="line"/>
      <point x="115" y="0" type="line"/>
      <point x="195" y="0" type="line"/>
      <point x="195" y="147" type="line"/>
    </contour>
    <contour>
      <point x="301" y="613" type="line" smooth="yes"/>
      <point x="405" y="613"/>
      <point x="471" y="584"/>
      <point x="471" y="473" type="curve"/>
      <point x="467" y="368"/>
      <point x="394" y="331"/>
      <point x="293" y="331" type="curve"/>
      <point x="195" y="331" type="line"/>
      <point x="195" y="613" type="line"/>
    </contour>
  </outline>
</glyph>
<glyph name="Ohm" format="1">
  <advance width="765"/>
  <unicode hex="2126"/>
  <outline>
    <contour>
      <point x="518" y="626"/>
      <point x="613" y="509"/>
      <point x="613" y="339" type="curve"/>
      <point x="613" y="231"/>
      <point x="564" y="105"/>
      <point x="488" y="64" type="curve"/>
      <point x="484" y="0" type="line"/>
      <point x="692" y="0" type="line"/>
      <point x="698" y="64" type="line"/>
      <point x="586" y="64" type="line"/>
      <point x="656" y="120"/>
      <point x="697" y="233"/>
      <point x="697" y="340" type="curve"/>
      <point x="697" y="542"/>
      <point x="580" y="692"/>
      <point x="383" y="696" type="curve"/>
      <point x="185" y="692"/>
      <point x="69" y="542"/>
      <point x="69" y="340" type="curve"/>
      <point x="69" y="233"/>
      <point x="110" y="120"/>
      <point x="178" y="64" type="curve"/>
      <point x="68" y="64" type="line"/>
      <point x="73" y="0" type="line"/>
      <point x="280" y="0" type="line"/>
      <point x="277" y="64" type="line"/>
      <point x="201" y="105"/>
      <point x="152" y="231"/>
      <point x="152" y="339" type="curve"/>
      <point x="152" y="509"/>
      <point x="248" y="626"/>
      <point x="383" y="626" type="curve"/>
    </contour>
  </outline>
</glyph>
<glyph name="partialdiff" format="1">
  <advance width="545"/>
  <unicode hex="2202"/>
  <outline>
    <contour>
      <point x="383" y="0"/>
      <point x="484" y="89"/>
      <point x="484" y="271" type="curve"/>
      <point x="484" y="418"/>
      <point x="376" y="605"/>
      <point x="204" y="640" type="curve"/>
      <point x="169" y="591" type="line"/>
      <point x="285" y="564"/>
      <point x="369" y="461"/>
      <point x="395" y="349" type="curve"/>
      <point x="359" y="381"/>
      <point x="309" y="407"/>
      <point x="252" y="407" type="curve"/>
      <point x="125" y="407"/>
      <point x="47" y="311"/>
      <point x="47" y="207" type="curve"/>
      <point x="47" y="100"/>
      <point x="129" y="0"/>
      <point x="250" y="0" type="curve"/>
    </contour>
    <contour>
      <point x="324" y="339"/>
      <point x="380" y="297"/>
      <point x="406" y="250" type="curve"/>
      <point x="400" y="137"/>
      <point x="352" y="66"/>
      <point x="253" y="66" type="curve"/>
      <point x="172" y="66"/>
      <point x="123" y="130"/>
      <point x="123" y="201" type="curve"/>
      <point x="123" y="275"/>
      <point x="171" y="339"/>
      <point x="252" y="339" type="curve"/>
    </contour>
  </outline>
</glyph>
<glyph name="Delta" format="1">
  <advance width="601"/>
  <unicode hex="2206"/>
  <outline>
    <contour>
      <point x="334" y="680" type="line"/>
      <point x="257" y="680" type="line"/>
      <point x="6" y="0" type="line"/>
      <point x="516" y="0" type="line"/>
      <point x="595" y="12" type="line"/>
    </contour>
    <contour>
      <point x="295" y="575" type="line"/>
      <point x="492" y="63" type="line"/>
      <point x="106" y="63" type="line"/>
    </contour>
  </outline>
</glyph>
<glyph name="minus" format="1">
  <advance width="449"/>
  <unicode hex="2212"/>
  <outline>
    <contour>
      <point x="433" y="242" type="line"/>
      <point x="423" y="305" type="line"/>
      <point x="16" y="305" type="line"/>
      <point x="24" y="242" type="line"/>
    </contour>
  </outline>
</glyph>
<glyph name="integral" format="1">
  <advance width="352"/>
  <unicode hex="222B"/>
  <outline>
    <contour>
      <point x="166" y="-179"/>
      <point x="216" y="-121"/>
      <point x="216" y="-30" type="curve"/>
      <point x="216" y="630" type="line" smooth="yes"/>
      <point x="216" y="680"/>
      <point x="233" y="715"/>
      <point x="282" y="715" type="curve"/>
      <point x="296" y="715"/>
      <point x="314" y="708"/>
      <point x="325" y="704" type="curve"/>
      <point x="344" y="766" type="line"/>
      <point x="329" y="775"/>
      <point x="299" y="783"/>
      <point x="270" y="783" type="curve"/>
      <point x="187" y="783"/>
      <point x="137" y="727"/>
      <point x="137" y="635" type="curve"/>
      <point x="137" y="-26" type="line"/>
      <point x="137" y="-74"/>
      <point x="120" y="-108"/>
      <point x="70" y="-108" type="curve"/>
      <point x="56" y="-108"/>
      <point x="38" y="-104"/>
      <point x="27" y="-99" type="curve"/>
      <point x="9" y="-162" type="line"/>
      <point x="24" y="-170"/>
      <point x="54" y="-179"/>
      <point x="81" y="-179" type="curve"/>
    </contour>
  </outline>
</glyph>
<glyph name="notequal" format="1">
  <advance width="476"/>
  <unicode hex="2260"/>
  <outline>
    <contour>
      <point x="386" y="517" type="line"/>
      <point x="317" y="520" type="line"/>
      <point x="255" y="380" type="line"/>
      <point x="17" y="380" type="line"/>
      <point x="26" y="319" type="line"/>
      <point x="227" y="319" type="line"/>
      <point x="171" y="192" type="line"/>
      <point x="17" y="192" type="line"/>
      <point x="26" y="131" type="line"/>
      <point x="144" y="131" type="line"/>
      <point x="81" y="-10" type="line"/>
      <point x="150" y="-15" type="line"/>
      <point x="215" y="131" type="line"/>
      <point x="459" y="131" type="line"/>
      <point x="451" y="192" type="line"/>
      <point x="242" y="192" type="line"/>
      <point x="299" y="319" type="line"/>
      <point x="459" y="319" type="line"/>
      <point x="451" y="380" type="line"/>
      <point x="326" y="380" type="line"/>
    </contour>
  </outline>
</glyph>
<glyph name="greaterequal" format="1">
  <advance width="324"/>
  <unicode hex="2265"/>
  <outline>
    <contour>
      <point x="312" y="265" type="line"/>
      <point x="312" y="321" type="line"/>
      <point x="50" y="481" type="line"/>
      <point x="27" y="420" type="line"/>
      <point x="232" y="294" type="line"/>
      <point x="27" y="166" type="line"/>
      <point x="50" y="105" type="line"/>
    </contour>
    <contour>
      <point x="308" y="0" type="line"/>
      <point x="300" y="60" type="line"/>
      <point x="27" y="60" type="line"/>
      <point x="36" y="0" type="line"/>
    </contour>
  </outline>
</glyph>
<glyph name="commaaccent" format="1">
  <advance width="149"/>
  <unicode hex="F6C3"/>
  <outline>
    <contour>
      <point x="134" y="-45"/>
      <point x="110" y="-21"/>
      <point x="79" y="-21" type="curve"/>
      <point x="49" y="-21"/>
      <point x="25" y="-46"/>
      <point x="25" y="-76" type="curve"/>
      <point x="25" y="-102"/>
      <point x="46" y="-127"/>
      <point x="71" y="-129" type="curve"/>
      <point x="67" y="-162"/>
      <point x="44" y="-185"/>
      <point x="15" y="-202" type="curve"/>
      <point x="36" y="-240" type="line"/>
      <point x="90" y="-213"/>
      <point x="134" y="-148"/>
      <point x="134" y="-84" type="curve"/>
    </contour>
  </outline>
</glyph>
<glyph name=".notdef" format="1">
  <advance width="658"/>
  <outline>
    <contour>
      <point x="563" y="696" type="line"/>
      <point x="94" y="696" type="line"/>
      <point x="94" y="0" type="line"/>
      <point x="563" y="0" type="line"/>
    </contour>
    <contour>
      <point x="174" y="632" type="line"/>
      <point x="482" y="632" type="line"/>
      <point x="483" y="63" type="line"/>
      <point x="174" y="63" type="line"/>
    </contour>
  </outline>
</glyph>
<glyph name="breve.case" format="1">
  <advance width="300"/>
  <outline>
    <contour>
      <point x="245" y="750"/>
      <point x="284" y="815"/>
      <point x="284" y="886" type="curve"/>
      <point x="227" y="886" type="line"/>
      <point x="227" y="850"/>
      <point x="201" y="807"/>
      <point x="150" y="807" type="curve"/>
      <point x="97" y="807"/>
      <point x="73" y="850"/>
      <point x="73" y="886" type="curve"/>
      <point x="16" y="886" type="line"/>
      <point x="16" y="815"/>
      <point x="55" y="750"/>
      <point x="150" y="748" type="curve"/>
    </contour>
  </outline>
</glyph>
<glyph name="dieresis.case" format="1">
  <advance width="295"/>
  <outline>
    <contour>
      <point x="278" y="839"/>
      <point x="258" y="861"/>
      <point x="230" y="861" type="curve"/>
      <point x="203" y="861"/>
      <point x="181" y="839"/>
      <point x="181" y="813" type="curve"/>
      <point x="181" y="785"/>
      <point x="203" y="764"/>
      <point x="230" y="764" type="curve"/>
      <point x="258" y="764"/>
      <point x="278" y="785"/>
      <point x="278" y="813" type="curve"/>
    </contour>
    <contour>
      <point x="113" y="839"/>
      <point x="92" y="861"/>
      <point x="65" y="861" type="curve"/>
      <point x="38" y="861"/>
      <point x="16" y="839"/>
      <point x="16" y="813" type="curve"/>
      <point x="16" y="785"/>
      <point x="38" y="764"/>
      <point x="65" y="764" type="curve"/>
      <point x="92" y="764"/>
      <point x="113" y="785"/>
      <point x="113" y="813" type="curve"/>
    </contour>
  </outline>
</glyph>
<glyph name="dotaccent.case" format="1">
  <advance width="140"/>
  <outline>
    <contour>
      <point x="124" y="846"/>
      <point x="100" y="871"/>
      <point x="70" y="871" type="curve"/>
      <point x="40" y="871"/>
      <point x="16" y="846"/>
      <point x="16" y="816" type="curve"/>
      <point x="16" y="785"/>
      <point x="40" y="762"/>
      <point x="70" y="762" type="curve"/>
      <point x="100" y="762"/>
      <point x="124" y="785"/>
      <point x="124" y="816" type="curve"/>
    </contour>
  </outline>
</glyph>
